<svg width="329" height="99" viewBox="0 0 329 99" fill="none" xmlns="http://www.w3.org/2000/svg">
<path d="M136.639 94.1909L141.252 98.8176L169.572 70.4129C176.801 63.1621 181.276 53.1261 181.276 42.0542C181.276 19.8875 163.353 1.91016 141.252 1.91016C119.151 1.91016 101.25 19.8875 101.25 42.0542C101.25 53.1261 105.726 63.1621 112.932 70.3899C113.551 71.0114 114.355 71.3566 115.273 71.3566C117.063 71.3566 118.532 69.9065 118.532 68.088C118.532 67.1673 118.141 66.3386 117.545 65.7171C111.532 59.6863 107.768 51.2616 107.768 42.0312C107.768 23.5014 122.8 8.42436 141.275 8.42436C159.749 8.42436 174.782 23.5014 174.782 42.0312C174.782 51.3076 171.018 59.7093 164.959 65.7862L136.639 94.1909Z" fill="#00A0DF"/>
<path d="M128.767 33.1462L141.206 33.1922L148.963 40.9494L128.767 40.9034V33.1462ZM121.492 28.3123V33.1692H126.266V40.9264H121.492V55.3589C122.594 54.9676 123.695 54.5763 124.82 54.208C126.151 53.7937 127.413 53.4944 128.675 53.2873C132.669 52.6428 136.409 53.0571 140.701 54.0929C144.947 55.1057 149.124 56.9012 153.461 57.7068L163.146 40.9034H152.428L139.944 28.2663H133.633L127.023 21.2227H124.017L126.357 28.2663H121.492V28.3123Z" fill="#00A0DF"/>
<path d="M157.087 55.7275C157.041 55.7275 155.779 58.1214 155.779 58.1214C155.963 58.1445 156.146 58.1445 156.33 58.1675C157.799 58.2595 159.222 58.3286 160.667 58.2595C161.539 58.2135 162.412 58.1214 163.307 57.9603L165.028 55.083C161.998 55.9577 159.841 55.8886 157.087 55.7275Z" fill="#00A0DF"/>
<path d="M156.95 60.3306C156.743 60.3076 156.536 60.3076 156.33 60.2845C155.802 60.2385 155.297 60.1925 154.792 60.1234L154.379 60.0544C149.743 59.3408 145.314 57.3612 140.77 56.2794C139.324 55.9341 137.901 55.6579 136.501 55.4737C132.646 54.9673 128.928 55.1975 124.912 56.4635C123.764 56.8318 122.64 57.2461 121.492 57.6605V60.1464C122.64 59.7321 123.764 59.3408 124.912 58.9725C130.42 57.2231 135.216 57.4303 140.77 58.7884C144.947 59.7782 149.032 61.5275 153.278 62.3562L153.691 62.4253C154.379 62.5404 155.068 62.6554 155.779 62.7245C155.963 62.7475 156.146 62.7475 156.33 62.7705C157.707 62.8626 159.015 62.9317 160.346 62.8856L161.884 60.3076C160.254 60.5147 158.717 60.4457 156.95 60.3306Z" fill="#00A0DF"/>
<path d="M60.9735 62.1032C66.0913 56.9471 69.2354 49.8575 69.2354 42.0542C69.2354 26.3787 56.5213 13.6265 40.8924 13.6265C25.2636 13.6265 12.5495 26.3787 12.5495 42.0542C12.5495 49.8805 15.7624 57.0392 20.8343 62.1032C21.431 62.7017 22.2572 63.093 23.1752 63.093C24.9653 63.093 26.4341 61.6429 26.4341 59.8244C26.4341 58.8807 26.0439 58.052 25.4243 57.4535C21.4999 53.4944 19.0901 48.039 19.0901 42.0312C19.0901 29.9466 28.8897 20.1177 40.9384 20.1177C52.987 20.1177 62.7865 29.9466 62.7865 42.0312C62.7865 48.062 60.3309 53.5404 56.3836 57.4996L28.0176 85.9043L32.6076 90.5079L60.9735 62.1032ZM18.1492 68.111C18.1492 67.1903 17.7591 66.3616 17.1624 65.7402C11.1495 59.7093 7.38575 51.2846 7.38575 42.0542C7.38575 23.5244 22.4179 8.44738 40.8924 8.44738C59.367 8.44738 74.3991 23.5244 74.3991 42.0542C74.3991 51.3306 70.6354 59.7323 64.5766 65.8092L36.2795 94.1909L40.8924 98.8176L69.2125 70.4129C76.4417 63.1391 80.9169 53.1261 80.9169 42.0542C80.9169 19.8875 62.9931 1.91016 40.8924 1.91016C18.7918 1.91016 0.868012 19.8875 0.868012 42.0542C0.868012 53.1261 5.34322 63.1621 12.5495 70.3899C13.1691 71.0114 13.9723 71.3566 14.8903 71.3566C16.7034 71.3566 18.1492 69.9065 18.1492 68.111ZM57.5769 42.0542C57.5769 32.8239 50.0953 25.3429 40.9154 25.3429C31.7125 25.3429 24.2539 32.8469 24.2539 42.0542C24.2539 51.2846 31.7355 58.7886 40.9154 58.7886C50.0953 58.7656 57.5769 51.2616 57.5769 42.0542ZM30.7257 42.0542C30.7257 36.4377 35.2927 31.8571 40.8924 31.8571C46.4922 31.8571 51.0592 36.4377 51.0592 42.0542C51.0592 47.6707 46.4922 52.2514 40.8924 52.2514C35.2927 52.2514 30.7257 47.6707 30.7257 42.0542Z" fill="#00A0DF"/>
<path d="M201.61 18.3223H208.678C212.947 18.3223 215.104 21.4988 215.104 24.3531C215.104 27.2534 212.947 30.3609 208.678 30.3609H205.511V36.3687H201.587V18.3223H201.61ZM208.311 26.9081C210.009 26.9081 211.042 25.8953 211.042 24.3531C211.042 22.8569 210.009 21.8211 208.311 21.8211H205.534V26.9081H208.311Z" fill="#00A0DF"/>
<path d="M216.688 29.8545C216.688 25.8723 219.35 23.041 223.091 23.041C226.648 23.041 229.379 25.2047 229.379 30.1997V31.0975H220.75C221.025 32.7778 222.494 33.3072 223.71 33.3072C224.904 33.3072 225.96 32.7318 226.419 32.0642L228.828 34.4811C227.268 36.0004 225.455 36.6679 223.297 36.6679C219.901 36.6909 216.688 34.274 216.688 29.8545ZM225.432 28.3813C225.271 26.9311 224.514 26.0334 223.068 26.0334C221.76 26.0334 220.934 27.0462 220.704 28.3813H225.432Z" fill="#00A0DF"/>
<path d="M239.752 31.0744H239.706C238.811 31.6499 237.549 31.9261 236.31 31.9261C233.648 31.9261 231.077 30.4299 231.077 26.747V23.3633H234.818V26.747C234.818 28.013 235.966 28.7956 237.021 28.7956C238.054 28.7956 239.11 28.4503 239.752 27.9439V23.3863H243.493V36.4147H239.752V31.0744Z" fill="#00A0DF"/>
<path d="M247.05 23.3633H250.814V28.1741H255.06V23.3633H258.824V36.3917H255.06V31.4658H250.814V36.3917H247.05V23.3633Z" fill="#00A0DF"/>
<path d="M261.509 29.8314C261.509 25.8493 264.24 23.041 268.164 23.041C272.043 23.041 274.797 25.8493 274.797 29.8314C274.797 33.8827 272.043 36.6909 268.164 36.6909C264.24 36.6909 261.509 33.8827 261.509 29.8314ZM270.895 29.8314C270.895 27.8058 269.862 26.4017 268.164 26.4017C266.466 26.4017 265.41 27.8288 265.41 29.8314C265.41 31.788 266.466 33.3533 268.164 33.3533C269.862 33.3533 270.895 31.788 270.895 29.8314Z" fill="#00A0DF"/>
<path d="M277.528 23.3634H281.291V30.7293H281.337L286.295 23.3634H289.53V36.3918H285.767V29.0259H285.721L280.787 36.3918H277.528V23.3634ZM279.088 19.4042L281.039 17.4707C281.406 18.1613 282.118 19.128 283.334 19.128C284.872 19.128 285.422 18.1843 285.813 17.4707L287.672 19.4042C287.19 20.4171 285.744 21.9823 283.426 21.9823C281.131 21.9823 279.685 20.4171 279.088 19.4042Z" fill="#00A0DF"/>
<path d="M203.652 54.2081H199.843V50.9395H211.524L210.308 54.2081H207.393V63.9679H203.629V54.2081H203.652Z" fill="#00A0DF"/>
<path d="M217.055 68.7322H213.291V50.916H217.055V52.205H217.101C217.675 51.5145 218.776 50.5938 220.75 50.5938C224.146 50.5938 226.694 53.402 226.694 57.3842C226.694 61.3894 224.146 64.2437 220.75 64.2437C218.776 64.2437 217.652 63.3459 217.101 62.6324H217.055V68.7322ZM219.878 60.8599C221.599 60.8599 222.815 59.3868 222.815 57.3842C222.815 55.4736 221.599 53.9775 219.878 53.9775C218.157 53.9775 216.917 55.4736 216.917 57.3842C216.917 59.3868 218.134 60.8599 219.878 60.8599Z" fill="#00A0DF"/>
<path d="M228.461 59.8936C228.461 57.8219 230.182 55.6352 234.198 55.6352C234.772 55.6352 235.69 55.6582 236.379 55.7733V55.5892C236.379 54.3692 235.392 53.9318 234.29 53.9318C233.303 53.9318 232.225 54.2311 231.261 54.8986L229.058 52.6428C230.549 51.2387 232.707 50.6172 234.474 50.6172C237.87 50.6172 240.165 52.5507 240.165 55.6812V63.9679H236.448V62.6558H236.402C235.736 63.7837 234.52 64.2901 232.89 64.2901C230.343 64.2671 228.461 62.3796 228.461 59.8936ZM236.402 58.9729V58.5355C235.897 58.4204 235.277 58.3514 234.749 58.3514C233.028 58.3514 232.294 58.9729 232.271 59.8476C232.248 60.7223 232.913 61.3438 234.084 61.3207C235.162 61.2977 236.402 60.6302 236.402 58.9729Z" fill="#00A0DF"/>
<path d="M243.539 50.9395H247.303V55.7503H251.549V50.9395H255.312V63.9679H251.549V59.0419H247.303V63.9679H243.539V50.9395Z" fill="#00A0DF"/>
<path d="M257.997 57.4076C257.997 53.4254 260.545 50.6172 264.423 50.6172C266.053 50.6172 267.866 50.9625 269.358 52.4356L266.971 54.8065C266.374 54.185 265.548 53.9548 264.653 53.9548C262.955 53.9548 261.922 55.405 261.922 57.4076C261.922 59.4102 262.955 60.9294 264.653 60.9294C265.548 60.9294 266.374 60.6992 266.971 60.1008L269.358 62.4717C267.866 63.9448 266.03 64.2901 264.423 64.2901C260.545 64.2671 257.997 61.4588 257.997 57.4076Z" fill="#00A0DF"/>
<path d="M271.607 50.9395H282.921V63.9679H279.157V54.2081H275.347V63.9679H271.584V50.9395H271.607Z" fill="#00A0DF"/>
<path d="M285.583 57.4076C285.583 53.4254 288.314 50.6172 292.239 50.6172C296.117 50.6172 298.871 53.4254 298.871 57.4076C298.871 61.4588 296.117 64.2671 292.239 64.2671C288.314 64.2671 285.583 61.4588 285.583 57.4076ZM294.97 57.4076C294.97 55.382 293.937 53.9779 292.239 53.9779C290.54 53.9779 289.485 55.405 289.485 57.4076C289.485 59.3642 290.54 60.9294 292.239 60.9294C293.937 60.9294 294.97 59.3642 294.97 57.4076Z" fill="#00A0DF"/>
<path d="M305.343 68.7322H301.579V50.916H305.343V52.205H305.389C305.962 51.5145 307.064 50.5938 309.038 50.5938C312.434 50.5938 314.982 53.402 314.982 57.3842C314.982 61.3894 312.434 64.2437 309.038 64.2437C307.064 64.2437 305.94 63.3459 305.389 62.6324H305.343V68.7322ZM308.166 60.8599C309.887 60.8599 311.103 59.3868 311.103 57.3842C311.103 55.4736 309.887 53.9775 308.166 53.9775C306.444 53.9775 305.205 55.4736 305.205 57.3842C305.205 59.3868 306.444 60.8599 308.166 60.8599Z" fill="#00A0DF"/>
<path d="M320.237 54.2081H316.428V50.9395H328.109L326.893 54.2081H323.978V63.9679H320.214V54.2081H320.237Z" fill="#00A0DF"/>
</svg>
