<svg width="960" height="208" viewBox="0 0 960 208" fill="none" xmlns="http://www.w3.org/2000/svg">
<path opacity="0.1" fill-rule="evenodd" clip-rule="evenodd" d="M2224.77 309.667L-536.227 295.935C-536.227 295.935 -599.286 13.7461 -495.078 13.7461C-390.87 13.7461 -299.91 132.505 -83.3329 132.505C133.244 132.505 254.564 4.49855 485.387 9.12231C716.211 13.7461 811.44 126.08 1095.49 126.08C1379.53 126.08 1416.4 13.7461 1730.09 13.7461C2043.77 13.7461 2176.54 126.08 2417.49 126.08C2658.45 126.08 2224.77 309.667 2224.77 309.667Z" fill="#3B9DEF" fill-opacity="0.5"/>
<path opacity="0.1" fill-rule="evenodd" clip-rule="evenodd" d="M1537.24 305.457L-1223.75 291.725C-1223.75 291.725 -1286.81 9.53611 -1182.61 9.53611C-1078.4 9.53611 -987.438 128.295 -770.861 128.295C-554.284 128.295 -432.964 0.288592 -202.141 4.91235C28.6829 9.53611 123.912 121.87 407.959 121.87C692.006 121.87 728.877 9.53611 1042.56 9.53611C1356.24 9.53611 1489.01 121.87 1729.96 121.87C1970.92 121.87 1537.24 305.457 1537.24 305.457Z" fill="#3B9DEF"/>
<path opacity="0.1" fill-rule="evenodd" clip-rule="evenodd" d="M1376.43 15.855C1652.1 15.855 2218.76 142.087 1179.07 212.994C139.375 283.901 -2094.41 244.361 -2094.41 244.361C-2094.41 244.361 -2154.34 4.04187 -2055.3 4.04187C-1956.25 4.04187 -1869.8 105.18 -1663.96 105.18C-1458.12 105.18 -1342.81 -3.83354 -1123.43 0.104164C-904.051 4.04187 -813.542 99.7082 -543.575 99.7082C-273.609 99.7082 -238.566 4.04187 59.5671 4.04187C357.7 4.04187 483.889 99.7082 712.898 99.7082C941.907 99.7082 1100.76 15.855 1376.43 15.855Z" fill="#3B9DEF"/>
</svg>
