<svg width="10" height="12" viewBox="0 0 10 12" fill="none" xmlns="http://www.w3.org/2000/svg">
<path d="M3.58383 1.0887C4.21365 0.969198 4.87413 0.969571 5.64145 1.09514C6.07664 1.16636 6.42727 1.51488 6.55942 1.97133C6.59601 2.0977 6.63342 2.2254 6.67118 2.35429C7.03782 3.60573 7.4375 4.96999 7.4375 6.33108C7.4375 7.80895 6.96468 9.11281 6.57786 10.1738C6.43865 10.5556 6.14832 10.8398 5.79186 10.904C5.0815 11.032 4.2935 11.032 3.58314 10.904C3.22668 10.8398 2.93635 10.5556 2.79715 10.1738C2.41033 9.11281 1.9375 7.80895 1.9375 6.33109C1.9375 4.82131 2.43078 3.0472 2.81899 1.82203C2.9393 1.44233 3.2268 1.15644 3.58383 1.0887Z" fill="#9D61FF" stroke="#FAFAFA" stroke-width="0.5"/>
</svg>
