<svg width="10" height="12" viewBox="0 0 10 12" fill="none" xmlns="http://www.w3.org/2000/svg">
<path d="M7.4375 6.65116L7.4375 9.60756L7.4375 9.60758L7.4375 9.60759L7.4375 9.6076L7.4375 9.60771L7.4375 9.60816L7.4375 9.60824L7.4375 9.6098L7.4375 9.61044L7.4375 9.61526L7.4375 9.62039L7.4375 9.62809L7.4375 9.63065L7.4375 9.63162L7.4375 9.63181L7.4375 9.63185L7.4375 9.63187L7.4375 9.63188L7.4375 9.63192L7.4375 9.66915L7.4375 9.93604C7.4375 10.4536 7.32115 10.7007 7.19386 10.8242C7.06654 10.9478 6.87517 11 6.59659 11L2.77841 11C2.35551 11 1.9375 10.5692 1.9375 9.93604L1.9375 8.69509C1.93783 8.69463 1.93801 8.69431 1.93801 8.69414L1.93804 8.69145L1.93805 8.69058L1.93806 8.68405L1.93808 8.58641L1.93796 6.65114C1.93773 4.37378 2.2777 2.95343 2.78794 2.10975C3.28519 1.28757 3.95123 1 4.6877 1C5.42416 1 6.09011 1.28756 6.58731 2.10975C7.09752 2.95343 7.4375 4.3738 7.4375 6.65116ZM7.4443 9.66546C7.44238 9.65459 7.44093 9.64367 7.43989 9.63428C7.49475 9.68845 7.54958 9.71866 7.60173 9.73282C7.55229 9.7245 7.49935 9.70394 7.4443 9.66546Z" fill="#C2FF74" stroke="#FAFAFA" stroke-width="0.5"/>
</svg>
