<svg width="10" height="23" viewBox="0 0 10 23" fill="none" xmlns="http://www.w3.org/2000/svg">
<path d="M7.34583 22.5628C5.76758 22.8124 3.60739 22.8124 2.02914 22.5628C1.82651 22.5308 1.68054 22.3732 1.6656 22.1751C1.46573 19.5257 1.60421 10.9708 1.68037 6.26599C1.70379 4.81894 1.72132 3.73609 1.7213 3.30127C1.72119 1.47736 2.71787 0.708803 3.35246 0.450055C3.66699 0.321811 4.16621 0.25 4.68749 0.25C5.20877 0.25 5.70799 0.321812 6.02251 0.450056C6.65709 0.708798 7.65367 1.47735 7.65367 3.30128C7.65367 3.73555 7.67117 4.81623 7.69456 6.26054C7.77072 10.9642 7.90933 19.5247 7.70937 22.1751C7.69443 22.3732 7.54847 22.5308 7.34583 22.5628Z" fill="#FFEE57" stroke="#FAFAFA" stroke-width="0.5"/>
</svg>
