<svg width="10" height="12" viewBox="0 0 10 12" fill="none" xmlns="http://www.w3.org/2000/svg">
<path d="M3.20283 11.6615C2.88976 11.6286 2.63268 11.3941 2.56704 11.0815C2.29463 9.78445 1.9375 7.93007 1.9375 6.5C1.9375 5.3077 2.47497 3.72425 3.12269 2.42397C3.44474 1.77745 3.78761 1.214 4.09252 0.816133C4.2455 0.616511 4.38353 0.465707 4.4994 0.367371C4.55721 0.318316 4.60444 0.28668 4.64062 0.268216C4.66903 0.253718 4.68397 0.250735 4.6875 0.250139C4.69103 0.250735 4.70597 0.253718 4.73438 0.268216C4.77056 0.28668 4.81779 0.318316 4.8756 0.367371C4.99147 0.465707 5.1295 0.616511 5.28248 0.816133C5.58739 1.214 5.93026 1.77745 6.25231 2.42397C6.90003 3.72425 7.4375 5.3077 7.4375 6.5C7.4375 7.84658 7.07907 9.76274 6.8064 11.082C6.74188 11.3941 6.48528 11.6286 6.17217 11.6615C5.05142 11.7795 4.32358 11.7795 3.20283 11.6615Z" fill="#59AFFF" stroke="#FAFAFA" stroke-width="0.5"/>
</svg>
