<svg width="10" height="15" viewBox="0 0 10 15" fill="none" xmlns="http://www.w3.org/2000/svg">
<path d="M6.07375 14.5349C5.11601 14.8217 4.25899 14.8217 3.30125 14.5349C3.18945 14.5015 3.10807 14.4302 3.06981 14.3408C2.87886 13.8946 2.70923 13.1987 2.56365 12.3773C2.41897 11.561 2.301 10.6388 2.20801 9.75044C2.02171 7.97059 1.9375 6.34483 1.9375 6C1.9375 4.96606 2.18411 3.76076 2.63836 2.70442C3.09485 1.64287 3.74496 0.768112 4.52604 0.347461C4.6218 0.295889 4.73672 0.295641 4.83299 0.346941C5.62185 0.767284 6.27588 1.64207 6.73439 2.70356C7.1907 3.75998 7.4375 4.96567 7.4375 6C7.4375 6.34483 7.35329 7.97059 7.16699 9.75044C7.074 10.6388 6.95603 11.561 6.81135 12.3773C6.66577 13.1987 6.49614 13.8946 6.30519 14.3408C6.26693 14.4302 6.18556 14.5015 6.07375 14.5349Z" fill="#FF7D61" stroke="#FAFAFA" stroke-width="0.5"/>
</svg>
