<svg width="10" height="12" viewBox="0 0 10 12" fill="none" xmlns="http://www.w3.org/2000/svg">
<path d="M2.31251 5.2754L2.31251 5.27505C2.31044 3.80145 2.6306 2.7222 3.08868 2.01959C3.54594 1.31823 4.13146 1.00082 4.6847 1C5.23789 0.999186 5.82368 1.3148 6.28183 2.01466C6.74082 2.71583 7.06249 3.79409 7.06249 5.26775C7.0625 7.70359 6.52062 9.52814 5.93743 10.8018C5.87333 10.9418 5.74203 11.0388 5.58939 11.059C4.9449 11.1444 4.43011 11.1444 3.78562 11.059C3.63297 11.0388 3.50168 10.9418 3.43757 10.8018C2.85434 9.52811 2.31251 7.70415 2.31251 5.2754Z" fill="#EBE9E9" stroke="#FAFAFA" stroke-width="0.5"/>
</svg>
