<svg width="21" height="19" viewBox="0 0 21 19" fill="none" xmlns="http://www.w3.org/2000/svg">
<path fill-rule="evenodd" clip-rule="evenodd" d="M10.1214 1.81896C5.55821 1.81896 1.8592 5.51797 1.8592 10.0812C1.8592 12.0298 2.53368 13.8207 3.66192 15.2334L2.20831 16.64C2.08493 16.7727 2.00947 16.9505 2.00947 17.146C2.00947 17.5565 2.34225 17.8893 2.75276 17.8893C2.98138 17.8893 3.1859 17.7861 3.32225 17.6237L4.68669 16.3046C6.13935 17.5742 8.04053 18.3434 10.1214 18.3434C12.1876 18.3434 14.0761 17.5845 15.5247 16.3309L16.8675 17.629C17.0038 17.7914 17.2083 17.8946 17.4369 17.8946C17.8475 17.8946 18.1802 17.5618 18.1802 17.1513C18.1802 16.9558 18.1048 16.7779 17.9814 16.6453L16.5553 15.2653C17.699 13.8477 18.3837 12.0445 18.3837 10.0812C18.3837 5.51797 14.6847 1.81896 10.1214 1.81896ZM10.1214 3.32118C6.38786 3.32118 3.36142 6.34763 3.36142 10.0812C3.36142 13.8148 6.38786 16.8412 10.1214 16.8412C13.855 16.8412 16.8814 13.8148 16.8814 10.0812C16.8814 6.34763 13.855 3.32118 10.1214 3.32118Z" fill="#B3B4B6"/>
<path d="M4.42479 1.16431C4.42479 0.753804 4.092 0.421021 3.6815 0.421021C3.45626 0.421021 3.25441 0.521207 3.1181 0.679448L0.385365 3.32378C0.261984 3.45647 0.186523 3.63433 0.186523 3.82981C0.186523 4.24031 0.519306 4.5731 0.929815 4.5731C1.15844 4.5731 1.36295 4.46988 1.4993 4.3075L4.18478 1.7113C4.33234 1.57547 4.42479 1.38069 4.42479 1.16431Z" fill="#B3B4B6"/>
<path d="M15.7776 1.16431C15.7776 0.753804 16.1104 0.421021 16.5209 0.421021C16.7461 0.421021 16.948 0.521207 17.0843 0.679448L19.817 3.32378C19.9404 3.45647 20.0159 3.63433 20.0159 3.82981C20.0159 4.24031 19.6831 4.5731 19.2726 4.5731C19.044 4.5731 18.8394 4.46988 18.7031 4.3075L16.0176 1.7113C15.8701 1.57547 15.7776 1.38069 15.7776 1.16431Z" fill="#B3B4B6"/>
<path d="M7.53407 10.6149C7.53407 10.1993 7.871 9.86235 8.28663 9.86235C8.4913 9.86235 8.67689 9.94405 8.81256 10.0766L9.79176 11.0651L12.3076 8.54421C12.4393 8.43101 12.6106 8.36259 12.7979 8.36259C13.2135 8.36259 13.5504 8.69952 13.5504 9.11515C13.5504 9.3025 13.482 9.47386 13.3687 9.60558L10.3084 12.6672C10.1737 12.7945 9.99182 12.8726 9.79176 12.8726C9.59169 12.8726 9.40986 12.7945 9.27507 12.6672L7.70889 11.0972C7.59975 10.9666 7.53407 10.7984 7.53407 10.6149Z" fill="#B3B4B6"/>
</svg>
