<svg width="24" height="24" viewBox="0 0 24 24" fill="none" xmlns="http://www.w3.org/2000/svg">
<path fill-rule="evenodd" clip-rule="evenodd" d="M10.0813 2.83796C10.4441 2.45606 10.826 2.21737 11.2938 2.05506C11.437 2.00732 11.838 1.98822 12.2008 2.00732C13.757 2.0837 14.8836 3.32489 14.7882 4.86205C14.7309 5.84545 14.3299 6.52333 13.4515 7.14392L13.1555 7.35397L13.1173 13.4835C13.0887 18.9352 13.1078 19.6131 13.2415 19.6131C13.5374 19.6131 14.559 19.1739 15.1796 18.7825C15.5233 18.5724 16.0294 18.1428 16.3062 17.8372C16.8409 17.2358 17.4615 16.1664 17.3851 15.9659C17.3565 15.8991 17.1464 15.7845 16.9173 15.7177C16.6022 15.6222 16.4685 15.5076 16.3349 15.2499C16.1917 14.9443 16.1917 14.8679 16.3158 14.6102C16.4685 14.3142 19.2946 11.6122 19.6193 11.4595C19.8866 11.3258 20.2971 11.4595 20.469 11.7268C20.6218 11.9559 21.2232 15.4026 21.2232 16.0423C21.2232 16.3001 21.1564 16.4433 20.9464 16.6056C20.679 16.8252 20.364 16.8348 19.7625 16.6533C19.5906 16.6056 19.5238 16.682 19.3233 17.1594C18.7982 18.4292 17.6047 19.8709 16.3826 20.7015C13.9575 22.3533 10.5395 22.4392 7.96168 20.902C6.60592 20.1 5.24062 18.5438 4.67731 17.1403C4.48636 16.6629 4.41953 16.5961 4.23812 16.6533C3.57934 16.8538 3.29291 16.8348 3.03513 16.577C2.89191 16.4338 2.77734 16.2142 2.77734 16.0805C2.77734 15.9564 2.92056 14.9539 3.09241 13.8559C3.35975 12.1469 3.44568 11.8223 3.63663 11.6218C4.05672 11.2112 4.29541 11.3067 5.46021 12.3856C7.75164 14.4956 7.78983 14.5338 7.78983 14.8584C7.78983 15.288 7.54159 15.5745 7.07376 15.7177C6.85416 15.7845 6.64412 15.8991 6.61547 15.9755C6.52954 16.2046 7.3029 17.4267 7.94259 18.0664C8.61092 18.7347 9.90939 19.4603 10.6255 19.5749L10.9978 19.6417V13.4645V7.28714L10.7209 7.14392C10.3581 6.95297 9.76618 6.32283 9.52749 5.87409C9.39382 5.62586 9.34608 5.31079 9.34608 4.72838C9.34608 3.82136 9.47975 3.4681 10.0813 2.83796ZM12.5351 5.73078C13.232 5.39662 13.3848 4.48005 12.8215 3.95493C12.6783 3.81172 12.4205 3.6685 12.2487 3.63031C11.5326 3.4871 10.7593 4.32729 10.9884 4.99562C11.2462 5.73078 11.8859 6.03631 12.5351 5.73078Z" fill="#B3B4B6"/>
</svg>
