<svg width="24" height="24" viewBox="0 0 24 24" fill="none" xmlns="http://www.w3.org/2000/svg">
<path d="M11.4546 1.07608C10.02 1.15551 8.61555 1.50503 7.39223 2.08651C7.28896 2.13417 7.17298 2.18978 7.13326 2.20884C7.09355 2.22632 6.94738 2.30417 6.80757 2.37884C5.09015 3.30507 3.63964 4.69204 2.63397 6.36656C1.22476 8.71154 0.74814 11.4505 1.28037 14.1434C1.51868 15.3556 2.00959 16.6139 2.6578 17.6784C3.29488 18.7222 4.0813 19.6293 5.05043 20.4348C5.32052 20.6588 5.70976 20.948 5.9719 21.118C6.14666 21.2308 6.59309 21.5072 6.60104 21.5072C6.60422 21.5072 6.65188 21.5326 6.70748 21.5644C6.90607 21.6788 7.44148 21.9393 7.70997 22.0537C10.2106 23.1229 13.0243 23.2214 15.5869 22.3286C16.5163 22.0045 17.3456 21.5866 18.1591 21.0338C19.689 19.9947 20.941 18.5617 21.7782 16.8919C22.4248 15.6019 22.7871 14.288 22.9126 12.7771C22.938 12.4689 22.938 11.5268 22.9126 11.2201C22.8284 10.2192 22.6695 9.42805 22.3692 8.52565C22.1166 7.76465 21.756 6.98935 21.3334 6.29825C20.7837 5.39743 20.0878 4.56653 19.2903 3.85318C17.4998 2.25333 15.2755 1.2985 12.8813 1.09991C12.5207 1.06972 11.7819 1.0586 11.4546 1.07608ZM12.5032 2.95078C13.7821 3.03022 14.926 3.33367 16.0461 3.88972C17.1693 4.44737 18.1559 5.22744 18.9662 6.19816C20.5374 8.0824 21.2809 10.5529 21.0109 12.9916C20.8901 14.064 20.6026 15.0426 20.1212 16.0181C19.7859 16.6949 19.4189 17.2621 18.9852 17.7737C18.9376 17.8309 18.882 17.8976 18.8629 17.9214L18.8295 17.9659L18.4339 17.564C18.2179 17.3431 17.8683 16.9873 17.657 16.7728C17.4473 16.5583 16.5783 15.6718 15.7283 14.8027C14.8783 13.9337 14.0204 13.0567 13.8234 12.8565C13.6248 12.6548 13.2991 12.3227 13.099 12.1178C12.8988 11.9128 12.5588 11.5649 12.3443 11.3472C12.1298 11.128 11.6214 10.6101 11.2163 10.1954C10.8096 9.78075 10.1376 9.09442 9.7229 8.67023C9.30665 8.24603 8.46621 7.38812 7.85614 6.76375C7.24448 6.13937 6.61693 5.49752 6.46123 5.34024L6.17843 5.05109L6.35002 4.91446C6.84094 4.52204 7.40494 4.16616 7.99912 3.87225C8.59013 3.58151 9.10806 3.38768 9.71019 3.2304C10.6126 2.99527 11.6103 2.89518 12.5032 2.95078ZM5.22202 6.06947C5.24744 6.10283 8.40107 9.32637 9.41151 10.3543C9.62281 10.5688 10.1137 11.0692 10.5014 11.4664C10.8906 11.8636 11.3768 12.3609 11.5817 12.5706C12.1489 13.1489 12.3141 13.3173 15.1707 16.2326L17.8239 18.9414L17.7651 18.9938C17.6777 19.0717 17.298 19.3576 17.1264 19.4768C16.0222 20.2362 14.7036 20.7557 13.3611 20.9575C12.8622 21.0338 12.581 21.0528 12.0107 21.0528C11.3085 21.0544 10.8684 21.0115 10.2075 20.8797C9.41469 20.7208 8.69499 20.4729 7.95941 20.1075C6.55655 19.4085 5.3936 18.3917 4.49279 17.0746C4.07018 16.4566 3.6587 15.6225 3.40927 14.8822C2.73088 12.8613 2.79443 10.6101 3.58721 8.63051C3.79692 8.10623 4.10672 7.51204 4.42447 7.02589C4.52456 6.87019 4.82483 6.4603 4.94081 6.31731C5.1251 6.09012 5.17118 6.03452 5.1823 6.03452C5.18865 6.03293 5.20613 6.04881 5.22202 6.06947Z" fill="#B3B4B6"/>
<path d="M11.9234 4.88386C11.7804 4.92676 11.6819 4.97442 11.5755 5.05068C11.2085 5.31282 11.029 5.75608 11.1116 6.19139C11.1529 6.40746 11.2689 6.63306 11.4071 6.7681L11.4706 6.83006V6.97782V7.12557H10.5968H9.72302V7.49892V7.87227L10.5523 7.87545L11.3832 7.88022L11.3785 7.99937C11.3769 8.06451 11.361 8.54272 11.3419 9.06065L11.3102 10.0028L11.9266 10.6303C12.265 10.9767 12.6415 11.3595 12.7607 11.4835L12.9783 11.7091V11.5883C12.9799 11.4644 12.8782 8.45852 12.8608 8.08199L12.8496 7.87227H13.6853H14.521V7.49892V7.12557H13.6472H12.7734V6.98258V6.8396L12.8703 6.72521C12.9799 6.59493 13.0784 6.40428 13.1166 6.25176C13.1753 6.0214 13.1372 5.69094 13.0292 5.47964C12.8036 5.03479 12.3047 4.7663 11.9234 4.88386Z" fill="#B3B4B6"/>
<path d="M11.2342 12.3638C11.2326 12.5211 11.1023 16.2165 11.0959 16.2911L11.0864 16.3912H10.0458H9.00517L8.73985 16.2451C8.59527 16.1656 8.25528 15.9766 7.98361 15.8272C7.71353 15.6779 7.33858 15.4698 7.1527 15.3681C6.96841 15.2648 6.81271 15.1759 6.80795 15.1695C6.80477 15.1631 6.83972 15.1044 6.88579 15.0392C6.93187 14.9741 7.05579 14.7977 7.16223 14.6468L7.35447 14.3735H5.62911C4.25167 14.3735 3.90851 14.3783 3.92122 14.3926C3.92916 14.4037 4.27391 15.0138 4.68699 15.7478C5.10006 16.4818 5.44799 17.0982 5.4607 17.1189L5.48294 17.1554L5.54172 17.0712C5.57509 17.0251 5.7006 16.8408 5.82134 16.6613C5.94209 16.4818 6.04694 16.3309 6.05171 16.3229C6.05806 16.3166 6.45207 16.5263 6.92869 16.79C7.40372 17.0521 7.99632 17.381 8.24575 17.5176L8.69854 17.7671L10.4048 18.2898L12.1127 18.8109L12.2081 18.7839C12.2621 18.7696 13.0342 18.5344 13.9255 18.2612L15.546 17.7655L15.8749 17.5844L16.2021 17.4017L15.708 16.8964L15.2124 16.3912H14.1765H13.1391V16.3388C13.1391 16.3118 13.1248 15.8193 13.1057 15.2473L13.0691 14.2067L12.4638 13.5871C12.1302 13.2455 11.7171 12.8245 11.5456 12.6498C11.3279 12.4273 11.2342 12.3415 11.2342 12.3638Z" fill="#B3B4B6"/>
<path d="M16.9171 14.3262C16.9346 14.3516 17.0601 14.5296 17.1951 14.7234L17.443 15.0761L17.3921 15.1063C17.3635 15.1238 17.1872 15.2207 16.9997 15.324C16.8123 15.4272 16.6518 15.5178 16.6438 15.5241C16.6359 15.5305 16.8488 15.7624 17.1173 16.0373L17.6066 16.5362L17.6559 16.5076C17.891 16.3757 18.1786 16.22 18.1817 16.2248C18.1849 16.2279 18.3136 16.417 18.4693 16.6474C18.625 16.8761 18.7585 17.0588 18.7648 17.0525C18.7696 17.0446 19.0508 16.5505 19.3876 15.9515C19.7244 15.3525 20.0707 14.7345 20.1597 14.5788C20.2487 14.4231 20.3202 14.2897 20.3202 14.2897C20.3202 14.2865 19.5481 14.2833 18.6028 14.2833H16.8869L16.9171 14.3262Z" fill="#B3B4B6"/>
</svg>
