<svg width="24" height="24" viewBox="0 0 24 24" fill="none" xmlns="http://www.w3.org/2000/svg">
<path d="M17.0005 18.0029C17.5541 18.0029 18.0029 17.5541 18.0029 17.0005V7.00049C18.0029 6.44686 17.5541 5.99805 17.0005 5.99805C16.4469 5.99805 15.998 6.44686 15.998 7.00049L15.9991 14.5821L7.81541 6.41658C7.63349 6.16314 7.33627 5.99805 7.00049 5.99805C6.44686 5.99805 5.99805 6.44686 5.99805 7.00049C5.99805 7.29035 6.12107 7.55147 6.31775 7.73449L14.5736 15.998H7.00049C6.44686 15.998 5.99805 16.4469 5.99805 17.0005C5.99805 17.5541 6.44686 18.0029 7.00049 18.0029H17.0005Z" fill="#B3B4B6"/>
</svg>
