<svg width="24" height="24" viewBox="0 0 24 24" fill="none" xmlns="http://www.w3.org/2000/svg">
<path d="M7.00049 5.99805C6.44686 5.99805 5.99805 6.44686 5.99805 7.00049V17.0005C5.99805 17.5541 6.44686 18.0029 7.00049 18.0029C7.55412 18.0029 8.00293 17.5541 8.00293 17.0005L8.00185 9.41891L16.1856 17.5844C16.3675 17.8378 16.6647 18.0029 17.0005 18.0029C17.5541 18.0029 18.0029 17.5541 18.0029 17.0005C18.0029 16.7106 17.8799 16.4495 17.6832 16.2665L9.42739 8.00293H17.0005C17.5541 8.00293 18.0029 7.55412 18.0029 7.00049C18.0029 6.44686 17.5541 5.99805 17.0005 5.99805H7.00049Z" fill="#B3B4B6"/>
</svg>
