<svg width="24" height="24" viewBox="0 0 24 24" fill="none" xmlns="http://www.w3.org/2000/svg">
<path d="M7.00049 18.0029C6.44686 18.0029 5.99805 17.5541 5.99805 17.0005V7.00049C5.99805 6.44686 6.44686 5.99805 7.00049 5.99805C7.55412 5.99805 8.00293 6.44686 8.00293 7.00049L8.00185 14.5821L16.1856 6.41658C16.3675 6.16314 16.6647 5.99805 17.0005 5.99805C17.5541 5.99805 18.0029 6.44686 18.0029 7.00049C18.0029 7.29035 17.8799 7.55147 17.6832 7.73449L9.42739 15.998H17.0005C17.5541 15.998 18.0029 16.4469 18.0029 17.0005C18.0029 17.5541 17.5541 18.0029 17.0005 18.0029H7.00049Z" fill="#B3B4B6"/>
</svg>
