<svg width="24" height="24" viewBox="0 0 24 24" fill="none" xmlns="http://www.w3.org/2000/svg">
<g clip-path="url(#clip0_2504_22249)">
<path d="M19.7796 11.2914C20.1711 11.6829 20.1711 12.3176 19.7796 12.7091L12.7086 19.7802C12.3171 20.1716 11.6824 20.1716 11.2909 19.7802C10.8994 19.3887 10.8994 18.754 11.2909 18.3625L16.6526 13.0023L5.09203 12.9894C4.78413 13.0399 4.45723 12.9465 4.21983 12.7091C3.82833 12.3176 3.82833 11.6829 4.21983 11.2914C4.42483 11.0865 4.69643 10.9888 4.96493 10.9985L16.6459 10.993L11.2909 5.63803C10.8994 5.24655 10.8994 4.61184 11.2909 4.22036C11.6824 3.82889 12.3171 3.82889 12.7086 4.22036L19.7796 11.2914Z" fill="#B3B4B6"/>
</g>
<defs>
<clipPath id="clip0_2504_22249">
<rect width="18" height="18" fill="white" transform="translate(21 3) rotate(90)"/>
</clipPath>
</defs>
</svg>
