<svg width="24" height="24" viewBox="0 0 24 24" fill="none" xmlns="http://www.w3.org/2000/svg">
<path d="M17.0005 5.99805C17.5541 5.99805 18.0029 6.44686 18.0029 7.00049V17.0005C18.0029 17.5541 17.5541 18.0029 17.0005 18.0029C16.4469 18.0029 15.998 17.5541 15.998 17.0005L15.9991 9.41891L7.81541 17.5844C7.63349 17.8378 7.33627 18.0029 7.00049 18.0029C6.44686 18.0029 5.99805 17.5541 5.99805 17.0005C5.99805 16.7106 6.12107 16.4495 6.31775 16.2665L14.5736 8.00293H7.00049C6.44686 8.00293 5.99805 7.55412 5.99805 7.00049C5.99805 6.44686 6.44686 5.99805 7.00049 5.99805H17.0005Z" fill="#B3B4B6"/>
</svg>
