<svg width="24" height="24" viewBox="0 0 24 24" fill="none" xmlns="http://www.w3.org/2000/svg">
<g clip-path="url(#clip0_2504_22246)">
<path d="M11.2914 19.7796C11.6829 20.1711 12.3176 20.1711 12.7091 19.7796L19.7802 12.7086C20.1716 12.3171 20.1716 11.6824 19.7802 11.2909C19.3887 10.8994 18.754 10.8994 18.3625 11.2909L13.0023 16.6526L12.9894 5.09203C13.0399 4.78413 12.9465 4.45723 12.7091 4.21983C12.3176 3.82833 11.6829 3.82833 11.2914 4.21983C11.0865 4.42483 10.9888 4.69643 10.9985 4.96493L10.993 16.6459L5.63803 11.2909C5.24655 10.8994 4.61184 10.8994 4.22036 11.2909C3.82889 11.6824 3.82889 12.3171 4.22036 12.7086L11.2914 19.7796Z" fill="#B3B4B6"/>
</g>
<defs>
<clipPath id="clip0_2504_22246">
<rect width="18" height="18" fill="white" transform="matrix(1 0 0 -1 3 21)"/>
</clipPath>
</defs>
</svg>
