<svg width="24" height="24" viewBox="0 0 24 24" fill="none" xmlns="http://www.w3.org/2000/svg">
<g clip-path="url(#clip0_2504_22237)">
<path d="M11.2914 4.22037C11.6829 3.82889 12.3176 3.82889 12.7091 4.22037L19.7802 11.2914C20.1716 11.6829 20.1716 12.3176 19.7802 12.7091C19.3887 13.1006 18.754 13.1006 18.3625 12.7091L13.0023 7.34736L12.9894 18.908C13.0399 19.2159 12.9465 19.5428 12.7091 19.7802C12.3176 20.1717 11.6829 20.1717 11.2914 19.7802C11.0865 19.5752 10.9888 19.3036 10.9985 19.0351L10.993 7.35411L5.63803 12.7091C5.24655 13.1006 4.61184 13.1006 4.22036 12.7091C3.82889 12.3176 3.82889 11.6829 4.22036 11.2914L11.2914 4.22037Z" fill="#B3B4B6"/>
</g>
<defs>
<clipPath id="clip0_2504_22237">
<rect width="18" height="18" fill="white" transform="translate(3 3)"/>
</clipPath>
</defs>
</svg>
