<svg width="24" height="24" viewBox="0 0 24 24" fill="none" xmlns="http://www.w3.org/2000/svg">
<g clip-path="url(#clip0_2504_22243)">
<path d="M4.22037 12.7086C3.82889 12.3171 3.82889 11.6824 4.22037 11.2909L11.2914 4.21979C11.6829 3.82839 12.3176 3.82839 12.7091 4.21979C13.1006 4.61129 13.1006 5.24598 12.7091 5.63748L7.34736 10.9977L18.908 11.0106C19.2159 10.9601 19.5428 11.0535 19.7802 11.2909C20.1717 11.6824 20.1717 12.3171 19.7802 12.7086C19.5752 12.9135 19.3036 13.0112 19.0351 13.0015L7.35411 13.007L12.7091 18.362C13.1006 18.7534 13.1006 19.3882 12.7091 19.7796C12.3176 20.1711 11.6829 20.1711 11.2914 19.7796L4.22037 12.7086Z" fill="#B3B4B6"/>
</g>
<defs>
<clipPath id="clip0_2504_22243">
<rect width="18" height="18" fill="white" transform="translate(3 21) rotate(-90)"/>
</clipPath>
</defs>
</svg>
