<svg width="24" height="24" viewBox="0 0 24 24" fill="none" xmlns="http://www.w3.org/2000/svg">
<path fill-rule="evenodd" clip-rule="evenodd" d="M2 18.999C1.44825 18.999 1.00098 18.5517 1.00098 18L1.00114 2.98189C1.0108 2.4385 1.4543 2.00098 2 2.00098L8.11035 2.00586C9.71273 2.00586 11.1334 2.79171 12.0043 3.99902C12.8753 2.79171 14.2941 2.00586 15.8965 2.00586L22.0068 2.00098C22.5525 2.00098 22.996 2.4385 23.0057 2.98189L23.0059 18C23.0059 18.5517 22.5586 18.999 22.0068 18.999H15.0337C13.897 18.999 13.0049 19.8629 13.0049 20.9995C13.0049 21.5526 12.5565 22.001 12.0034 22.001C11.4503 22.001 11.002 21.5526 11.002 20.9995C11.002 19.8629 10.1098 18.999 8.97314 18.999H2ZM11.0044 17.5199C10.4516 17.1885 9.8047 16.998 9.11328 16.998H2.96555V3.99902H8.05078C9.67797 3.99902 10.9971 5.31812 10.9971 6.94531L11.0044 17.5199ZM13.0024 17.5199C13.5552 17.1885 14.2021 16.998 14.8936 16.998H21.0413V3.99902H15.9561C14.3289 3.99902 13.0098 5.31812 13.0098 6.94531L13.0024 17.5199Z" fill="#B3B4B6"/>
</svg>
