<svg width="25" height="24" viewBox="0 0 25 24" fill="none" xmlns="http://www.w3.org/2000/svg">
<g clip-path="url(#clip0_2501_22123)">
<path d="M19.9591 12.9326V11.0678H24.4346V12.9326H19.9591ZM21.4509 21.9457L17.8407 19.1484L18.9148 17.6566L22.525 20.4538L21.4509 21.9457ZM19.0043 6.31259L17.9302 4.82077L21.4509 2.05469L22.525 3.5465L19.0043 6.31259ZM4.44416 20.7024V15.7297H2.35562C1.85834 15.7297 1.43566 15.5484 1.08757 15.1858C0.739475 14.8232 0.56543 14.383 0.56543 13.8649V10.1354C0.56543 9.61739 0.739475 9.17709 1.08757 8.81451C1.43566 8.45191 1.85834 8.27061 2.35562 8.27061H7.72617L13.6935 4.54106V19.4592L7.72617 15.7297H6.23435V20.7024H4.44416ZM14.8869 16.1648V7.83549C15.424 8.33277 15.8566 8.93882 16.1848 9.65365C16.513 10.3685 16.6771 11.1507 16.6771 12.0002C16.6771 12.8497 16.513 13.6318 16.1848 14.3467C15.8566 15.0616 15.424 15.6676 14.8869 16.1648ZM2.35562 10.1354V13.8649H8.20355L11.9033 16.1648V7.83549L8.20355 10.1354H2.35562Z" fill="#B3B4B6"/>
</g>
<defs>
<clipPath id="clip0_2501_22123">
<rect width="24" height="24" fill="white" transform="translate(0.5)"/>
</clipPath>
</defs>
</svg>
