<svg width="25" height="24" viewBox="0 0 25 24" fill="none" xmlns="http://www.w3.org/2000/svg">
<path fill-rule="evenodd" clip-rule="evenodd" d="M20.7034 21.1286C21.2717 20.5706 21.591 19.8139 21.591 19.0248V8.36368V6.79343C21.591 6.00436 21.2717 5.24761 20.7034 4.68965C20.1351 4.13169 19.3644 3.81823 18.5607 3.81823L17.0455 3.81822V3.36368C17.0455 2.61056 16.6385 2.00005 16.1364 2.00005C15.6344 2.00005 15.2273 2.61056 15.2273 3.36368V3.81821L9.7728 3.81817V3.36363C9.7728 2.61052 9.36578 2 8.86371 2C8.36163 2 7.95462 2.61052 7.95462 3.36363V3.81823H6.43947C5.63579 3.81823 4.86502 4.13169 4.29673 4.68965C3.72844 5.24761 3.40918 6.00436 3.40918 6.79343V8.36368V19.0248C3.40918 19.8139 3.72844 20.5706 4.29673 21.1286C4.86502 21.6865 5.63579 22 6.43947 22H18.5607C19.3644 22 20.1351 21.6865 20.7034 21.1286ZM5.42938 19.0248C5.42938 19.2878 5.5358 19.5401 5.72523 19.7261C5.91466 19.912 6.17158 20.0165 6.43947 20.0165H18.5607C18.8286 20.0165 19.0855 19.912 19.2749 19.7261C19.4643 19.5401 19.5708 19.2878 19.5708 19.0248V11.0909H5.42938V19.0248ZM5.42938 6.79343C5.42938 6.53041 5.5358 6.27816 5.72523 6.09217C5.91466 5.90618 6.17158 5.8017 6.43947 5.8017H7.95462V6.09089C7.95462 6.84401 8.36163 7.45453 8.86371 7.45453C9.36578 7.45453 9.7728 6.84401 9.7728 6.09089V5.8017H15.2273V6.09094C15.2273 6.84406 15.6344 7.45457 16.1364 7.45457C16.6385 7.45457 17.0455 6.84406 17.0455 6.09094V5.8017H18.5607C18.8286 5.8017 19.0855 5.90618 19.2749 6.09217C19.4643 6.27816 19.5708 6.53041 19.5708 6.79343V8.36368V9.27276H5.42938V8.36368V6.79343Z" fill="#B3B4B6"/>
<path d="M9.77326 13.7206C9.77326 14.2227 9.36624 14.6297 8.86417 14.6297C8.36209 14.6297 7.95508 14.2227 7.95508 13.7206C7.95508 13.2186 8.36209 12.8115 8.86417 12.8115C9.36624 12.8115 9.77326 13.2186 9.77326 13.7206Z" fill="#B3B4B6"/>
<path d="M13.409 13.7206C13.409 14.2227 13.002 14.6297 12.4999 14.6297C11.9978 14.6297 11.5908 14.2227 11.5908 13.7206C11.5908 13.2186 11.9978 12.8115 12.4999 12.8115C13.002 12.8115 13.409 13.2186 13.409 13.7206Z" fill="#B3B4B6"/>
<path d="M17.0457 13.7206C17.0457 14.2227 16.6387 14.6297 16.1366 14.6297C15.6346 14.6297 15.2275 14.2227 15.2275 13.7206C15.2275 13.2186 15.6346 12.8115 16.1366 12.8115C16.6387 12.8115 17.0457 13.2186 17.0457 13.7206Z" fill="#B3B4B6"/>
<path d="M9.77326 17.3573C9.77326 17.8594 9.36624 18.2664 8.86417 18.2664C8.36209 18.2664 7.95508 17.8594 7.95508 17.3573C7.95508 16.8552 8.36209 16.4482 8.86417 16.4482C9.36624 16.4482 9.77326 16.8552 9.77326 17.3573Z" fill="#B3B4B6"/>
<path d="M13.409 17.3573C13.409 17.8594 13.002 18.2664 12.4999 18.2664C11.9978 18.2664 11.5908 17.8594 11.5908 17.3573C11.5908 16.8552 11.9978 16.4482 12.4999 16.4482C13.002 16.4482 13.409 16.8552 13.409 17.3573Z" fill="#B3B4B6"/>
<path d="M17.0457 17.3573C17.0457 17.8594 16.6387 18.2664 16.1366 18.2664C15.6346 18.2664 15.2275 17.8594 15.2275 17.3573C15.2275 16.8552 15.6346 16.4482 16.1366 16.4482C16.6387 16.4482 17.0457 16.8552 17.0457 17.3573Z" fill="#B3B4B6"/>
</svg>
