<svg width="24" height="24" viewBox="0 0 24 24" fill="none" xmlns="http://www.w3.org/2000/svg">
<path d="M5.49182 14.52L6.57761 13.7349L6.23926 12.1115H8.39048C8.39048 12.1115 8.41711 11.672 8.4461 11.3915C8.48301 11.0343 8.50589 10.8336 8.5707 10.4804C8.62808 10.1676 8.66746 9.99324 8.7498 9.68611C8.86337 9.26254 9.10023 8.61925 9.10023 8.61925L7.13005 7.74708C7.13005 7.74708 7.36146 7.34518 7.5272 7.09888C7.71737 6.81627 8.04895 6.39988 8.04895 6.39988L9.68635 7.86585C9.68635 7.86585 10.042 7.46527 10.2997 7.24022C10.5133 7.05367 10.638 6.95242 10.8763 6.7986C11.1095 6.64806 11.2509 6.57975 11.5019 6.46125C11.816 6.31296 12.3299 6.13617 12.3299 6.13617L11.4099 4.19795C11.4099 4.19795 12.0202 4.04303 12.4158 3.96488C12.8074 3.88751 13.4245 3.79927 13.4245 3.79927V5.73931C13.4245 5.73931 13.8962 5.7814 14.1975 5.8166C14.5322 5.85571 14.7204 5.87554 15.0526 5.93255C15.3658 5.98632 15.5401 6.02487 15.8497 6.09681C16.1974 6.1776 16.7338 6.3287 16.7338 6.3287L17.4971 4.68613L18.3426 5.18373L19.1397 5.78279L17.671 7.05337C17.671 7.05337 18.0611 7.48728 18.2894 7.78286C18.5204 8.08196 18.6479 8.25273 18.845 8.57517C19.0225 8.86556 19.109 9.04254 19.254 9.33924L19.2701 9.3723C19.3795 9.59604 19.5358 9.95203 19.5358 9.95203L21.2267 9.31853C21.2267 9.31853 21.335 9.76827 21.3958 10.0583C21.4648 10.3871 21.5552 10.9038 21.5552 10.9038H19.6904C19.6904 10.9038 19.6686 11.4564 19.6228 11.8072C19.5806 12.1305 19.5449 12.3105 19.473 12.6285C19.3945 12.9758 19.3396 13.1684 19.2315 13.5077C19.1489 13.767 18.9996 14.1648 18.9996 14.1648L20.7485 15.0488C20.7485 15.0488 20.4915 15.5004 20.3088 15.7783C20.1202 16.0654 19.7967 16.4933 19.7967 16.4933L18.2886 15.0837C18.2886 15.0837 17.8601 15.5037 17.5555 15.7364C17.1818 16.022 16.9484 16.1516 16.5353 16.3766C16.1837 16.5682 15.6104 16.8192 15.6104 16.8192L16.4047 18.8128C16.4047 18.8128 15.926 18.9688 15.6104 19.0308C15.271 19.0975 14.7304 19.1321 14.7304 19.1321V17.0139C14.7304 17.0139 14.1553 17.0392 13.7882 17.0139C13.4299 16.9892 13.2274 16.9683 12.8771 16.8893C12.5093 16.8065 12.3123 16.7228 11.9582 16.5934C11.6813 16.4923 11.2573 16.3131 11.2573 16.3131L10.3696 18.2988C10.3696 18.2988 9.94271 18.073 9.68428 17.9037C9.45438 17.7531 9.11581 17.4889 9.11581 17.4889L8.03338 18.182C8.03338 18.182 8.41406 18.4766 8.66414 18.657C9.09441 18.9674 9.3292 19.1553 9.7933 19.4124C10.2457 19.663 11.0003 19.9575 11.0003 19.9575L11.9138 17.9037L13.5712 18.2224V20.4057C13.5712 20.4057 14.5865 20.4 15.2286 20.3101C15.7447 20.2379 16.0345 20.1833 16.5353 20.0392C17.1179 19.8716 17.9836 19.4805 17.9836 19.4805L17.163 17.4292L18.2886 16.7138L19.8981 18.3128C19.8981 18.3128 20.4982 17.6254 20.8449 17.1557C21.1047 16.8036 21.2421 16.5996 21.4761 16.2299C21.8901 15.5758 22.4334 14.4942 22.4334 14.4942L20.4872 13.5369L20.8133 12.1062H23.0225C23.0225 12.1062 22.8957 11.2714 22.8015 10.7387C22.7033 10.1825 22.6457 9.87094 22.528 9.31853C22.3873 8.65776 22.1283 7.63539 22.1283 7.63539L20.1296 8.37177L19.3827 7.20409L20.9396 5.82602C20.9396 5.82602 20.2936 5.12196 19.8245 4.73198C19.2996 4.29565 18.9753 4.08283 18.3833 3.74313C17.8304 3.42586 16.9104 3.03924 16.9104 3.03924L16.0487 4.87039L14.6547 4.63011V2.50488C14.6547 2.50488 13.6039 2.52998 12.9383 2.6213C12.4163 2.69291 12.1242 2.74686 11.6135 2.87629C10.8608 3.06704 9.73499 3.52775 9.73499 3.52775L10.6464 5.49976L9.65213 6.17919L7.9867 4.63867C7.9867 4.63867 7.24748 5.39681 6.84327 5.93887C6.52028 6.372 6.35814 6.63023 6.08927 7.09888C5.82415 7.56099 5.47612 8.31754 5.47612 8.31754L7.57241 9.28683L7.25034 10.8942H4.92175C4.92175 10.8942 4.93522 11.1475 4.94591 11.3097C4.95909 11.5098 4.98456 11.8218 4.98456 11.8218C4.98456 11.8218 5.01296 12.2087 5.04736 12.4547C5.07627 12.6614 5.13915 12.9813 5.13915 12.9813L5.36621 13.9861L5.49182 14.52Z" fill="#B3B4B6"/>
<path fill-rule="evenodd" clip-rule="evenodd" d="M5.60462 15.0102L9.95357 11.9116C9.95357 11.9116 9.92424 11.5547 9.95357 11.3292C9.97833 11.1389 10.0174 11.0222 10.0713 10.8616C10.0819 10.83 10.093 10.7967 10.1048 10.7608C10.1706 10.5594 10.2108 10.4469 10.2997 10.2546C10.4065 10.0235 10.4739 9.89549 10.6187 9.68611C10.7807 9.45198 10.8864 9.32821 11.0938 9.13321C11.2578 8.979 11.3617 8.9051 11.5454 8.775C11.5676 8.75932 11.5887 8.7443 11.609 8.72984C11.7787 8.60901 11.8926 8.52792 12.0983 8.43236C12.3802 8.30145 12.5553 8.26001 12.8615 8.20653C13.1049 8.16401 13.2451 8.14898 13.4921 8.15486C13.6836 8.15942 13.7929 8.16475 13.9799 8.20653C14.168 8.24858 14.2706 8.2889 14.446 8.36881C14.5826 8.43101 14.6565 8.47271 14.7834 8.55281C14.9268 8.64334 15.0057 8.69835 15.133 8.81042C15.2635 8.92533 15.3364 8.99329 15.4397 9.13321C15.4498 9.14697 15.4594 9.1598 15.4686 9.17202C15.5205 9.24109 15.5578 9.29083 15.593 9.38085C15.6371 9.49368 15.6543 9.56512 15.6482 9.68611C15.6435 9.781 15.6363 9.83845 15.593 9.92304C15.572 9.96422 15.5526 9.98775 15.5273 10.0186C15.5208 10.0264 15.514 10.0347 15.5067 10.0438C15.4534 10.1105 15.3569 10.2032 15.3569 10.2032L13.4438 11.5221L13.6274 11.7637L15.5067 10.44C15.5067 10.44 15.6236 10.3696 15.7048 10.3385C15.7779 10.3105 15.8204 10.2957 15.898 10.2854C15.9728 10.2755 16.0166 10.2747 16.0913 10.2854C16.1858 10.2989 16.239 10.3177 16.3232 10.3627C16.4088 10.4084 16.4457 10.4564 16.5004 10.5366C16.5029 10.5402 16.5053 10.5437 16.5076 10.5471C16.5445 10.6011 16.5627 10.6277 16.5867 10.6934C16.5965 10.7205 16.6057 10.745 16.6143 10.7681C16.6456 10.8521 16.6698 10.9169 16.6971 11.0185C16.7437 11.1924 16.76 11.2932 16.7768 11.4724C16.7962 11.6799 16.7924 11.7982 16.7768 12.006C16.7612 12.2138 16.7427 12.3303 16.6971 12.5335C16.6323 12.8217 16.5801 12.9822 16.4578 13.2512C16.2814 13.6391 16.1551 13.8564 15.861 14.1648C15.6429 14.3934 15.4922 14.4953 15.2286 14.6695C14.939 14.8607 14.7676 14.9624 14.4426 15.0837C14.242 15.1586 14.1255 15.1932 13.9154 15.2343C13.6117 15.2938 13.4339 15.3076 13.125 15.2904C12.8596 15.2756 12.7078 15.2564 12.4534 15.1793C12.264 15.1219 11.9848 14.986 11.9848 14.986L7.7604 17.9556C7.7604 17.9556 7.77484 18.244 7.7604 18.4279C7.74093 18.6757 7.64386 19.0535 7.64386 19.0535C7.64386 19.0535 7.55736 19.3656 7.46598 19.5504C7.39285 19.6982 7.33333 19.7816 7.2465 19.9033C7.23423 19.9205 7.22141 19.9385 7.20793 19.9575C7.04312 20.1901 6.94535 20.3198 6.74069 20.5182C6.58243 20.6716 6.48607 20.7513 6.3046 20.8764C6.12291 21.0016 6.01352 21.0625 5.814 21.1568C5.57134 21.2714 5.42784 21.3245 5.16766 21.3904C4.91416 21.4546 4.76696 21.4794 4.50574 21.4916C4.2289 21.5045 4.07064 21.4929 3.79756 21.4456C3.52292 21.3981 3.37101 21.3507 3.11137 21.2494C3.07172 21.2339 3.03509 21.2203 3.00049 21.2075C2.86255 21.1565 2.7568 21.1173 2.62051 21.0163C2.60637 21.0058 2.5927 20.9958 2.57946 20.9861C2.46388 20.9015 2.38143 20.8412 2.31333 20.7035C2.2423 20.5599 2.22602 20.4576 2.24666 20.2987C2.26523 20.1557 2.30452 20.0754 2.38749 19.9575C2.43829 19.8854 2.48632 19.8462 2.54269 19.8002C2.56681 19.7806 2.59246 19.7597 2.62051 19.7344C2.80284 19.57 3.11137 19.3418 3.11137 19.3418L4.44225 18.3972L4.17851 18.0476L2.31333 19.4829C2.31333 19.4829 2.17478 19.5799 2.07468 19.6178C1.98487 19.6519 1.93063 19.6641 1.83499 19.673C1.82899 19.6736 1.82321 19.6741 1.81762 19.6747C1.76125 19.6801 1.72376 19.6837 1.66391 19.673C1.60096 19.6619 1.52076 19.6428 1.46192 19.6178C1.44818 19.612 1.43631 19.607 1.42582 19.6027C1.35929 19.5749 1.34862 19.5704 1.27351 19.5128C1.2104 19.4644 1.1603 19.4084 1.1168 19.3418C1.07302 19.2748 1.06872 19.2586 1.05266 19.1984C1.05004 19.1885 1.04711 19.1775 1.04365 19.1649C1.0137 19.0562 0.993839 18.9679 0.9818 18.8558C0.974045 18.7835 0.9765 18.72 0.97907 18.6535C0.980397 18.6192 0.981754 18.5841 0.981754 18.5466C0.981754 18.503 0.981227 18.4668 0.980732 18.4327C0.979837 18.3711 0.979042 18.3163 0.981621 18.2378C0.989678 17.9924 1.00393 17.8544 1.04365 17.6121C1.08867 17.3375 1.11783 17.1819 1.20934 16.919C1.30237 16.6519 1.36187 16.5 1.51602 16.2628C1.62998 16.0874 1.71768 15.9937 1.84925 15.8531C1.86433 15.837 1.87998 15.8203 1.89631 15.8027C1.91295 15.7849 1.92886 15.7677 1.9442 15.7512C2.08425 15.6002 2.17717 15.5 2.35633 15.3672C2.59247 15.1923 2.63197 15.1716 2.89582 15.0422C3.04282 14.9701 3.24337 14.8844 3.39904 14.8336C3.58431 14.7732 3.69727 14.764 3.8898 14.7482L3.89586 14.7478C3.93873 14.7442 3.9782 14.7407 4.01591 14.7372C4.13568 14.7263 4.23765 14.7171 4.37428 14.7171C4.39414 14.7171 4.41298 14.717 4.43101 14.717C4.5957 14.7167 4.69247 14.7165 4.8711 14.7478C4.9705 14.7652 5.03181 14.7861 5.11549 14.8146C5.13304 14.8206 5.15158 14.8269 5.17165 14.8336C5.34487 14.8914 5.60462 15.0102 5.60462 15.0102ZM2.34406 17.3913L2.24666 18.017L3.66047 16.8943L3.80999 16.7977C3.80999 16.7977 3.90226 16.7241 3.96966 16.6914C4.03408 16.6602 4.09483 16.6473 4.17851 16.6383C4.18707 16.6374 4.19464 16.6365 4.20157 16.6357C4.24581 16.6305 4.26349 16.6285 4.34139 16.6383C4.43149 16.6496 4.59287 16.7397 4.59287 16.7397C4.59287 16.7397 4.7675 16.8705 4.86824 16.9668C4.97426 17.0682 5.03324 17.143 5.11172 17.2426C5.13058 17.2666 5.15057 17.292 5.1726 17.3195C5.19976 17.3534 5.22503 17.3843 5.24889 17.4135C5.35191 17.5397 5.42894 17.6341 5.52044 17.7977C5.60083 17.9415 5.64227 18.0257 5.69436 18.182C5.73399 18.3009 5.77166 18.4934 5.77166 18.4934C5.77166 18.4934 5.79839 18.6531 5.77166 18.7495C5.74864 18.8325 5.66538 18.9427 5.66538 18.9427L5.54943 19.0973L3.99865 20.2326C3.99865 20.2326 4.10756 20.2578 4.17851 20.2664C4.31105 20.2826 4.3874 20.2781 4.52041 20.2664C4.65791 20.2543 4.73426 20.2368 4.86824 20.2036L4.88332 20.1999C5.04618 20.1596 5.14428 20.1353 5.29821 20.0587C5.43787 19.9892 5.51644 19.926 5.62331 19.8401C5.64551 19.8222 5.66893 19.8034 5.69436 19.7833C5.71512 19.767 5.73475 19.7516 5.7535 19.737C5.87311 19.6435 5.95681 19.5782 6.06636 19.45C6.16326 19.3366 6.21113 19.2662 6.28376 19.136C6.36361 18.9927 6.39805 18.9057 6.44802 18.7495C6.4992 18.5894 6.51988 18.496 6.53981 18.3292C6.56442 18.1231 6.53981 17.7977 6.53981 17.7977L6.49042 17.408L11.7939 13.6033C11.7939 13.6033 12.0654 13.7221 12.2435 13.7878C12.2627 13.7949 12.2811 13.8017 12.2988 13.8083C12.457 13.8669 12.5614 13.9056 12.7393 13.9492C12.7462 13.9509 12.7531 13.9526 12.7599 13.9543C12.9709 14.0062 13.0985 14.0375 13.3215 14.0415C13.5806 14.046 13.731 14.0256 13.9786 13.9492C14.1722 13.8895 14.2778 13.8403 14.4513 13.7359C14.7121 13.5791 14.9131 13.417 15.0377 13.2227C15.0815 13.1544 15.1215 13.0963 15.1594 13.0414C15.2292 12.94 15.2916 12.8493 15.3569 12.7251C15.4537 12.5411 15.469 12.4661 15.5025 12.3014C15.5039 12.2946 15.5053 12.2877 15.5067 12.2806C15.537 12.132 15.545 11.8941 15.545 11.8941L14.0908 12.9425C14.0908 12.9425 13.9189 13.0502 13.7961 13.0874C13.6937 13.1185 13.6325 13.1352 13.5256 13.1309C13.4044 13.126 13.3362 13.0996 13.2261 13.0488C13.1284 13.0036 13.0757 12.9605 13.0003 12.8987C12.9891 12.8896 12.9775 12.88 12.9652 12.87C12.8408 12.7692 12.7779 12.703 12.6753 12.5802C12.562 12.4444 12.5099 12.3558 12.4224 12.2072L12.4144 12.1937C12.319 12.0315 12.2649 11.9392 12.197 11.7637C12.1885 11.7415 12.1803 11.7215 12.1726 11.7026C12.1443 11.6333 12.1223 11.5795 12.1101 11.4932C12.0971 11.4016 12.1001 11.3483 12.1101 11.2564C12.1106 11.2517 12.1111 11.247 12.1116 11.2425C12.1215 11.1506 12.1278 11.0923 12.168 11.0052C12.2285 10.8742 12.4144 10.7298 12.4144 10.7298L14.0812 9.58487C14.0812 9.58487 13.9296 9.50027 13.8251 9.46409C13.6537 9.40471 13.5475 9.39778 13.3662 9.39162C13.1806 9.38532 13.0728 9.38995 12.8927 9.4351C12.6532 9.49515 12.5294 9.57639 12.3249 9.71067L12.3178 9.71531C12.1241 9.84243 12.022 9.92783 11.8637 10.097C11.7172 10.2534 11.6452 10.3527 11.5352 10.5366C11.4068 10.7511 11.3415 10.8804 11.2743 11.1212C11.2217 11.3096 11.2131 11.4343 11.2013 11.6074C11.1991 11.6396 11.1967 11.6735 11.194 11.7098C11.1721 11.9999 11.194 12.4547 11.194 12.4547L5.72981 16.4468L5.34953 16.226C5.34953 16.226 5.10061 16.08 4.92631 16.0235C4.71874 15.9564 4.59245 15.9384 4.37428 15.9377C4.15138 15.9369 4.02496 15.9646 3.80999 16.0235C3.64479 16.0688 3.55232 16.1004 3.39904 16.1769C3.22723 16.2626 3.13645 16.3249 2.98809 16.4468C2.82849 16.5779 2.74145 16.6596 2.62051 16.827C2.61354 16.8367 2.60668 16.8462 2.59994 16.8555C2.46777 17.038 2.38025 17.1589 2.34406 17.3913Z" fill="#B3B4B6"/>
</svg>
