<svg width="24" height="24" viewBox="0 0 24 24" fill="none" xmlns="http://www.w3.org/2000/svg">
<path fill-rule="evenodd" clip-rule="evenodd" d="M2.06983 20.0768L7.59034 15.8444L2.61001 13.9467C2.61001 13.9467 1.20666 13.3295 1.61661 11.7297L1.85505 11.0822C1.85505 11.0822 0.862859 10.6135 1.11677 9.508L2.87292 4.76111C2.87292 4.76111 3.23828 3.73865 4.44922 3.9535L22.4336 10.5986C22.4336 10.5986 23.0703 10.8369 22.8945 11.54L22.4727 12.6729C22.4727 12.6729 22.4062 12.8955 22.1094 13.0713L20.7852 13.6885L20.7031 13.915C20.7031 13.915 21.7305 14.4268 21.4023 15.5518L20.5417 17.8792C20.5417 17.8792 20.1576 18.9118 19.0306 18.7418L18.7598 18.6474C18.7598 18.6474 17.8594 19.6422 16.556 19.1574L11.1159 17.1299L7.31543 20.0717H5.07276L9.54226 16.5626L9.08317 16.3832L4.32345 20.0768H2.06983ZM2.99143 12.0492L3.18105 11.6169L16.4004 16.4933C17.5907 16.8991 18.4429 16.0334 18.4429 16.0334L17.8613 17.6025C17.6381 18.1436 17.097 17.9068 17.097 17.9068L3.30999 12.7546C2.82457 12.5953 2.99143 12.0492 2.99143 12.0492ZM4.1614 5.33165L2.50263 9.82469L16.7881 15.1023C17.3039 15.3255 17.5717 14.7898 17.5717 14.7898L17.9784 13.6988C18.0825 13.4012 18.3652 13.2723 18.3652 13.2723L21.2417 11.9382L21.3161 11.7051L10.8594 7.81348C11.0312 8.03223 10.9081 8.39666 10.9081 8.39666L10.1211 10.5479C9.81641 11.415 9.125 11.1377 9.125 11.1377C8.49219 10.8916 8.76562 10.165 8.76562 10.165L9.55859 7.98145C9.75 7.5166 10.0234 7.5166 10.0234 7.5166L8.60938 6.98535C8.75781 7.19238 8.64062 7.54004 8.64062 7.54004L7.80859 9.80566C7.48047 10.4932 6.86719 10.2939 6.86719 10.2939C6.21875 10.0244 6.44922 9.39551 6.44922 9.39551L7.29688 7.11035C7.46875 6.67146 7.70312 6.64551 7.70312 6.64551L6.24834 6.12684C6.42801 6.27844 6.3101 6.67146 6.3101 6.67146L5.47352 8.92854C5.19279 9.69213 4.50219 9.41702 4.50219 9.41702C3.89581 9.12505 4.09794 8.55798 4.09794 8.55798L4.94575 6.24475C5.03558 5.96402 5.35562 5.78997 5.35562 5.78997L4.1614 5.33165Z" fill="#B3B4B6"/>
</svg>
