<svg width="24" height="24" viewBox="0 0 24 24" fill="none" xmlns="http://www.w3.org/2000/svg">
<path fill-rule="evenodd" clip-rule="evenodd" d="M7.84658 17.5053L0.920987 11.9979L18.8162 2.52637L23.0792 9.3896L7.84658 17.5053ZM8.25939 13.2556C9.10253 13.2556 9.78603 12.5721 9.78603 11.729C9.78603 10.8858 9.10253 10.2023 8.25939 10.2023C7.41625 10.2023 6.73276 10.8858 6.73276 11.729C6.73276 12.5721 7.41625 13.2556 8.25939 13.2556Z" fill="#B3B4B6"/>
<path fill-rule="evenodd" clip-rule="evenodd" d="M12.5524 15.7678V18.0015C12.5524 18.0015 12.6521 18.5746 12.7813 18.9216C12.8574 19.1257 12.8985 19.2432 13.0102 19.4303C13.1067 19.5918 13.1807 19.6695 13.2972 19.8173C13.4945 20.0677 13.6017 20.2139 13.8336 20.4326C13.9961 20.5858 14.0929 20.6669 14.2754 20.7956C14.4966 20.9514 14.6254 21.0384 14.875 21.1427C15.0711 21.2246 15.1883 21.2779 15.3918 21.339C15.6196 21.4074 15.9795 21.474 15.9795 21.474H21.218V18.6638H16.3308L16.1334 18.6439L15.9308 18.5907L15.7614 18.5177L15.6086 18.4114L15.4392 18.2486L15.3329 18.1058L15.2499 17.953L15.1868 17.7471L15.1668 17.591V17.4714V14.2097L12.5524 15.7243V15.7678Z" fill="#B3B4B6"/>
<path fill-rule="evenodd" clip-rule="evenodd" d="M3.25081 18.1787L0.864441 14.8993C0.864441 14.8993 0.847166 14.8748 0.838141 14.8579L0.837219 14.8562C0.826175 14.8355 0.819491 14.823 0.813959 14.7997C0.808267 14.7757 0.807771 14.7613 0.809414 14.7367C0.811221 14.7097 0.815115 14.6945 0.824508 14.6691C0.833251 14.6454 0.843037 14.6311 0.854887 14.6137C0.859271 14.6073 0.863938 14.6005 0.868939 14.5926C0.897075 14.5483 0.961363 14.489 0.961363 14.489L2.01403 13.6174L5.59033 16.4491L3.25081 18.1787Z" fill="#B3B4B6"/>
</svg>
