<svg width="24" height="24" viewBox="0 0 24 24" fill="none" xmlns="http://www.w3.org/2000/svg">
<path fill-rule="evenodd" clip-rule="evenodd" d="M11.9547 10.102H20.6995C21.3946 10.102 21.8855 9.42092 21.6657 8.76142C18.657 -0.264994 6.01407 -0.60339 2.52673 8.24908L2.35431 8.68676C2.08665 9.36632 2.58756 10.102 3.31791 10.102H11.9547Z" fill="#B3B4B6"/>
<path d="M4.1416 11.3369V15.4973C5.39514 24.4396 18.2732 24.4266 19.8518 15.536C19.8564 15.5104 19.8587 15.4843 19.8587 15.4584V11.3369H18.2257V14.8445C18.2257 14.8666 18.2238 14.8887 18.2202 14.9106C16.9679 22.4769 6.75199 22.488 5.75759 14.8777V11.3369H4.1416Z" fill="#B3B4B6"/>
<path fill-rule="evenodd" clip-rule="evenodd" d="M12.1362 18.5227C13.7122 18.5227 14.9897 17.2452 14.9897 15.6694C14.9897 14.0935 13.7122 12.816 12.1362 12.816C10.5603 12.816 9.28279 14.0935 9.28279 15.6694C9.28279 17.2452 10.5603 18.5227 12.1362 18.5227ZM13.8365 15.6689C13.8365 16.6082 13.075 17.3696 12.1357 17.3696C11.1964 17.3696 10.435 16.6082 10.435 15.6689C10.435 14.7296 11.1964 13.9682 12.1357 13.9682C13.075 13.9682 13.8365 14.7296 13.8365 15.6689Z" fill="#B3B4B6"/>
</svg>
