<svg width="24" height="24" viewBox="0 0 24 24" fill="none" xmlns="http://www.w3.org/2000/svg">
<path d="M17.1064 14.4943L19.967 16.9685C20.123 17.0994 20.2828 17.204 20.4463 17.2822C20.6098 17.3605 20.7715 17.3996 20.9315 17.3996C21.2481 17.3996 21.5053 17.2935 21.7031 17.0813C21.901 16.869 21.9999 16.5921 21.9999 16.2505V7.77105C21.9999 7.42949 21.901 7.1526 21.7031 6.94039C21.5053 6.72817 21.2481 6.62207 20.9315 6.62207C20.7709 6.62207 20.6092 6.66132 20.4462 6.73982C20.2833 6.81831 20.1236 6.92277 19.967 7.05319L17.1064 9.51961V14.4943Z" fill="#B3B4B6"/>
<path d="M4.67863 18.6262H13.2906C14.13 18.6262 14.785 18.3966 15.2555 17.9374C15.7261 17.4782 15.9614 16.8302 15.9614 15.9935V7.99997C15.9614 7.16842 15.7392 6.52304 15.2946 6.06382C14.8501 5.60461 14.2056 5.375 13.3611 5.375H4.67863C3.86501 5.375 3.21517 5.60461 2.7291 6.06382C2.24303 6.52304 2 7.16874 2 8.00091V16.0182C2 16.855 2.23529 17.4989 2.70589 17.9498C3.17648 18.4008 3.83406 18.6262 4.67863 18.6262Z" fill="#B3B4B6"/>
</svg>
