<svg width="25" height="24" viewBox="0 0 25 24" fill="none" xmlns="http://www.w3.org/2000/svg">
<path fill-rule="evenodd" clip-rule="evenodd" d="M2.5 12C2.5 6.47701 6.97701 2 12.5 2C18.023 2 22.5 6.47701 22.5 12C22.5 17.523 18.023 22 12.5 22C6.97701 22 2.5 17.523 2.5 12ZM12.5 3.81818C7.98116 3.81818 4.31818 7.48117 4.31818 12C4.31818 16.5188 7.98116 20.1818 12.5 20.1818C17.0188 20.1818 20.6818 16.5188 20.6818 12C20.6818 7.48117 17.0188 3.81818 12.5 3.81818Z" fill="#B3B4B6"/>
<path d="M14.3476 8.39746C14.8497 8.39746 15.2567 8.72136 15.2567 9.1209V11.2912V12.7381V14.9084C15.2567 15.308 14.8497 15.6319 14.3476 15.6319C13.8455 15.6319 13.4385 15.308 13.4385 14.9084V12.7381V11.2912V9.1209C13.4385 8.72136 13.8455 8.39746 14.3476 8.39746Z" fill="#B3B4B6"/>
<path d="M10.6689 8.39746C11.1709 8.39746 11.5779 8.72136 11.5779 9.1209V11.2912V12.7381V14.9084C11.5779 15.308 11.1709 15.6319 10.6689 15.6319C10.1668 15.6319 9.75977 15.308 9.75977 14.9084V12.7381V11.2912V9.1209C9.75977 8.72136 10.1668 8.39746 10.6689 8.39746Z" fill="#B3B4B6"/>
</svg>
