<svg width="25" height="24" viewBox="0 0 25 24" fill="none" xmlns="http://www.w3.org/2000/svg">
<path fill-rule="evenodd" clip-rule="evenodd" d="M2.5 12C2.5 6.47701 6.97701 2 12.5 2C18.023 2 22.5 6.47701 22.5 12C22.5 17.523 18.023 22 12.5 22C6.97701 22 2.5 17.523 2.5 12ZM12.5 3.81818C7.98116 3.81818 4.31818 7.48117 4.31818 12C4.31818 16.5188 7.98116 20.1818 12.5 20.1818C17.0188 20.1818 20.6818 16.5188 20.6818 12C20.6818 7.48117 17.0188 3.81818 12.5 3.81818Z" fill="#B3B4B6"/>
<path fill-rule="evenodd" clip-rule="evenodd" d="M15.8697 9.53873C16.2247 9.89376 16.2247 10.4694 15.8697 10.8244L12.2334 14.4607C11.8784 14.8157 11.3027 14.8157 10.9477 14.4607L9.12955 12.6425C8.77453 12.2875 8.77453 11.7119 9.12955 11.3569C9.48457 11.0019 10.0602 11.0019 10.4152 11.3569L11.5905 12.5322L14.584 9.53873C14.9391 9.18371 15.5147 9.18371 15.8697 9.53873Z" fill="#B3B4B6"/>
</svg>
