<svg width="24" height="24" viewBox="0 0 24 24" fill="none" xmlns="http://www.w3.org/2000/svg">
<path fill-rule="evenodd" clip-rule="evenodd" d="M12 3.81818C7.48131 3.81818 3.81818 7.48131 3.81818 12C3.81818 16.5187 7.48131 20.1818 12 20.1818C16.5187 20.1818 20.1818 16.5187 20.1818 12C20.1818 7.48131 16.5187 3.81818 12 3.81818ZM2 12C2 6.47715 6.47715 2 12 2C17.5228 2 22 6.47715 22 12C22 17.5228 17.5228 22 12 22C6.47715 22 2 17.5228 2 12Z" fill="#B3B4B6"/>
<path d="M9.9152 8.62955C9.56018 8.27453 8.98458 8.27453 8.62955 8.62955C8.27453 8.98457 8.27453 9.56018 8.62955 9.9152L10.714 11.9997L8.62955 14.0841C8.27453 14.4391 8.27453 15.0148 8.62955 15.3698C8.98458 15.7248 9.56018 15.7248 9.9152 15.3698L11.9996 13.2853L14.084 15.3698C14.4391 15.7248 15.0147 15.7248 15.3697 15.3698C15.7247 15.0148 15.7247 14.4391 15.3697 14.0841L13.2852 11.9997L15.3697 9.9152C15.7247 9.56018 15.7247 8.98457 15.3697 8.62955C15.0147 8.27453 14.4391 8.27453 14.084 8.62955L11.9996 10.714L9.9152 8.62955Z" fill="#B3B4B6"/>
</svg>
