<svg width="25" height="24" viewBox="0 0 25 24" fill="none" xmlns="http://www.w3.org/2000/svg">
<path d="M18.1716 3.77915C16.327 2.50684 14.1082 1.89141 11.8718 2.03169C9.6353 2.17196 7.51085 3.0598 5.83962 4.55263L4.50661 5.75235V2.9994C4.50661 2.44744 4.05916 2 3.50721 2C2.95526 2 2.50781 2.44744 2.50781 2.9994V7.99637C2.50781 8.54832 2.95526 8.99576 3.50721 8.99576H8.50419C9.05614 8.99576 9.50358 8.54832 9.50358 7.99637C9.50358 7.44442 9.05614 6.99697 8.50419 6.99697H6.11156L7.17118 6.04332L7.17252 6.04212C8.50929 4.84858 10.2083 4.13874 11.9969 4.02656C13.7861 3.91433 15.5611 4.40668 17.0368 5.42452C18.5125 6.44237 19.6034 7.92664 20.1341 9.63898C20.6649 11.3513 20.6047 13.1923 19.9634 14.8664C19.322 16.5404 18.1366 17.9504 16.5976 18.8697C15.0586 19.7891 13.2553 20.1646 11.4773 19.9358C9.69923 19.7071 8.04964 18.8874 6.79344 17.6085C5.53724 16.3295 4.74732 14.6655 4.55054 12.8836C4.48996 12.335 3.99611 11.9394 3.44749 12C2.89887 12.0605 2.50324 12.5544 2.56383 13.103C2.8098 15.3304 3.7972 17.4104 5.36745 19.0091C6.9377 20.6078 8.99968 21.6324 11.2222 21.9183C13.4448 22.2042 15.699 21.7349 17.6227 20.5857C19.5465 19.4364 21.0282 17.674 21.8299 15.5815C22.6316 13.4889 22.7067 11.1876 22.0433 9.04721C21.3798 6.90679 20.0163 5.05145 18.1716 3.77915Z" fill="#B3B4B6"/>
<path d="M13.5007 6.99744C13.5007 6.44549 13.0533 5.99805 12.5013 5.99805C11.9494 5.99805 11.502 6.44549 11.502 6.99744V11.9944C11.502 12.373 11.7158 12.719 12.0544 12.8883L16.052 14.8871C16.5457 15.134 17.146 14.9339 17.3928 14.4402C17.6397 13.9465 17.4395 13.3462 16.9459 13.0994L13.5007 11.3768V6.99744Z" fill="#B3B4B6"/>
</svg>
