<svg width="25" height="24" viewBox="0 0 25 24" fill="none" xmlns="http://www.w3.org/2000/svg">
<path fill-rule="evenodd" clip-rule="evenodd" d="M12.5 3.81818C7.9813 3.81818 4.31818 7.48131 4.31818 12C4.31818 16.5187 7.9813 20.1818 12.5 20.1818C17.0187 20.1818 20.6818 16.5187 20.6818 12C20.6818 7.48131 17.0187 3.81818 12.5 3.81818ZM2.5 12C2.5 6.47715 6.97715 2 12.5 2C18.0228 2 22.5 6.47715 22.5 12C22.5 17.5228 18.0228 22 12.5 22C6.97715 22 2.5 17.5228 2.5 12Z" fill="#B3B4B6"/>
<path d="M13.4087 8.36319C13.4087 7.86111 13.0017 7.4541 12.4996 7.4541C11.9975 7.4541 11.5905 7.86111 11.5905 8.36319V11.0905H8.86319C8.36111 11.0905 7.9541 11.4975 7.9541 11.9996C7.9541 12.5017 8.36111 12.9087 8.86319 12.9087H11.5905V15.636C11.5905 16.138 11.9975 16.5451 12.4996 16.5451C13.0017 16.5451 13.4087 16.138 13.4087 15.636V12.9087H16.136C16.638 12.9087 17.0451 12.5017 17.0451 11.9996C17.0451 11.4975 16.638 11.0905 16.136 11.0905H13.4087V8.36319Z" fill="#B3B4B6"/>
</svg>
