<svg width="25" height="24" viewBox="0 0 25 24" fill="none" xmlns="http://www.w3.org/2000/svg">
<path fill-rule="evenodd" clip-rule="evenodd" d="M12.5 3.81818C7.9813 3.81818 4.31818 7.48131 4.31818 12C4.31818 16.5187 7.9813 20.1818 12.5 20.1818C17.0187 20.1818 20.6818 16.5187 20.6818 12C20.6818 7.48131 17.0187 3.81818 12.5 3.81818ZM2.5 12C2.5 6.47715 6.97715 2 12.5 2C18.0228 2 22.5 6.47715 22.5 12C22.5 17.5228 18.0228 22 12.5 22C6.97715 22 2.5 17.5228 2.5 12Z" fill="#B3B4B6"/>
<path fill-rule="evenodd" clip-rule="evenodd" d="M8.0293 11.9999C8.0293 11.4978 8.43631 11.0908 8.93839 11.0908H16.2112C16.7132 11.0908 17.1203 11.4978 17.1203 11.9999C17.1203 12.502 16.7132 12.909 16.2112 12.909H8.93839C8.43631 12.909 8.0293 12.502 8.0293 11.9999Z" fill="#B3B4B6"/>
</svg>
