<svg width="25" height="24" viewBox="0 0 25 24" fill="none" xmlns="http://www.w3.org/2000/svg">
<path fill-rule="evenodd" clip-rule="evenodd" d="M11.5 2C6.52943 2 2.5 6.02943 2.5 11C2.5 15.9705 6.52943 20 11.5 20C13.625 20 15.5781 19.2635 17.1177 18.0318L20.7929 21.707C21.1834 22.0975 21.8166 22.0975 22.2071 21.707C22.5976 21.3164 22.5976 20.6833 22.2071 20.2928L18.5319 16.6176C19.7635 15.0779 20.5 13.125 20.5 11C20.5 6.02943 16.4705 2 11.5 2ZM11.5 3.99999C7.634 3.99999 4.5 7.134 4.5 11C4.5 14.866 7.634 18 11.5 18C15.366 18 18.5 14.866 18.5 11C18.5 7.134 15.366 3.99999 11.5 3.99999Z" fill="#B3B4B6"/>
</svg>
