<svg width="25" height="24" viewBox="0 0 25 24" fill="none" xmlns="http://www.w3.org/2000/svg">
<path fill-rule="evenodd" clip-rule="evenodd" d="M2.5 12C2.5 6.47702 6.97701 2 12.5 2C18.023 2 22.5 6.47702 22.5 12C22.5 17.523 18.023 22 12.5 22C6.97701 22 2.5 17.523 2.5 12ZM12.5 3.81819C7.98116 3.81819 4.31818 7.48117 4.31818 12C4.31818 16.5188 7.98116 20.1818 12.5 20.1818C17.0188 20.1818 20.6818 16.5188 20.6818 12C20.6818 7.48117 17.0188 3.81819 12.5 3.81819Z" fill="#B3B4B6"/>
<path d="M11.5977 6.54611C11.5977 6.0444 12.0044 5.6377 12.5061 5.6377C13.0078 5.6377 13.4145 6.0444 13.4145 6.54611V10.5095L15.6815 9.39888C15.8166 9.31914 15.9742 9.2734 16.1425 9.2734C16.6442 9.2734 17.0509 9.68011 17.0509 10.1818C17.0509 10.5577 16.8226 10.8802 16.4972 11.0184L12.935 12.8017C12.8073 12.8702 12.6612 12.9091 12.5061 12.9091C12.0044 12.9091 11.5977 12.5024 11.5977 12.0007V6.54611Z" fill="#B3B4B6"/>
</svg>
