<svg width="25" height="24" viewBox="0 0 25 24" fill="none" xmlns="http://www.w3.org/2000/svg">
<path fill-rule="evenodd" clip-rule="evenodd" d="M12.5 3.81818C7.98131 3.81818 4.31818 7.48131 4.31818 12C4.31818 16.5187 7.98131 20.1818 12.5 20.1818C17.0187 20.1818 20.6818 16.5187 20.6818 12C20.6818 7.48131 17.0187 3.81818 12.5 3.81818ZM2.5 12C2.5 6.47715 6.97715 2 12.5 2C18.0228 2 22.5 6.47715 22.5 12C22.5 17.5229 18.0228 22 12.5 22C6.97715 22 2.5 17.5229 2.5 12Z" fill="#B3B4B6"/>
<path fill-rule="evenodd" clip-rule="evenodd" d="M12.4999 7.45508C13.002 7.45508 13.409 7.86209 13.409 8.36417V12.0005C13.409 12.5026 13.002 12.9096 12.4999 12.9096C11.9978 12.9096 11.5908 12.5026 11.5908 12.0005V8.36417C11.5908 7.86209 11.9978 7.45508 12.4999 7.45508Z" fill="#B3B4B6"/>
<path fill-rule="evenodd" clip-rule="evenodd" d="M11.5908 15.6366C11.5908 15.1345 11.9978 14.7275 12.4999 14.7275H12.509C13.0111 14.7275 13.4181 15.1345 13.4181 15.6366C13.4181 16.1386 13.0111 16.5457 12.509 16.5457H12.4999C11.9978 16.5457 11.5908 16.1386 11.5908 15.6366Z" fill="#B3B4B6"/>
</svg>
