<svg width="25" height="24" viewBox="0 0 25 24" fill="none" xmlns="http://www.w3.org/2000/svg">
<path fill-rule="evenodd" clip-rule="evenodd" d="M12.521 4.4375C7.9578 4.4375 4.25879 8.13651 4.25879 12.6997C4.25879 14.6483 4.93327 16.4392 6.06151 17.8519L4.6079 19.2585C4.48452 19.3912 4.40906 19.569 4.40906 19.7645C4.40906 20.175 4.74184 20.5078 5.15235 20.5078C5.38097 20.5078 5.58549 20.4046 5.72184 20.2422L7.08628 18.9231C8.53894 20.1927 10.4401 20.9619 12.521 20.9619C14.5872 20.9619 16.4757 20.203 17.9243 18.9494L19.2671 20.2475C19.4034 20.4099 19.6079 20.5131 19.8365 20.5131C20.2471 20.5131 20.5798 20.1803 20.5798 19.7698C20.5798 19.5743 20.5044 19.3964 20.381 19.2638L18.9549 17.8838C20.0986 16.4662 20.7833 14.663 20.7833 12.6997C20.7833 8.13651 17.0843 4.4375 12.521 4.4375ZM12.521 5.93972C8.78745 5.93972 5.76101 8.96617 5.76101 12.6997C5.76101 16.4333 8.78745 19.4597 12.521 19.4597C16.2546 19.4597 19.281 16.4333 19.281 12.6997C19.281 8.96617 16.2546 5.93972 12.521 5.93972Z" fill="#B3B4B6"/>
<path d="M6.8242 3.78235C6.8242 3.37185 6.49141 3.03906 6.08091 3.03906C5.85567 3.03906 5.65382 3.13925 5.51751 3.29749L2.78478 5.94182C2.6614 6.07451 2.58594 6.25237 2.58594 6.44785C2.58594 6.85835 2.91872 7.19114 3.32923 7.19114C3.55785 7.19114 3.76236 7.08792 3.89871 6.92554L6.58419 4.32934C6.73175 4.19351 6.8242 3.99873 6.8242 3.78235Z" fill="#B3B4B6"/>
<path d="M18.1768 3.78235C18.1768 3.37185 18.5096 3.03906 18.9201 3.03906C19.1453 3.03906 19.3472 3.13925 19.4835 3.29749L22.2162 5.94182C22.3396 6.07451 22.4151 6.25237 22.4151 6.44785C22.4151 6.85835 22.0823 7.19114 21.6718 7.19114C21.4432 7.19114 21.2386 7.08792 21.1023 6.92554L18.4168 4.32934C18.2693 4.19351 18.1768 3.99873 18.1768 3.78235Z" fill="#B3B4B6"/>
<path d="M9.93359 13.2328C9.93359 12.8172 10.2705 12.4802 10.6862 12.4802C10.8908 12.4802 11.0764 12.5619 11.2121 12.6945L12.1913 13.683L14.7071 11.1621C14.8388 11.0489 15.0101 10.9805 15.1974 10.9805C15.613 10.9805 15.9499 11.3174 15.9499 11.733C15.9499 11.9204 15.8815 12.0917 15.7682 12.2235L12.7079 15.2851C12.5732 15.4124 12.3913 15.4905 12.1913 15.4905C11.9912 15.4905 11.8094 15.4124 11.6746 15.2851L10.1084 13.7151C9.99927 13.5845 9.93359 13.4163 9.93359 13.2328Z" fill="#B3B4B6"/>
</svg>
