<svg width="24" height="24" viewBox="0 0 24 24" fill="none" xmlns="http://www.w3.org/2000/svg">
<path d="M6.42581 11.7173C4.47758 16.1503 2.86816 19.9056 2.86816 20.0467C2.86816 20.2162 6.14346 20.3291 12.0729 20.3291C20.7129 20.3291 21.2776 20.3009 21.1082 19.8209C20.9952 19.5667 19.3576 15.8115 17.4658 11.5197L14.0211 3.69851L12.0164 3.67028H10.0117L6.42581 11.7173ZM10.774 7.34087V10.7291H9.07993H7.41405L7.92228 9.51498C9.24934 6.49381 10.4635 3.95263 10.6046 3.95263C10.6893 3.95263 10.774 5.47734 10.774 7.34087ZM15.094 7.3691C15.8282 9.03498 16.4211 10.4467 16.4211 10.5597C16.4211 10.6444 15.6588 10.7291 14.727 10.7291H13.0329V7.53851C13.0329 4.51734 13.174 3.67028 13.5976 4.15028C13.7105 4.29145 14.3882 5.73145 15.094 7.3691ZM10.774 16.3762V19.7644H7.10346H3.43287L3.82816 18.8326C4.02581 18.3526 4.70346 16.8279 5.2964 15.4444L6.36934 12.9879H8.57169H10.774V16.3762ZM19.0188 16.2067C19.7529 17.8726 20.374 19.3691 20.374 19.5103C20.374 19.6515 18.7364 19.7644 16.7035 19.7644H13.0329V16.5738C13.0329 14.795 13.1176 13.2703 13.2305 13.1573C13.3435 13.0444 14.3882 13.0162 15.5458 13.0444L17.6352 13.1291L19.0188 16.2067Z" fill="#B3B4B6"/>
</svg>
