<svg width="25" height="24" viewBox="0 0 25 24" fill="none" xmlns="http://www.w3.org/2000/svg">
<path d="M19.6977 21.1336C20.2627 20.5789 20.5801 19.8265 20.5801 19.0419V12.9614C20.5801 12.4622 20.1754 12.0576 19.6762 12.0576C19.1771 12.0576 18.7724 12.4622 18.7724 12.9614V19.2062C18.7724 19.4677 18.6666 19.7185 18.4782 19.9034C18.2899 20.0884 18.0344 20.1922 17.7681 20.1922H5.31494C5.04859 20.1922 4.79314 20.0884 4.6048 19.9034C4.41646 19.7185 4.31065 19.4677 4.31065 19.2062V11.1537V9.34601V8.44215V6.71654C4.31065 6.45502 4.41646 6.20423 4.6048 6.01931C4.79314 5.83439 5.04859 5.73051 5.31494 5.73051H7.02223L11.5415 5.7306C12.0407 5.7306 12.4454 5.32593 12.4454 4.82674C12.4454 4.32755 12.0407 3.92288 11.5415 3.92288L7.02223 3.92285H5.5158C4.71674 3.92285 3.9504 4.2345 3.38538 4.78925C2.82036 5.344 2.50293 6.0964 2.50293 6.88093V8.44215V19.0419C2.50293 19.8265 2.82036 20.5789 3.38538 21.1336C3.9504 21.6884 4.71674 22 5.5158 22H17.5672C18.3663 22 19.1326 21.6884 19.6977 21.1336Z" fill="#B3B4B6"/>
<path fill-rule="evenodd" clip-rule="evenodd" d="M22.4975 4.83196C22.4975 3.26791 21.2296 2 19.6655 2C18.7869 2 18.0017 2.40016 17.4822 3.02818L8.98976 11.5094L7.95013 15.4433L7.93214 15.5114C7.91838 15.5734 7.91113 15.6379 7.91113 15.704C7.91113 16.193 8.30755 16.5894 8.79656 16.5894C8.87359 16.5894 8.94831 16.5796 9.01955 16.5611L9.02506 16.5597L13.0127 15.5114L21.661 6.84149C22.1776 6.32846 22.4975 5.61757 22.4975 4.83196ZM20.6801 4.83196C20.6801 4.27165 20.2258 3.81743 19.6655 3.81743C19.3594 3.81743 19.085 3.95298 18.899 4.16731L17.0682 5.96246L10.5354 12.5251L10.0916 14.3951L11.93 13.9672L18.5221 7.42359L20.3862 5.54605C20.5678 5.36272 20.6801 5.11044 20.6801 4.83196Z" fill="#B3B4B6"/>
</svg>
