<svg width="25" height="24" viewBox="0 0 25 24" fill="none" xmlns="http://www.w3.org/2000/svg">
<path fill-rule="evenodd" clip-rule="evenodd" d="M22.4364 18.748C22.4364 19.6105 22.0874 20.4376 21.4662 21.0475C20.845 21.6574 20.0025 22 19.124 22H5.87481C4.99633 22 4.15383 21.6574 3.53265 21.0475C2.91148 20.4376 2.5625 19.6105 2.5625 18.748V11.937V7.09461V5.25208C2.5625 4.38958 2.91148 3.5624 3.53265 2.95251C4.15383 2.34263 4.99633 2 5.87481 2H19.124C20.0025 2 20.845 2.34263 21.4662 2.95251C22.0874 3.5624 22.4364 4.38958 22.4364 5.25208V16.9054V18.748ZM12.4755 3.98745V8.54654L13.723 7.30324C13.9049 7.10043 14.169 6.97284 14.4629 6.97284C14.7568 6.97284 15.0209 7.10043 15.2029 7.30324L16.4318 8.54654V3.98745H12.4755ZM4.54989 18.9286C4.54989 19.2161 4.66621 19.4918 4.87327 19.6951C5.08033 19.8984 5.36116 20.0126 5.65399 20.0126H19.3449C19.6377 20.0126 19.9185 19.8984 20.1256 19.6951C20.319 19.5052 20.4333 19.2521 20.4475 18.9852L20.449 5.07148C20.449 4.78398 20.3326 4.50825 20.1256 4.30496C19.9185 4.10166 19.6377 3.98745 19.3449 3.98745H18.4377V10.9476C18.4377 11.4964 17.9928 11.9413 17.444 11.9413C17.1372 11.9413 16.8629 11.8023 16.6806 11.5838L14.4629 9.38338L12.2172 11.616C12.0355 11.8159 11.7733 11.9413 11.4818 11.9413C10.933 11.9413 10.4882 11.4964 10.4882 10.9476V4.37488V3.98745H5.65399C5.36116 3.98745 5.08033 4.10166 4.87327 4.30496C4.66621 4.50825 4.54989 4.78398 4.54989 5.07148V11.937V18.9286Z" fill="#B3B4B6"/>
</svg>
