<svg width="25" height="24" viewBox="0 0 25 24" fill="none" xmlns="http://www.w3.org/2000/svg">
<path fill-rule="evenodd" clip-rule="evenodd" d="M9.81828 4.21136C9.69045 4.03999 9.44035 4.02186 9.28913 4.173L4.67312 8.78689C4.52187 8.93806 4.53993 9.18823 4.71132 9.31611L9.91017 13.1955C10.2626 13.4585 10.5273 13.8219 10.6695 14.238L11.92 17.8965C12.004 18.1421 12.3163 18.2147 12.4999 18.0312L18.5367 11.9972C18.7204 11.8136 18.6477 11.5009 18.4019 11.4171L14.7385 10.1677C14.3217 10.0256 13.9577 9.76059 13.6944 9.4076L9.81828 4.21136ZM7.9954 2.87867C8.93551 1.939 10.4904 2.05171 11.2852 3.11714L15.1613 8.31339C15.2036 8.37016 15.2622 8.41279 15.3292 8.43565L18.9926 9.685C20.521 10.2062 20.9725 12.15 19.8304 13.2915L17.4562 15.6647L21.9921 20.1985C22.3495 20.5557 22.3496 21.1351 21.9924 21.4925C21.6351 21.8499 21.0558 21.8501 20.6983 21.4928L16.1618 16.9584L13.7937 19.3255C12.6523 20.4663 10.7103 20.0154 10.1884 18.4884L8.93787 14.8299C8.91499 14.7629 8.87242 14.7045 8.81573 14.6622L3.61688 10.7828C2.55134 9.98773 2.43908 8.43242 3.37939 7.49255L7.9954 2.87867Z" fill="#B3B4B6"/>
</svg>
