<svg width="25" height="24" viewBox="0 0 25 24" fill="none" xmlns="http://www.w3.org/2000/svg">
<path fill-rule="evenodd" clip-rule="evenodd" d="M7.04564 2C6.32232 2 5.62863 2.28734 5.11716 2.7988C4.6057 3.31026 4.31836 4.00395 4.31836 4.72727V19.2727C4.31836 19.9961 4.6057 20.6898 5.11716 21.2012C5.62863 21.7127 6.32232 22 7.04564 22H17.9547C18.678 22 19.3717 21.7127 19.8832 21.2012C20.3946 20.6898 20.682 19.9961 20.682 19.2727V7.90909C20.682 7.66798 20.5862 7.43675 20.4157 7.26626L15.4157 2.26627C15.2452 2.09578 15.014 2 14.7729 2H7.04564ZM15.2174 7.45275H18.0291L15.2174 4.64104V7.45275ZM7.04564 3.81818C6.80453 3.81818 6.5733 3.91396 6.40281 4.08444C6.23232 4.25493 6.13655 4.48616 6.13655 4.72727V19.2727C6.13655 19.5138 6.23232 19.7451 6.40281 19.9156C6.5733 20.0861 6.80453 20.1818 7.04564 20.1818H17.9547C18.1958 20.1818 18.427 20.0861 18.5975 19.9156C18.768 19.7451 18.8638 19.5138 18.8638 19.2727V9.27272H14.3182C13.8162 9.27272 13.4092 8.86571 13.4092 8.36363V3.81818H7.04564Z" fill="#B3B4B6"/>
<path d="M15.2467 12.2158C15.6241 12.2158 15.93 12.5217 15.93 12.899C15.93 13.0583 15.8754 13.2049 15.784 13.3211L12.0767 17.04C11.9544 17.1553 11.7896 17.2259 11.6083 17.2259C11.445 17.2259 11.2951 17.1686 11.1775 17.0731L9.23797 15.1751C9.14936 15.0599 9.09668 14.9156 9.09668 14.759C9.09668 14.3817 9.40258 14.0758 9.77991 14.0758C9.96098 14.0758 10.1256 14.1462 10.2478 14.2612L11.6083 15.5607L14.8092 12.3742C14.9278 12.2753 15.0803 12.2158 15.2467 12.2158Z" fill="#B3B4B6"/>
</svg>
