<svg width="25" height="24" viewBox="0 0 25 24" fill="none" xmlns="http://www.w3.org/2000/svg">
<path fill-rule="evenodd" clip-rule="evenodd" d="M5.11716 2.7988C5.62862 2.28734 6.32232 2 7.04563 2H14.7729C15.0141 2 15.2453 2.09578 15.4158 2.26627L20.4158 7.26626C20.5863 7.43675 20.682 7.66798 20.682 7.90909V19.2727C20.682 19.9961 20.3947 20.6897 19.8832 21.2012C19.3718 21.7127 18.6781 22 17.9548 22H7.04563C6.32231 22 5.62862 21.7127 5.11716 21.2012C4.6057 20.6897 4.31836 19.9961 4.31836 19.2727V4.72727C4.31836 4.00395 4.6057 3.31026 5.11716 2.7988ZM7.04563 3.81818C6.80453 3.81818 6.5733 3.91396 6.40281 4.08444C6.23232 4.25493 6.13654 4.48616 6.13654 4.72727V19.2727C6.13654 19.5138 6.23232 19.7451 6.40281 19.9156C6.5733 20.086 6.80453 20.1818 7.04563 20.1818H17.9548C18.1959 20.1818 18.4271 20.086 18.5976 19.9156C18.7681 19.7451 18.8639 19.5138 18.8639 19.2727V16.5259V13.7792V8.28564L14.3964 3.81818H7.04563Z" fill="#B3B4B6"/>
<path fill-rule="evenodd" clip-rule="evenodd" d="M12.4999 8.36426C13.002 8.36426 13.409 8.77128 13.409 9.27335V12.9097C13.409 13.4118 13.002 13.8188 12.4999 13.8188C11.9978 13.8188 11.5908 13.4118 11.5908 12.9097V9.27335C11.5908 8.77128 11.9978 8.36426 12.4999 8.36426Z" fill="#B3B4B6"/>
<path fill-rule="evenodd" clip-rule="evenodd" d="M11.5908 16.5458C11.5908 16.0437 11.9978 15.6367 12.4999 15.6367H12.509C13.0111 15.6367 13.4181 16.0437 13.4181 16.5458C13.4181 17.0478 13.0111 17.4549 12.509 17.4549H12.4999C11.9978 17.4549 11.5908 17.0478 11.5908 16.5458Z" fill="#B3B4B6"/>
</svg>
