<svg width="25" height="24" viewBox="0 0 25 24" fill="none" xmlns="http://www.w3.org/2000/svg">
<path fill-rule="evenodd" clip-rule="evenodd" d="M3.37868 2.87868C3.94129 2.31607 4.70435 2 5.5 2H16.5C16.7652 2 17.0196 2.10536 17.2071 2.29289L22.2071 7.29289C22.3946 7.48043 22.5 7.73478 22.5 8V19C22.5 19.7956 22.1839 20.5587 21.6213 21.1213C21.0587 21.6839 20.2957 22 19.5 22H5.5C4.70435 22 3.94129 21.6839 3.37868 21.1213C2.81607 20.5587 2.5 19.7956 2.5 19V5C2.5 4.20435 2.81607 3.44129 3.37868 2.87868ZM8.5 14H16.5V20H8.5V14ZM5.5 4C5.23478 4 4.98043 4.10535 4.79289 4.29289C4.60536 4.48043 4.5 4.73478 4.5 5V19C4.5 19.2652 4.60536 19.5196 4.79289 19.7071C4.98043 19.8946 5.23478 20 5.5 20H6.5V13C6.5 12.4477 6.94772 12 7.5 12H17.5C18.0523 12 18.5 12.4477 18.5 13V20H19.5C19.7652 20 20.0196 19.8946 20.2071 19.7071C20.3946 19.5196 20.5 19.2652 20.5 19V8.41421L16.0858 4H8.5V7H15.5C16.0523 7 16.5 7.44771 16.5 8C16.5 8.55228 16.0523 9 15.5 9H7.5C6.94772 9 6.5 8.55228 6.5 8V4H5.5Z" fill="#B3B4B6"/>
</svg>
