<svg width="25" height="24" viewBox="0 0 25 24" fill="none" xmlns="http://www.w3.org/2000/svg">
<path fill-rule="evenodd" clip-rule="evenodd" d="M2.5 2.76562C2.5 2.21334 2.94771 1.76562 3.5 1.76562H10.5C11.0523 1.76562 11.5 2.21334 11.5 2.76562V9.76562C11.5 10.3179 11.0523 10.7656 10.5 10.7656H3.5C2.94771 10.7656 2.5 10.3179 2.5 9.76562V2.76562ZM4.5 3.76562V8.76562H9.5V3.76562H4.5Z" fill="#B3B4B6"/>
<path fill-rule="evenodd" clip-rule="evenodd" d="M13.5 8.76562C13.5 8.21334 13.9477 7.76562 14.5 7.76562H21.5C22.0523 7.76562 22.5 8.21334 22.5 8.76562C22.5 9.31792 22.0523 9.76562 21.5 9.76562H14.5C13.9477 9.76562 13.5 9.31792 13.5 8.76562Z" fill="#B3B4B6"/>
<path fill-rule="evenodd" clip-rule="evenodd" d="M13.5 15.2344C13.5 14.6821 13.9477 14.2344 14.5 14.2344H21.5C22.0523 14.2344 22.5 14.6821 22.5 15.2344C22.5 15.7867 22.0523 16.2344 21.5 16.2344H14.5C13.9477 16.2344 13.5 15.7867 13.5 15.2344Z" fill="#B3B4B6"/>
<path fill-rule="evenodd" clip-rule="evenodd" d="M13.5 20.2344C13.5 19.6821 13.9477 19.2344 14.5 19.2344H21.5C22.0523 19.2344 22.5 19.6821 22.5 20.2344C22.5 20.7867 22.0523 21.2344 21.5 21.2344H14.5C13.9477 21.2344 13.5 20.7867 13.5 20.2344Z" fill="#B3B4B6"/>
<path fill-rule="evenodd" clip-rule="evenodd" d="M2.5 14.2344C2.5 13.6821 2.94771 13.2344 3.5 13.2344H10.5C11.0523 13.2344 11.5 13.6821 11.5 14.2344V21.2344C11.5 21.7867 11.0523 22.2344 10.5 22.2344H3.5C2.94771 22.2344 2.5 21.7867 2.5 21.2344V14.2344ZM4.5 15.2344V20.2344H9.5V15.2344H4.5Z" fill="#B3B4B6"/>
<path fill-rule="evenodd" clip-rule="evenodd" d="M13.5 4.23438C13.5 3.68209 13.9477 3.23438 14.5 3.23438H21.5C22.0523 3.23438 22.5 3.68209 22.5 4.23438C22.5 4.78667 22.0523 5.23438 21.5 5.23438H14.5C13.9477 5.23438 13.5 4.78667 13.5 4.23438Z" fill="#B3B4B6"/>
</svg>
