<svg width="25" height="24" viewBox="0 0 25 24" fill="none" xmlns="http://www.w3.org/2000/svg">
<path fill-rule="evenodd" clip-rule="evenodd" d="M7.5 6C7.5 5.44772 7.94772 5 8.50001 5H21.5C22.0523 5 22.5 5.44772 22.5 6C22.5 6.55229 22.0523 7.00001 21.5 7.00001H8.50001C7.94772 7.00001 7.5 6.55229 7.5 6Z" fill="#B3B4B6"/>
<path fill-rule="evenodd" clip-rule="evenodd" d="M2.5 6C2.5 5.44772 2.94772 5 3.5 5H3.51C4.06229 5 4.51 5.44772 4.51 6C4.51 6.55229 4.06229 7.00001 3.51 7.00001H3.5C2.94772 7.00001 2.5 6.55229 2.5 6Z" fill="#B3B4B6"/>
<path fill-rule="evenodd" clip-rule="evenodd" d="M2.5 12.001C2.5 11.4487 2.94772 11.001 3.5 11.001H3.51C4.06229 11.001 4.51 11.4487 4.51 12.001C4.51 12.5533 4.06229 13.001 3.51 13.001H3.5C2.94772 13.001 2.5 12.5533 2.5 12.001Z" fill="#B3B4B6"/>
<path fill-rule="evenodd" clip-rule="evenodd" d="M7.5 12.001C7.5 11.4487 7.94772 11.001 8.50001 11.001H21.5C22.0523 11.001 22.5 11.4487 22.5 12.001C22.5 12.5533 22.0523 13.001 21.5 13.001H8.50001C7.94772 13.001 7.5 12.5533 7.5 12.001Z" fill="#B3B4B6"/>
<path fill-rule="evenodd" clip-rule="evenodd" d="M7.5 18C7.5 17.4478 7.94772 17 8.50001 17H21.5C22.0523 17 22.5 17.4478 22.5 18C22.5 18.5523 22.0523 19 21.5 19H8.50001C7.94772 19 7.5 18.5523 7.5 18Z" fill="#B3B4B6"/>
<path fill-rule="evenodd" clip-rule="evenodd" d="M2.5 18C2.5 17.4478 2.94772 17 3.5 17H3.51C4.06229 17 4.51 17.4478 4.51 18C4.51 18.5523 4.06229 19 3.51 19H3.5C2.94772 19 2.5 18.5523 2.5 18Z" fill="#B3B4B6"/>
</svg>
