<svg width="24" height="24" viewBox="0 0 24 24" fill="none" xmlns="http://www.w3.org/2000/svg">
<path fill-rule="evenodd" clip-rule="evenodd" d="M8.07766 5.16171C8.07766 5.16171 8.24673 5.08123 8.34329 5.01132C8.42558 4.95174 8.47001 4.91441 8.5386 4.83945L8.53979 4.83814C8.58747 4.78604 8.61513 4.75581 8.65188 4.69492C8.6939 4.62529 8.70874 4.58084 8.73391 4.50351C8.75625 4.4349 8.76765 4.39538 8.77688 4.32382C8.78801 4.23759 8.77688 4.18812 8.77688 4.10117C8.77688 4.00048 8.77173 3.9439 8.77688 3.84335C8.78396 3.70522 8.79448 3.62776 8.81985 3.49179C8.84027 3.38231 8.8566 3.3218 8.88626 3.21445L8.88863 3.20586C8.93649 3.0326 8.96436 2.93168 9.0386 2.76523C9.1294 2.56165 9.19752 2.45402 9.32766 2.27304C9.51227 2.01632 9.63801 1.8839 9.88235 1.6832C10.0815 1.51965 10.203 1.43584 10.4331 1.31992C10.6818 1.19467 10.8343 1.14679 11.105 1.08164C11.2557 1.04536 11.3414 1.02651 11.4956 1.01132C11.6848 0.992699 12.0264 0.992188 12.0264 0.992188C12.0264 0.992188 12.324 0.992699 12.5132 1.01132C12.6675 1.02651 12.7531 1.04536 12.9038 1.08164C13.1745 1.14679 13.3271 1.19467 13.5757 1.31992C13.8058 1.43584 13.9274 1.51965 14.1265 1.6832C14.3708 1.8839 14.4966 2.01632 14.6812 2.27304C14.8113 2.45402 14.8794 2.56165 14.9702 2.76523C15.0445 2.93168 15.0724 3.0326 15.1202 3.20585L15.1226 3.21445C15.1522 3.3218 15.1686 3.38231 15.189 3.49179C15.2144 3.62776 15.2249 3.70522 15.232 3.84335C15.2371 3.9439 15.232 4.00048 15.232 4.10117C15.232 4.18812 15.2208 4.23759 15.232 4.32382C15.2412 4.39538 15.2526 4.4349 15.2749 4.50351C15.3001 4.58084 15.3149 4.62529 15.357 4.69492C15.3937 4.75581 15.4214 4.78604 15.469 4.83814L15.4702 4.83945C15.5388 4.91441 15.5833 4.95174 15.6656 5.01132C15.7621 5.08123 15.9312 5.16171 15.9312 5.16171C15.9312 5.16171 16.1175 5.28664 16.2264 5.33531C16.3191 5.37679 16.3737 5.3966 16.4729 5.41852L16.4746 5.4189C16.5436 5.43413 16.5836 5.44297 16.6547 5.44436C16.736 5.44594 16.7819 5.43656 16.8614 5.41969C16.932 5.40473 16.972 5.39484 17.0385 5.36706C17.1188 5.33358 17.1561 5.29921 17.2314 5.25573C17.3186 5.20539 17.365 5.17264 17.4546 5.12683C17.5778 5.06389 17.6502 5.03428 17.7806 4.98826C17.8856 4.95121 17.9462 4.93509 18.054 4.9071L18.0626 4.90486C18.2366 4.85967 18.3379 4.83335 18.5192 4.81442C18.7409 4.79127 18.8682 4.79645 19.09 4.81866C19.4046 4.85018 19.5821 4.89286 19.8781 5.00411C20.1193 5.09477 20.2527 5.15814 20.4681 5.29946C20.7009 5.45216 20.8187 5.56036 21.0104 5.76218C21.1172 5.87455 21.1764 5.93932 21.2666 6.06532C21.3774 6.21984 21.5486 6.51544 21.5486 6.51544C21.5486 6.51544 21.697 6.77342 21.7754 6.94657C21.8394 7.08775 21.8659 7.17137 21.9098 7.32001C21.9887 7.587 22.0236 7.74307 22.0394 8.02102C22.0541 8.27826 22.0423 8.42544 22.0002 8.67965C21.9486 8.9916 21.8967 9.16671 21.7667 9.45494C21.6751 9.65813 21.6159 9.77095 21.485 9.95137C21.378 10.0989 21.3045 10.1735 21.1784 10.3016L21.1721 10.3079C21.094 10.3873 21.0498 10.4317 20.9652 10.5041C20.8601 10.594 20.7983 10.6419 20.6822 10.7171C20.5977 10.7718 20.5461 10.7957 20.4589 10.846C20.3836 10.8895 20.3352 10.9046 20.2661 10.9573C20.2087 11.0011 20.1802 11.0307 20.132 11.0844C20.0776 11.1448 20.0465 11.1799 20.0072 11.2511C19.9729 11.3134 19.9605 11.3525 19.9392 11.4198L19.9387 11.4215C19.9081 11.5184 19.8979 11.5755 19.8875 11.6766C19.8752 11.7951 19.8875 11.9883 19.8875 11.9883C19.8875 11.9883 19.8754 12.2049 19.8877 12.3234C19.8981 12.4245 19.9083 12.4816 19.9389 12.5785L19.9394 12.5802C19.9607 12.6475 19.9731 12.6866 20.0074 12.7489C20.0467 12.8201 20.0778 12.8552 20.1322 12.9156C20.1804 12.9693 20.2089 12.9989 20.2663 13.0427C20.3354 13.0954 20.3838 13.1105 20.4591 13.154C20.5463 13.2043 20.5979 13.2282 20.6824 13.2829C20.7985 13.3581 20.8603 13.406 20.9654 13.4959C21.05 13.5683 21.0942 13.6127 21.1723 13.6921L21.1786 13.6984C21.3047 13.8265 21.3782 13.9011 21.4852 14.0486C21.6161 14.2291 21.6753 14.3419 21.7669 14.5451C21.8969 14.8333 21.9488 15.0084 22.0004 15.3204C22.0425 15.5746 22.0543 15.7217 22.0396 15.979C22.0238 16.2569 21.9889 16.413 21.91 16.68C21.8661 16.8286 21.8396 16.9123 21.7756 17.0534C21.6972 17.2266 21.5488 17.4846 21.5488 17.4846C21.5488 17.4846 21.3776 17.7802 21.2668 17.9347C21.1766 18.0607 21.1174 18.1255 21.0106 18.2378C20.8189 18.4396 20.7011 18.5478 20.4683 18.7005C20.2529 18.8419 20.1195 18.9052 19.8783 18.9959C19.5823 19.1071 19.4048 19.1498 19.0902 19.1813C18.8684 19.2036 18.7411 19.2087 18.5194 19.1856C18.3381 19.1666 18.2368 19.1403 18.0628 19.0951L18.0542 19.0929C17.9464 19.0649 17.8858 19.0488 17.7808 19.0117C17.6504 18.9657 17.578 18.9361 17.4548 18.8732C17.3652 18.8274 17.3188 18.7946 17.2316 18.7443C17.1563 18.7008 17.119 18.6664 17.0387 18.6329C16.9722 18.6052 16.9322 18.5953 16.8616 18.5803C16.7821 18.5634 16.7362 18.5541 16.6549 18.5556C16.5838 18.557 16.5437 18.5659 16.4748 18.5811L16.4731 18.5815C16.3738 18.6034 16.3193 18.6232 16.2266 18.6647C16.1177 18.7134 15.9414 18.8125 15.9414 18.8125C15.9414 18.8125 15.7621 18.9188 15.6656 18.9887C15.5833 19.0483 15.5388 19.0856 15.4702 19.1606L15.469 19.1619C15.4214 19.214 15.3937 19.2442 15.357 19.3051C15.3149 19.3747 15.3001 19.4192 15.2749 19.4965C15.2526 19.5651 15.2412 19.6046 15.232 19.6762C15.2208 19.7624 15.232 19.8119 15.232 19.8988C15.232 19.9995 15.2371 20.0561 15.232 20.1566C15.2249 20.2948 15.2144 20.3722 15.189 20.5082C15.1686 20.6177 15.1522 20.6782 15.1226 20.7856L15.1202 20.7941C15.0724 20.9674 15.0445 21.0683 14.9702 21.2348C14.8794 21.4383 14.8113 21.546 14.6812 21.727C14.4966 21.9837 14.3708 22.1161 14.1265 22.3168C13.9274 22.4804 13.8058 22.5642 13.5757 22.6801C13.3271 22.8053 13.1745 22.8532 12.9038 22.9184C12.7531 22.9546 12.6675 22.9735 12.5132 22.9887C12.324 23.0073 12.0264 23.0078 12.0264 23.0078C12.0264 23.0078 11.6848 23.0073 11.4956 22.9887C11.3414 22.9735 11.2557 22.9546 11.105 22.9184C10.8343 22.8532 10.6818 22.8053 10.4331 22.6801C10.203 22.5642 10.0815 22.4804 9.88235 22.3168C9.63801 22.1161 9.51227 21.9837 9.32766 21.727C9.19752 21.546 9.1294 21.4383 9.0386 21.2348C8.96436 21.0683 8.93649 20.9674 8.88863 20.7941L8.88626 20.7856C8.8566 20.6782 8.84027 20.6177 8.81985 20.5082C8.79448 20.3722 8.78396 20.2948 8.77688 20.1566C8.77173 20.0561 8.77688 19.9995 8.77688 19.8988C8.77688 19.8119 8.78801 19.7624 8.77688 19.6762C8.76765 19.6046 8.75625 19.5651 8.73391 19.4965C8.70874 19.4192 8.6939 19.3747 8.65188 19.3051C8.61513 19.2442 8.58747 19.214 8.53979 19.1619L8.5386 19.1606C8.47001 19.0856 8.42558 19.0483 8.34329 18.9887C8.24673 18.9188 8.0458 18.8201 8.0458 18.8201C8.0458 18.8201 7.89157 18.7139 7.78275 18.6653C7.69 18.6238 7.63545 18.604 7.53624 18.582L7.53452 18.5817C7.46555 18.5664 7.42554 18.5576 7.35443 18.5562C7.27312 18.5546 7.22721 18.564 7.14766 18.5809C7.07707 18.5958 7.03714 18.6057 6.97056 18.6335C6.89031 18.667 6.85303 18.7014 6.77773 18.7448C6.69054 18.7952 6.64412 18.8279 6.55446 18.8737C6.43129 18.9367 6.35895 18.9663 6.22851 19.0123C6.12349 19.0494 6.06292 19.0655 5.95512 19.0935L5.94649 19.0957C5.77252 19.1409 5.67118 19.1672 5.48992 19.1861C5.26821 19.2093 5.14094 19.2041 4.91914 19.1819C4.60451 19.1504 4.42696 19.1077 4.13097 18.9965C3.88978 18.9058 3.75642 18.8424 3.54097 18.7011C3.30819 18.5484 3.19044 18.4402 2.99868 18.2384C2.89191 18.126 2.83275 18.0612 2.74247 17.9352C2.63175 17.7807 2.48251 17.5233 2.48251 17.5233C2.48251 17.5233 2.31215 17.2271 2.23368 17.054C2.16971 16.9128 2.14319 16.8292 2.09926 16.6805C2.02036 16.4136 1.98553 16.2575 1.96968 15.9795C1.95502 15.7223 1.96682 15.5751 2.0089 15.3209C2.06055 15.009 2.11236 14.8339 2.24238 14.5456C2.33404 14.3424 2.39319 14.2296 2.5241 14.0492C2.63112 13.9017 2.70459 13.8271 2.83071 13.699L2.83696 13.6926C2.9151 13.6133 2.95934 13.5689 3.04394 13.4965C3.14901 13.4065 3.21083 13.3587 3.32692 13.2835C3.41142 13.2287 3.463 13.2049 3.55019 13.1546C3.6255 13.1111 3.6739 13.096 3.74302 13.0432C3.80037 12.9995 3.8289 12.9698 3.87715 12.9162C3.93153 12.8557 3.96261 12.8206 4.00189 12.7494C4.03625 12.6872 4.0486 12.6481 4.06989 12.5808L4.07042 12.5791C4.10105 12.4822 4.11116 12.425 4.12161 12.324C4.13388 12.2054 4.11924 11.9812 4.11924 11.9812C4.11924 11.9812 4.13408 11.7946 4.12181 11.676C4.11136 11.575 4.10125 11.5178 4.07062 11.4209L4.07009 11.4192C4.0488 11.3519 4.03645 11.3128 4.00209 11.2506C3.96281 11.1794 3.93173 11.1443 3.87735 11.0838C3.8291 11.0302 3.80057 11.0005 3.74322 10.9568C3.6741 10.904 3.62569 10.8889 3.55039 10.8454C3.4632 10.7951 3.41162 10.7713 3.32712 10.7165C3.21103 10.6413 3.14921 10.5935 3.04414 10.5035C2.95954 10.4311 2.9153 10.3867 2.83716 10.3074L2.83091 10.301C2.70478 10.1729 2.63132 10.0983 2.52429 9.95081C2.39339 9.77038 2.33424 9.65757 2.24258 9.45438C2.11256 9.16615 2.06074 8.99104 2.0091 8.67908C1.96702 8.42488 1.95522 8.2777 1.96988 8.02045C1.98573 7.74251 2.02056 7.58643 2.09946 7.31945C2.14339 7.17081 2.16991 7.08719 2.23388 6.946C2.31235 6.77285 2.48271 6.47675 2.48271 6.47675C2.48271 6.47675 2.63195 6.21928 2.74267 6.06476C2.83295 5.93876 2.89211 5.87399 2.99888 5.76162C3.19064 5.5598 3.30839 5.4516 3.54117 5.2989C3.75662 5.15758 3.88998 5.09421 4.13117 5.00355C4.42716 4.8923 4.60471 4.84961 4.91934 4.8181C5.14114 4.79588 5.26841 4.79071 5.49011 4.81386C5.64872 4.83042 5.74613 4.85264 5.88455 4.88821L5.94669 4.90429L5.95532 4.90653C6.06312 4.93453 6.12368 4.95064 6.22871 4.9877C6.35915 5.03371 6.43149 5.06333 6.55466 5.12627C6.64431 5.17208 6.69074 5.20483 6.77793 5.25517C6.85323 5.29865 6.89051 5.33302 6.97076 5.3665C7.03734 5.39428 7.07727 5.40417 7.14785 5.41913C7.22741 5.436 7.27332 5.44537 7.35463 5.44379C7.42574 5.44241 7.46575 5.43357 7.53472 5.41834L7.53644 5.41795C7.63565 5.39604 7.6902 5.37622 7.78295 5.33475C7.89177 5.28608 8.07766 5.16171 8.07766 5.16171ZM11.7495 2.99442C11.8402 2.98784 12.0264 2.99442 12.0264 2.99442C12.0264 2.99442 12.1686 2.98784 12.2593 2.99442L12.2674 2.995C12.3439 3.00054 12.3898 3.00386 12.4663 3.02304C12.5534 3.04488 12.6012 3.06425 12.6812 3.10507C12.7385 3.13433 12.7693 3.15374 12.8218 3.19101L12.8238 3.19244C12.8791 3.23171 12.9114 3.25461 12.9585 3.30429C12.9959 3.34369 13.0136 3.36898 13.0445 3.41367C13.0969 3.48949 13.1226 3.53551 13.1577 3.6207C13.1935 3.70728 13.2125 3.75823 13.2241 3.85117C13.2334 3.92534 13.2241 3.96782 13.2241 4.04257C13.2241 4.12953 13.2204 4.17836 13.2241 4.26523C13.2309 4.42281 13.2465 4.51225 13.2731 4.66464L13.2749 4.67539C13.3004 4.82161 13.3149 4.90414 13.357 5.04648C13.4051 5.20949 13.4411 5.29881 13.5132 5.45273C13.5962 5.62984 13.6503 5.72687 13.7621 5.88736C13.851 6.01503 13.9072 6.08263 14.0122 6.19748C14.1623 6.36179 14.2552 6.44783 14.4323 6.58263C14.5851 6.69886 14.9453 6.90625 14.9453 6.90625C14.9453 6.90625 15.3052 7.1148 15.4822 7.18895C15.6875 7.27495 15.8084 7.31236 16.0258 7.36025C16.1777 7.39372 16.2644 7.4086 16.4194 7.42178C16.6143 7.43834 16.7254 7.43667 16.9203 7.42C17.0896 7.40551 17.185 7.39198 17.3502 7.35219C17.4945 7.31744 17.5732 7.28875 17.7126 7.23768L17.7228 7.23393C17.8681 7.18072 17.9533 7.14949 18.0932 7.07658C18.1703 7.03639 18.2107 7.00873 18.286 6.96525C18.3508 6.92788 18.3829 6.8986 18.4518 6.86955C18.5381 6.83315 18.5917 6.82416 18.6846 6.81183C18.7759 6.79969 18.8287 6.79895 18.9205 6.80641C18.9747 6.81082 19.0054 6.81346 19.0582 6.82615C19.1248 6.84216 19.1608 6.85863 19.2224 6.88688L19.2247 6.88791C19.2832 6.91472 19.3154 6.93171 19.3694 6.96673C19.4448 7.0156 19.4854 7.04725 19.5479 7.11177C19.6027 7.16845 19.6286 7.20659 19.6716 7.27008L19.6762 7.27676C19.7272 7.35202 19.8146 7.51656 19.8146 7.51656C19.8146 7.51656 19.8914 7.63639 19.9311 7.71823L19.9346 7.72549C19.968 7.79451 19.9881 7.83597 20.0098 7.91183C20.0344 7.99819 20.0415 8.04922 20.0462 8.13891C20.0495 8.20318 20.0481 8.23958 20.0421 8.30366L20.0418 8.30612C20.0355 8.37364 20.0318 8.41301 20.0123 8.4787C19.9969 8.53079 19.9838 8.55873 19.9606 8.60781C19.9211 8.6911 19.8941 8.73638 19.8379 8.80943C19.7808 8.88368 19.7462 8.92564 19.6715 8.98218C19.6119 9.0273 19.5705 9.04051 19.5058 9.07788C19.4304 9.12136 19.3863 9.14253 19.3129 9.18921C19.1799 9.27389 19.1102 9.3321 18.9915 9.43128L18.9831 9.43827C18.8692 9.53342 18.805 9.58726 18.7027 9.69485C18.5857 9.81807 18.5263 9.89387 18.4291 10.0333C18.3172 10.1937 18.2602 10.2891 18.1771 10.4662C18.111 10.607 18.0805 10.6895 18.0336 10.8378C17.9663 11.05 17.9383 11.1734 17.9101 11.3942C17.8858 11.5846 17.8865 11.8851 17.8865 11.8851C17.8865 11.8851 17.886 12.4154 17.9103 12.6058C17.9385 12.8266 17.9665 12.95 18.0338 13.1622C18.0807 13.3105 18.1112 13.393 18.1773 13.5338C18.2604 13.7109 18.3174 13.8063 18.4292 13.9667C18.5265 14.1061 18.5859 14.1819 18.7029 14.3051C18.8052 14.4127 18.8694 14.4666 18.9833 14.5617L18.9917 14.5687C19.1104 14.6679 19.1801 14.7261 19.3131 14.8108C19.3865 14.8575 19.4306 14.8786 19.5059 14.9221C19.5707 14.9595 19.6121 14.9727 19.6717 15.0178C19.7464 15.0744 19.781 15.1163 19.8381 15.1906C19.8943 15.2636 19.9213 15.3089 19.9608 15.3922C19.984 15.4413 19.9971 15.4692 20.0125 15.5213C20.0319 15.587 20.0357 15.6264 20.042 15.6939L20.0423 15.6963C20.0483 15.7604 20.0497 15.7968 20.0464 15.8611C20.0417 15.9508 20.0346 16.0018 20.01 16.0882C19.9883 16.164 19.9682 16.2055 19.9348 16.2745L19.9313 16.2818C19.8916 16.3636 19.8148 16.4834 19.8148 16.4834C19.8148 16.4834 19.7274 16.648 19.6764 16.7232L19.6718 16.7299C19.6288 16.7934 19.6029 16.8315 19.5481 16.8882C19.4856 16.9528 19.445 16.9844 19.3696 17.0333C19.3156 17.0683 19.2834 17.0853 19.2249 17.1121L19.2226 17.1131C19.161 17.1414 19.125 17.1578 19.0584 17.1738C19.0056 17.1865 18.9749 17.1892 18.9207 17.1936C18.8289 17.2011 18.7761 17.2003 18.6848 17.1882C18.5919 17.1758 18.5383 17.1669 18.452 17.1304C18.4073 17.1116 18.3781 17.0927 18.3454 17.0715C18.3277 17.06 18.309 17.0479 18.2862 17.0347C18.2598 17.0195 18.2376 17.0061 18.2166 16.9935C18.178 16.9703 18.1434 16.9495 18.0934 16.9234C17.9623 16.8551 17.8424 16.8099 17.7128 16.7623C17.5734 16.7113 17.4947 16.6826 17.3504 16.6478C17.1852 16.608 17.0898 16.5945 16.9205 16.58C16.7256 16.5633 16.6145 16.5617 16.4196 16.5782C16.2646 16.5914 16.1779 16.6063 16.026 16.6398C15.8086 16.6876 15.6877 16.7251 15.4824 16.811C15.3053 16.8852 15.0454 17.036 15.0454 17.036C15.0454 17.036 14.5851 17.3011 14.4323 17.4174C14.2552 17.5522 14.1623 17.6382 14.0122 17.8025C13.9072 17.9174 13.851 17.985 13.7621 18.1126C13.6503 18.2731 13.5962 18.3702 13.5132 18.5473C13.4411 18.7012 13.4051 18.7905 13.357 18.9535C13.3149 19.0959 13.3004 19.1784 13.2749 19.3246L13.2731 19.3354C13.2465 19.4877 13.2309 19.5772 13.2241 19.7348C13.2204 19.8216 13.2241 19.8705 13.2241 19.9574C13.2241 20.0322 13.2334 20.0747 13.2241 20.1488C13.2125 20.2418 13.1935 20.2927 13.1577 20.3793C13.1226 20.4645 13.0969 20.5105 13.0445 20.5863C13.0136 20.631 12.9959 20.6563 12.9585 20.6957C12.9114 20.7454 12.8791 20.7683 12.8238 20.8076L12.8218 20.809C12.7693 20.8463 12.7385 20.8657 12.6812 20.8949C12.6012 20.9357 12.5534 20.9551 12.4663 20.977C12.3898 20.9961 12.3439 20.9995 12.2674 21.005L12.2593 21.0056C12.1686 21.0122 12.0264 21.0056 12.0264 21.0056C12.0264 21.0056 11.8402 21.0122 11.7495 21.0056L11.7415 21.005C11.665 20.9995 11.619 20.9961 11.5425 20.977C11.4554 20.9551 11.4077 20.9357 11.3277 20.8949C11.2703 20.8657 11.2395 20.8463 11.187 20.809L11.185 20.8076C11.1297 20.7683 11.0975 20.7454 11.0503 20.6957C11.0129 20.6563 10.9953 20.631 10.9644 20.5863C10.912 20.5105 10.8863 20.4645 10.8511 20.3793C10.8154 20.2927 10.7963 20.2418 10.7847 20.1488C10.7754 20.0747 10.7847 20.0322 10.7847 19.9574C10.7847 19.8705 10.7884 19.8216 10.7847 19.7348C10.7779 19.5772 10.7623 19.4877 10.7358 19.3354L10.7339 19.3246C10.7085 19.1784 10.6939 19.0959 10.6519 18.9535C10.6037 18.7905 10.5678 18.7012 10.4956 18.5473C10.4126 18.3702 10.3585 18.2731 10.2467 18.1126C10.1578 17.985 10.1016 17.9174 9.99665 17.8025C9.8465 17.6382 9.75362 17.5522 9.57649 17.4174C9.42377 17.3011 9.1632 17.1515 9.1632 17.1515C9.1632 17.1515 8.70395 16.8858 8.52693 16.8116C8.32163 16.7256 8.20068 16.6882 7.98331 16.6403C7.83137 16.6068 7.74471 16.592 7.58969 16.5788C7.3948 16.5622 7.28372 16.5639 7.08884 16.5806C6.91948 16.5951 6.82415 16.6086 6.6589 16.6484C6.5146 16.6831 6.43586 16.7118 6.2965 16.7629L6.28627 16.7666C6.14102 16.8198 6.05578 16.8511 5.91591 16.924C5.8388 16.9642 5.79838 16.9918 5.72308 17.0353C5.65835 17.0727 5.62619 17.102 5.55732 17.131C5.47102 17.1674 5.41737 17.1764 5.32452 17.1887C5.23316 17.2009 5.18045 17.2016 5.08859 17.1941C5.03445 17.1897 5.00372 17.1871 4.9509 17.1744C4.88428 17.1584 4.84834 17.1419 4.78668 17.1137L4.78443 17.1126C4.72592 17.0858 4.6937 17.0689 4.6397 17.0338C4.56435 16.985 4.5237 16.9533 4.46124 16.8888C4.40636 16.8321 4.38051 16.794 4.33747 16.7305L4.33293 16.7238C4.28189 16.6485 4.2165 16.5221 4.2165 16.5221C4.2165 16.5221 4.11771 16.3642 4.07805 16.2823L4.07453 16.2751C4.04107 16.2061 4.02097 16.1646 3.99932 16.0887C3.97467 16.0024 3.96759 15.9513 3.96294 15.8617C3.95961 15.7974 3.96101 15.761 3.96705 15.6969L3.96728 15.6944C3.97364 15.6269 3.97735 15.5876 3.9968 15.5219C4.01221 15.4698 4.02529 15.4418 4.04855 15.3927C4.08801 15.3095 4.11501 15.2642 4.1712 15.1911C4.22831 15.1169 4.26291 15.0749 4.33759 15.0184C4.39719 14.9733 4.43862 14.9601 4.50335 14.9227C4.57866 14.8792 4.62282 14.858 4.69618 14.8114C4.82925 14.7267 4.89892 14.6685 5.01763 14.5693L5.026 14.5623C5.1399 14.4671 5.20412 14.4133 5.30636 14.3057C5.42345 14.1825 5.48282 14.1067 5.58005 13.9673C5.69194 13.8068 5.74892 13.7115 5.83202 13.5344C5.89812 13.3936 5.92856 13.3111 5.97554 13.1628C6.04276 12.9506 6.07083 12.8271 6.09901 12.6063C6.1233 12.4159 6.12285 11.8846 6.12285 11.8846C6.12285 11.8846 6.1235 11.5841 6.09921 11.3937C6.07103 11.1729 6.04296 11.0494 5.97574 10.8372C5.92876 10.6889 5.89832 10.6064 5.83222 10.4656C5.74912 10.2885 5.69213 10.1932 5.58025 10.0327C5.48302 9.89331 5.42365 9.81751 5.30656 9.69429C5.20432 9.5867 5.1401 9.53286 5.02619 9.4377L5.01783 9.43072C4.89912 9.33154 4.82945 9.27333 4.69638 9.18865C4.62302 9.14197 4.57886 9.1208 4.50355 9.07732C4.43882 9.03994 4.39739 9.02673 4.33779 8.98162C4.26311 8.92508 4.22851 8.88311 4.1714 8.80887C4.11521 8.73582 4.08821 8.69054 4.04875 8.60725C4.02549 8.55816 4.01241 8.53023 3.997 8.47814C3.97755 8.41245 3.97384 8.37308 3.96748 8.30556L3.96725 8.3031C3.96121 8.23902 3.95981 8.20262 3.96314 8.13834C3.96778 8.04866 3.97487 7.99763 3.99952 7.91127C4.02117 7.83541 4.04127 7.79394 4.07473 7.72493L4.07825 7.71766C4.1179 7.63582 4.2167 7.47787 4.2167 7.47787C4.2167 7.47787 4.28208 7.35146 4.33313 7.27619L4.33766 7.26951C4.3807 7.20603 4.40656 7.16789 4.46143 7.11121C4.5239 7.04668 4.56455 7.01503 4.6399 6.96617C4.6939 6.93115 4.72612 6.91416 4.78463 6.88735L4.78688 6.88632C4.84853 6.85807 4.88448 6.8416 4.9511 6.82559C5.00391 6.8129 5.03465 6.81025 5.08879 6.80585C5.18065 6.79838 5.23336 6.79912 5.32472 6.81126C5.41757 6.8236 5.47122 6.83258 5.55752 6.86899C5.62639 6.89804 5.65855 6.92732 5.72328 6.96469C5.79858 7.00817 5.839 7.03583 5.91611 7.07602C6.05597 7.14892 6.14122 7.18016 6.28646 7.23337L6.2967 7.23712C6.43606 7.28819 6.5148 7.31688 6.65909 7.35162C6.82435 7.39142 6.91968 7.40494 7.08904 7.41943C7.28392 7.43611 7.395 7.43778 7.58989 7.42121C7.74491 7.40803 7.83156 7.39315 7.98351 7.35968C8.20088 7.3118 8.32183 7.27438 8.52713 7.18839C8.70415 7.11424 9.11719 6.86719 9.11719 6.86719C9.11719 6.86719 9.42377 6.69886 9.57649 6.58263C9.75362 6.44783 9.8465 6.36179 9.99665 6.19748C10.1016 6.08263 10.1578 6.01503 10.2467 5.88736C10.3585 5.72687 10.4126 5.62984 10.4956 5.45273C10.5678 5.29881 10.6037 5.20949 10.6519 5.04648C10.6939 4.90414 10.7085 4.82161 10.7339 4.67539L10.7358 4.66465C10.7623 4.51225 10.7779 4.42281 10.7847 4.26523C10.7884 4.17836 10.7847 4.12953 10.7847 4.04257C10.7847 3.96782 10.7754 3.92534 10.7847 3.85117C10.7963 3.75823 10.8154 3.70728 10.8511 3.6207C10.8863 3.53551 10.912 3.48949 10.9644 3.41367C10.9953 3.36898 11.0129 3.34369 11.0503 3.30429C11.0975 3.25461 11.1297 3.23171 11.185 3.19244L11.187 3.19101C11.2395 3.15374 11.2703 3.13433 11.3277 3.10507C11.4077 3.06425 11.4554 3.04488 11.5425 3.02304C11.619 3.00386 11.665 3.00054 11.7415 2.995L11.7495 2.99442Z" fill="#B3B4B6"/>
<path fill-rule="evenodd" clip-rule="evenodd" d="M16.0557 12.0005C16.0557 14.2379 14.2418 16.0518 12.0044 16.0518C9.76694 16.0518 7.95312 14.2379 7.95312 12.0005C7.95312 9.76303 9.76694 7.94922 12.0044 7.94922C14.2418 7.94922 16.0557 9.76303 16.0557 12.0005ZM12.0049 14.0254C13.1235 14.0254 14.0303 13.1186 14.0303 12C14.0303 10.8814 13.1235 9.97461 12.0049 9.97461C10.8863 9.97461 9.97949 10.8814 9.97949 12C9.97949 13.1186 10.8863 14.0254 12.0049 14.0254Z" fill="#B3B4B6"/>
</svg>
