<svg width="25" height="24" viewBox="0 0 25 24" fill="none" xmlns="http://www.w3.org/2000/svg">
<path d="M19.6801 9.24788C19.5903 9.19031 19.4875 9.15606 19.3811 9.14822C19.2747 9.14038 19.168 9.1592 19.0708 9.20298L16.3062 10.4858C16.1296 10.8871 15.9282 11.277 15.7032 11.6533C15.5557 11.897 15.4018 12.128 15.2414 12.3589C14.9848 12.7309 14.709 13.0837 14.4268 13.4237V20.3447L11.4377 18.9977V16.278L11.3736 16.3293C11.2074 16.4551 11.0046 16.5227 10.7963 16.5218C10.5882 16.5209 10.3859 16.4534 10.219 16.3293L10.1548 16.278V18.9977L7.17216 20.3447V13.398C6.69847 12.8404 6.26952 12.2463 5.8893 11.6212C5.88586 11.651 5.88586 11.6811 5.8893 11.711V21.3582C5.88948 21.4655 5.91659 21.5711 5.96814 21.6652C6.01969 21.7593 6.09403 21.839 6.18436 21.897C6.2876 21.9637 6.40783 21.9993 6.53073 21.9996C6.62103 22.0012 6.71065 21.9837 6.79372 21.9483L10.7963 20.1394L14.7988 21.9483C14.8415 21.9678 14.8869 21.9808 14.9335 21.9868H15.0682C15.1542 21.9866 15.2393 21.9692 15.3184 21.9355L19.5839 20.0112C19.6979 19.9629 19.7954 19.8828 19.8648 19.7803C19.9343 19.6779 19.9726 19.5576 19.9752 19.4339V9.81235C19.9794 9.70071 19.9544 9.58991 19.9027 9.49091C19.8509 9.3919 19.7742 9.30813 19.6801 9.24788ZM18.6923 18.9977L15.7096 20.3447V12.128L18.6923 10.7809V18.9977Z" fill="#B3B4B6"/>
<path d="M10.4115 15.9832C10.5225 16.0665 10.6575 16.1115 10.7963 16.1115C10.9351 16.1115 11.0702 16.0665 11.1812 15.9832C11.3993 15.8165 16.5692 11.8973 16.5692 7.77289C16.5692 7.01479 16.4199 6.2641 16.1297 5.5637C15.8396 4.8633 15.4144 4.22691 14.8784 3.69084C14.3423 3.15478 13.7059 2.72955 13.0055 2.43943C12.3051 2.14932 11.5544 2 10.7963 2C10.0382 2 9.28754 2.14932 8.58714 2.43943C7.88674 2.72955 7.25034 3.15478 6.71428 3.69084C6.17822 4.22691 5.75299 4.8633 5.46287 5.5637C5.17276 6.2641 5.02344 7.01479 5.02344 7.77289C5.02344 11.8973 10.187 15.8165 10.4115 15.9832ZM7.62124 4.5978C8.24742 3.95867 9.05027 3.52119 9.9268 3.3415C10.8033 3.1618 11.7136 3.24809 12.5407 3.58929C13.3679 3.93049 14.0742 4.51104 14.5691 5.25646C15.064 6.00187 15.3249 6.87816 15.3184 7.77289C15.3184 10.6657 11.9766 13.6933 10.8284 14.6491C9.67382 13.6933 6.33838 10.6657 6.33838 7.77289C6.3313 7.18508 6.44106 6.60171 6.66128 6.05665C6.88151 5.5116 7.20781 5.01572 7.62124 4.5978Z" fill="#B3B4B6"/>
<path d="M10.7962 10.4537C11.0128 10.4556 11.2287 10.4276 11.4376 10.3703C11.9023 10.2503 12.3241 10.0024 12.6549 9.65467C12.9858 9.30696 13.2125 8.87342 13.3092 8.40332C13.406 7.93322 13.369 7.44539 13.2023 6.99529C13.0357 6.54518 12.7462 6.15084 12.3666 5.85707C11.9871 5.56329 11.5327 5.38187 11.0552 5.33342C10.5777 5.28496 10.0962 5.37142 9.66537 5.58296C9.23454 5.7945 8.87169 6.12264 8.61804 6.5301C8.36439 6.93756 8.23011 7.40799 8.23047 7.88795C8.2365 8.2557 8.32153 8.61786 8.47979 8.94987C8.63805 9.28188 8.86584 9.57599 9.14772 9.81225C9.4395 10.0598 9.78393 10.2375 10.1548 10.3318C10.3619 10.4021 10.5778 10.4431 10.7962 10.4537ZM10.7962 6.60509C11.0499 6.60509 11.298 6.68033 11.5089 6.82129C11.7199 6.96225 11.8843 7.16261 11.9814 7.39702C12.0785 7.63144 12.1039 7.88938 12.0544 8.13823C12.0049 8.38708 11.8827 8.61567 11.7033 8.79508C11.5239 8.97449 11.2953 9.09667 11.0465 9.14617C10.7976 9.19567 10.5397 9.17026 10.3053 9.07317C10.0709 8.97607 9.8705 8.81164 9.72954 8.60068C9.58858 8.38971 9.51334 8.14168 9.51334 7.88795C9.51334 7.54772 9.6485 7.22141 9.88908 6.98083C10.1297 6.74025 10.456 6.60509 10.7962 6.60509Z" fill="#B3B4B6"/>
</svg>
