<svg width="25" height="24" viewBox="0 0 25 24" fill="none" xmlns="http://www.w3.org/2000/svg">
<path fill-rule="evenodd" clip-rule="evenodd" d="M2.5 5C2.5 3.34315 3.84315 2 5.5 2H19.5C21.1569 2 22.5 3.34315 22.5 5V19C22.5 20.6569 21.1569 22 19.5 22H5.5C3.84315 22 2.5 20.6569 2.5 19V5ZM20.5 19V16H13.5V20L19.5855 19.9964C20.0977 19.953 20.5 19.5235 20.5 19ZM5.5 20C4.94772 20 4.5 19.5523 4.5 19V16H11.5V20H5.5ZM11.5 10H4.5V14H11.5V10ZM13.5 10H20.5V14H13.5V10ZM5.5 4C4.94772 4 4.5 4.44772 4.5 5V8H11.5V6V4H5.5ZM19.5 4C20.0523 4 20.5 4.44772 20.5 5V8H17H13.5V6V4H19.5Z" fill="#B3B4B6"/>
</svg>
