<svg width="25" height="24" viewBox="0 0 25 24" fill="none" xmlns="http://www.w3.org/2000/svg">
<path fill-rule="evenodd" clip-rule="evenodd" d="M6.08399 10.1818C4.5652 10.1818 3.33398 11.4028 3.33398 12.909V19.2727C3.33398 20.7789 4.5652 22 6.08399 22H18.9174C20.4362 22 21.6674 20.7789 21.6674 19.2727V12.909C21.6674 11.4028 20.4362 10.1818 18.9174 10.1818H18.0006V7.45457C18.0006 6.00793 17.4212 4.62054 16.3897 3.59761C15.3583 2.57468 13.9593 2 12.5006 2C11.0419 2 9.64295 2.57468 8.61149 3.59761C7.58004 4.62054 7.00058 6.00793 7.00058 7.45457V10.1818H6.08399ZM6.08399 11.9999C5.57773 11.9999 5.16732 12.4069 5.16732 12.909V19.2727C5.16732 19.7748 5.57773 20.1818 6.08399 20.1818H18.9174C19.4236 20.1818 19.834 19.7748 19.834 19.2727V12.909C19.834 12.4069 19.4236 11.9999 18.9174 11.9999H6.08399ZM12.5006 3.81818C11.5281 3.81818 10.5955 4.20131 9.90786 4.88326C9.22022 5.5652 8.83391 6.49014 8.83391 7.45457V10.1818H16.1673V7.45457C16.1673 6.49014 15.781 5.5652 15.0933 4.88326C14.4057 4.20131 13.4731 3.81818 12.5006 3.81818Z" fill="#B3B4B6"/>
</svg>
