<svg width="25" height="24" viewBox="0 0 25 24" fill="none" xmlns="http://www.w3.org/2000/svg">
<path fill-rule="evenodd" clip-rule="evenodd" d="M2.5 6.15599C2.5 4.64257 3.66715 3.29883 5.22729 3.29883H19.7728C21.3329 3.29883 22.5001 4.64257 22.5001 6.15599V17.8443C22.5001 19.3578 21.3329 20.7015 19.7728 20.7015H5.22729C3.66715 20.7015 2.5 19.3578 2.5 17.8443V6.15599ZM19.7728 5.11703H5.22729C4.88996 5.11703 4.53536 5.35787 4.38837 5.75406L12.5001 11.8379L20.6117 5.75412C20.4648 5.3579 20.1101 5.11703 19.7728 5.11703ZM5.22729 18.8833C4.78742 18.8833 4.3182 18.4738 4.3182 17.8443V7.97416L11.9547 13.7015C12.2778 13.9439 12.7223 13.9439 13.0455 13.7015L20.6819 7.97425V17.8443C20.6819 18.4738 20.2127 18.8833 19.7728 18.8833H5.22729Z" fill="#B3B4B6"/>
</svg>
