<svg width="24" height="24" viewBox="0 0 24 24" fill="none" xmlns="http://www.w3.org/2000/svg">
<path fill-rule="evenodd" clip-rule="evenodd" d="M15.0846 3.30039C15.0846 2.80333 15.4875 2.40039 15.9846 2.40039H20.7C20.9387 2.40039 21.1676 2.49521 21.3364 2.66399C21.5051 2.83278 21.6 3.0617 21.6 3.30039L21.6 8.01578C21.6 8.51283 21.197 8.91577 20.7 8.91577C20.2029 8.91577 19.8 8.51283 19.8 8.01577L19.8 5.47318L12.3364 12.9368C11.9849 13.2883 11.415 13.2883 11.0636 12.9368C10.7121 12.5853 10.7121 12.0155 11.0636 11.664L18.5272 4.20039H15.9846C15.4875 4.20039 15.0846 3.79745 15.0846 3.30039ZM5.69941 7.80039C4.87099 7.80039 4.19941 8.47197 4.19941 9.3004V18.3004C4.19941 19.1288 4.87099 19.8004 5.69941 19.8004H14.6994C15.5278 19.8004 16.1994 19.1288 16.1994 18.3004V13.8004C16.1994 13.3033 16.6024 12.9004 17.0994 12.9004C17.5965 12.9004 17.9994 13.3033 17.9994 13.8004V18.3004C17.9994 20.1229 16.522 21.6004 14.6994 21.6004H5.69941C3.87688 21.6004 2.39941 20.1229 2.39941 18.3004V9.3004C2.39941 7.47786 3.87687 6.00039 5.69941 6.00039H10.1994C10.6965 6.00039 11.0994 6.40334 11.0994 6.90039C11.0994 7.39745 10.6965 7.80039 10.1994 7.80039H5.69941Z" fill="#B3B4B6"/>
</svg>
