<svg width="25" height="24" viewBox="0 0 25 24" fill="none" xmlns="http://www.w3.org/2000/svg">
<path fill-rule="evenodd" clip-rule="evenodd" d="M3.12502 11.6875C3.12502 6.33724 7.46226 2 12.8125 2C18.1628 2 22.5 6.33724 22.5 11.6875C22.5 17.0377 18.1628 21.3749 12.8125 21.3749C11.244 21.3749 9.76044 21.0015 8.448 20.3382L3.74115 21.9494C3.40467 22.0646 3.03199 21.9795 2.7789 21.7296C2.5258 21.4798 2.43588 21.1082 2.54672 20.7703L4.12103 15.9704C3.48316 14.6781 3.12502 13.2234 3.12502 11.6875ZM12.8125 3.875C8.49779 3.875 5.00002 7.37277 5.00002 11.6875C5.00002 13.0482 5.34709 14.325 5.95681 15.4371C6.0815 15.6646 6.10639 15.9335 6.02555 16.18L4.91506 19.5658L8.22594 18.4324C8.47866 18.3459 8.75629 18.3713 8.98912 18.5022C10.1185 19.1374 11.4217 19.5 12.8125 19.5C17.1272 19.5 20.625 16.0022 20.625 11.6875C20.625 7.37277 17.1272 3.875 12.8125 3.875Z" fill="#B3B4B6"/>
<path d="M11.3281 13.2301V13.0852C11.331 12.588 11.375 12.1917 11.4602 11.8963C11.5483 11.6008 11.6761 11.3622 11.8438 11.1804C12.0114 10.9986 12.2131 10.8338 12.4489 10.6861C12.625 10.5724 12.7827 10.4545 12.9219 10.3324C13.0611 10.2102 13.1719 10.0753 13.2543 9.92756C13.3366 9.77699 13.3778 9.60938 13.3778 9.42472C13.3778 9.22869 13.331 9.05682 13.2372 8.90909C13.1435 8.76136 13.017 8.64773 12.858 8.56818C12.7017 8.48864 12.5284 8.44886 12.3381 8.44886C12.1534 8.44886 11.9787 8.49006 11.8139 8.57244C11.6492 8.65199 11.5142 8.77131 11.4091 8.9304C11.304 9.08665 11.2472 9.28125 11.2386 9.51421H9.5C9.5142 8.94602 9.65057 8.47727 9.90909 8.10796C10.1676 7.7358 10.5099 7.45881 10.9361 7.27699C11.3622 7.09233 11.8324 7 12.3466 7C12.9119 7 13.4119 7.09375 13.8466 7.28125C14.2812 7.46591 14.6222 7.73438 14.8693 8.08665C15.1165 8.43892 15.2401 8.86364 15.2401 9.3608C15.2401 9.69318 15.1847 9.98864 15.0739 10.2472C14.9659 10.5028 14.8139 10.7301 14.6179 10.929C14.4219 11.125 14.1903 11.3026 13.9233 11.4616C13.6989 11.5951 13.5142 11.7343 13.3693 11.8792C13.2273 12.0241 13.1207 12.1917 13.0497 12.3821C12.9815 12.5724 12.946 12.8068 12.9432 13.0852V13.2301H11.3281ZM12.1719 15.9574C11.8878 15.9574 11.6449 15.8579 11.4432 15.6591C11.2443 15.4574 11.1463 15.2159 11.1491 14.9346C11.1463 14.6562 11.2443 14.4176 11.4432 14.2187C11.6449 14.0199 11.8878 13.9204 12.1719 13.9204C12.4418 13.9204 12.679 14.0199 12.8835 14.2187C13.0881 14.4176 13.1918 14.6562 13.1946 14.9346C13.1918 15.1221 13.142 15.294 13.0455 15.4503C12.9517 15.6037 12.8281 15.7272 12.6747 15.821C12.5213 15.9119 12.3537 15.9574 12.1719 15.9574Z" fill="#B3B4B6"/>
</svg>
