<svg width="25" height="24" viewBox="0 0 25 24" fill="none" xmlns="http://www.w3.org/2000/svg">
<path fill-rule="evenodd" clip-rule="evenodd" d="M3.47461 5.33612C3.47461 3.49363 4.92788 2 6.72059 2C8.5133 2 9.96658 3.49363 9.96658 5.33612C9.96658 5.91065 9.82527 6.45126 9.57643 6.92324L6.72059 11.1641L3.86476 6.92324C3.61592 6.45126 3.47461 5.91065 3.47461 5.33612ZM6.72065 3.70312C5.84573 3.70312 5.13647 4.42967 5.13647 5.32591C5.13647 5.51957 5.16959 5.7053 5.23033 5.87749C5.27467 6.00319 5.33374 6.12167 5.40539 6.23075L6.72065 8.20235L8.0359 6.23075C8.20572 5.97224 8.30482 5.66093 8.30482 5.32591C8.30482 4.42967 7.59556 3.70312 6.72065 3.70312Z" fill="#B3B4B6"/>
<path d="M13.5553 7.64751C13.5553 8.12139 13.1712 8.50555 12.6973 8.50555C12.4409 8.50555 12.2108 8.39311 12.0536 8.21486L9.92151 6.05677L12.0128 3.94022C12.1694 3.7333 12.4178 3.59961 12.6973 3.59961C13.1712 3.59961 13.5553 3.98377 13.5553 4.45765C13.5553 4.78709 13.3697 5.07316 13.0973 5.21695H16.679C18.6888 5.21695 20.3181 6.8513 20.3181 8.86738C20.3181 10.8834 18.6888 12.5178 16.679 12.5178L8.729 12.525C7.64641 12.525 6.76881 13.4061 6.76881 14.493C6.76881 15.5799 7.64641 16.461 8.729 16.461L14.2772 16.4382C14.7511 16.4382 15.1353 16.8223 15.1353 17.2962C15.1353 17.7701 14.7511 18.1543 14.2772 18.1543L8.72895 18.1466C6.71912 18.1466 5.08984 16.5109 5.08984 14.4931C5.08984 12.4752 6.71912 10.8395 8.72895 10.8395L16.679 10.8336C17.7616 10.8336 18.6392 9.95328 18.6392 8.86732C18.6392 7.78137 17.7616 6.90104 16.679 6.90104L13.1357 6.90977C13.387 7.05942 13.5553 7.3338 13.5553 7.64751Z" fill="#B3B4B6"/>
<path fill-rule="evenodd" clip-rule="evenodd" d="M15.0342 16.172C15.0342 14.3296 16.4875 12.8359 18.2802 12.8359C20.0729 12.8359 21.5262 14.3296 21.5262 16.172C21.5262 16.7466 21.3849 17.2872 21.136 17.7592L18.2802 22L15.4244 17.7592C15.1755 17.2872 15.0342 16.7466 15.0342 16.172ZM18.2802 14.5391C17.4052 14.5391 16.696 15.2656 16.696 16.1618C16.696 16.3555 16.7291 16.5412 16.7898 16.7134C16.8342 16.8391 16.8932 16.9576 16.9649 17.0667L18.2802 19.0383L19.5954 17.0667C19.7652 16.8082 19.8643 16.4969 19.8643 16.1618C19.8643 15.2656 19.1551 14.5391 18.2802 14.5391Z" fill="#B3B4B6"/>
</svg>
