<svg width="25" height="24" viewBox="0 0 25 24" fill="none" xmlns="http://www.w3.org/2000/svg">
<path fill-rule="evenodd" clip-rule="evenodd" d="M5.22745 9.74902C5.72953 9.74902 6.13654 10.156 6.13654 10.6581V17.9308C6.13654 18.1719 6.23232 18.4032 6.40281 18.5737C6.5733 18.7441 6.80453 18.8399 7.04563 18.8399H17.9548C18.1959 18.8399 18.4271 18.7441 18.5976 18.5737C18.7681 18.4032 18.8639 18.1719 18.8639 17.9308V10.6581C18.8639 10.156 19.2709 9.74902 19.7729 9.74902C20.275 9.74902 20.682 10.156 20.682 10.6581V17.9308C20.682 18.6541 20.3947 19.3478 19.8832 19.8593C19.3718 20.3708 18.6781 20.6581 17.9548 20.6581H7.04563C6.32231 20.6581 5.62862 20.3708 5.11716 19.8593C4.6057 19.3478 4.31836 18.6541 4.31836 17.9308V10.6581C4.31836 10.156 4.72537 9.74902 5.22745 9.74902Z" fill="#B3B4B6"/>
<path d="M13.1434 0.92447C12.7883 0.569448 12.2127 0.569448 11.8577 0.92447L8.22134 4.56083C7.86632 4.91586 7.86632 5.49146 8.22134 5.84648C8.57636 6.2015 9.15197 6.2015 9.50699 5.84648L11.5914 3.76203V13.3855C11.5914 13.8876 11.9985 14.2946 12.5005 14.2946C13.0026 14.2946 13.4096 13.8876 13.4096 13.3855V3.76203L15.4941 5.84648C15.8491 6.2015 16.4247 6.2015 16.7797 5.84648C17.1347 5.49146 17.1347 4.91586 16.7797 4.56083L13.1434 0.92447Z" fill="#B3B4B6"/>
</svg>
