<svg width="25" height="24" viewBox="0 0 25 24" fill="none" xmlns="http://www.w3.org/2000/svg">
<path fill-rule="evenodd" clip-rule="evenodd" d="M12.0932 2.09597C12.3492 1.96801 12.6504 1.96801 12.9064 2.09597L21.9971 6.64134C22.3051 6.79533 22.4996 7.1101 22.4996 7.45444C22.4996 7.79877 22.3051 8.11355 21.9971 8.26754L12.9064 12.8129C12.6504 12.9409 12.3492 12.9409 12.0932 12.8129L3.00252 8.26754C2.69454 8.11355 2.5 7.79877 2.5 7.45444C2.5 7.1101 2.69454 6.79533 3.00252 6.64134L12.0932 2.09597ZM5.44182 7.45444L12.4998 10.9834L19.5578 7.45444L12.4998 3.92545L5.44182 7.45444Z" fill="#B3B4B6"/>
<path fill-rule="evenodd" clip-rule="evenodd" d="M2.59617 11.5925C2.8207 11.1435 3.36676 10.9615 3.81582 11.186L12.5 15.5281L21.1842 11.186C21.6332 10.9615 22.1793 11.1435 22.4038 11.5925C22.6284 12.0416 22.4463 12.5876 21.9973 12.8122L12.9065 17.3575C12.6506 17.4855 12.3494 17.4855 12.0934 17.3575L3.00272 12.8122C2.55366 12.5876 2.37164 12.0416 2.59617 11.5925Z" fill="#B3B4B6"/>
<path fill-rule="evenodd" clip-rule="evenodd" d="M2.59617 16.1385C2.8207 15.6894 3.36676 15.5074 3.81582 15.7319L12.5 20.074L21.1842 15.7319C21.6332 15.5074 22.1793 15.6894 22.4038 16.1385C22.6284 16.5875 22.4463 17.1336 21.9973 17.3581L12.9065 21.9035C12.6506 22.0315 12.3494 22.0315 12.0934 21.9035L3.00272 17.3581C2.55366 17.1336 2.37164 16.5875 2.59617 16.1385Z" fill="#B3B4B6"/>
</svg>
