<svg width="25" height="24" viewBox="0 0 25 24" fill="none" xmlns="http://www.w3.org/2000/svg">
<path fill-rule="evenodd" clip-rule="evenodd" d="M5.11716 2.7988C5.62862 2.28734 6.32232 2 7.04563 2H14.7729C15.0141 2 15.2453 2.09578 15.4158 2.26627L20.4158 7.26626C20.5863 7.43675 20.682 7.66798 20.682 7.90909V19.2727C20.682 19.9961 20.3947 20.6897 19.8832 21.2012C19.3718 21.7127 18.6781 22 17.9548 22H7.04563C6.32231 22 5.62862 21.7127 5.11716 21.2012C4.6057 20.6897 4.31836 19.9961 4.31836 19.2727V4.72727C4.31836 4.00395 4.6057 3.31026 5.11716 2.7988ZM7.04563 3.81818C6.80453 3.81818 6.5733 3.91396 6.40281 4.08445C6.23232 4.25493 6.13654 4.48616 6.13654 4.72727V19.2727C6.13654 19.5138 6.23232 19.7451 6.40281 19.9156C6.5733 20.086 6.80453 20.1818 7.04563 20.1818H17.9548C18.1959 20.1818 18.4271 20.086 18.5976 19.9156C18.7681 19.7451 18.8639 19.5138 18.8639 19.2727V9.27272H14.3184C13.8163 9.27272 13.4093 8.86571 13.4093 8.36363V3.81818H7.04563ZM15.2275 7.45454V4.64928L18.0328 7.45454H15.2275Z" fill="#B3B4B6"/>
<path fill-rule="evenodd" clip-rule="evenodd" d="M7.95508 12.9091C7.95508 12.407 8.3621 12 8.86417 12H16.1369C16.639 12 17.046 12.407 17.046 12.9091C17.046 13.4112 16.639 13.8182 16.1369 13.8182H8.86417C8.3621 13.8182 7.95508 13.4112 7.95508 12.9091Z" fill="#B3B4B6"/>
<path fill-rule="evenodd" clip-rule="evenodd" d="M7.95508 16.5448C7.95508 16.0427 8.3621 15.6357 8.86417 15.6357H16.1369C16.639 15.6357 17.046 16.0427 17.046 16.5448C17.046 17.0468 16.639 17.4539 16.1369 17.4539H8.86417C8.3621 17.4539 7.95508 17.0468 7.95508 16.5448Z" fill="#B3B4B6"/>
<path d="M7.95508 9.27237C7.95508 8.7703 8.3621 8.36328 8.86417 8.36328H10.6824C11.1844 8.36328 11.5914 8.7703 11.5914 9.27237C11.5914 9.77445 11.1844 10.1815 10.6824 10.1815H8.86417C8.3621 10.1815 7.95508 9.77445 7.95508 9.27237Z" fill="#B3B4B6"/>
</svg>
