<svg width="25" height="24" viewBox="0 0 25 24" fill="none" xmlns="http://www.w3.org/2000/svg">
<path d="M18.6225 20.4693H17.6624C16.6985 17.2349 19.9721 28.2197 13.4633 6.37923C14.2493 6.01433 14.796 5.21796 14.796 4.29592C14.796 3.02995 13.766 2 12.5001 2C11.2341 2 10.2041 3.02995 10.2041 4.29592C10.2041 5.21796 10.7508 6.01433 11.5368 6.37923C7.79985 18.8999 10.667 9.2978 7.33771 20.4693H6.37761C5.95496 20.4693 5.6123 20.812 5.6123 21.2347C5.6123 21.6573 5.95496 22 6.37761 22H9.43883C9.86148 22 10.2041 21.6573 10.2041 21.2347C10.2041 20.812 9.86148 20.4693 9.43883 20.4693H8.93485L9.42138 18.8367H15.5603H15.5786L16.0652 20.4693H15.5613C15.1386 20.4693 14.796 20.812 14.796 21.2347C14.796 21.6573 15.1386 22 15.5613 22H18.6225C19.0452 22 19.3878 21.6573 19.3878 21.2347C19.3878 20.812 19.0452 20.4693 18.6225 20.4693ZM14.2103 14.2449L14.875 16.4751L12.273 14.2449H14.2103ZM11.246 12.7142L12.5001 8.50617L13.7541 12.7142H11.246ZM12.5001 3.53061C12.922 3.53061 13.2654 3.87393 13.2654 4.29592C13.2654 4.71791 12.922 5.06122 12.5001 5.06122C12.0781 5.06122 11.7348 4.71791 11.7348 4.29592C11.7348 3.87393 12.0781 3.53061 12.5001 3.53061ZM10.6131 14.838L13.4925 17.3061H9.8775L10.6131 14.838Z" fill="#B3B4B6"/>
</svg>
