<svg width="24" height="24" viewBox="0 0 24 24" fill="none" xmlns="http://www.w3.org/2000/svg">
<path d="M11.6831 10.4005C11.4736 10.4791 11.3601 10.5795 11.2597 10.7759C11.216 10.8632 10.3648 13.4517 9.36522 16.5335C7.98584 20.7851 7.54933 22.1907 7.54933 22.3522C7.54933 22.8411 7.89417 23.1729 8.40053 23.1729C8.91561 23.1729 9.08149 22.9808 9.40014 22.0074L9.63586 21.274L11.993 21.2609L14.3502 21.2522L14.5772 21.9375C14.8522 22.7669 14.9264 22.9066 15.1577 23.055C15.3018 23.1467 15.3891 23.1729 15.5899 23.1729C16.105 23.1729 16.4542 22.8411 16.4542 22.3609C16.4542 22.2125 15.9697 20.6629 14.6383 16.5422C13.6387 13.4561 12.7831 10.8545 12.7351 10.7672C12.5692 10.431 12.0672 10.2564 11.6831 10.4005ZM12.3204 14.962C12.4776 15.4597 12.6216 15.9049 12.6391 15.9442C12.6653 16.0053 12.5998 16.014 12.0018 16.014C11.4867 16.014 11.3426 16.0009 11.3557 15.9573C11.3688 15.9311 11.5129 15.4859 11.6744 14.9751C11.8403 14.4688 11.9843 14.0497 12.0018 14.0497C12.0149 14.0497 12.1589 14.4601 12.3204 14.962ZM13.499 18.6026C13.6605 19.0915 13.7915 19.5061 13.7915 19.5192C13.7915 19.5367 12.9883 19.5498 12.0018 19.5498C11.0196 19.5498 10.2121 19.5367 10.2121 19.5236C10.2121 19.5105 10.343 19.0958 10.5002 18.6069L10.7839 17.7164H11.9974H13.2065L13.499 18.6026Z" fill="#B3B4B6"/>
<path d="M11.7176 5.52071C11.6696 5.52944 11.543 5.56436 11.4339 5.59056C10.718 5.76953 10.1243 6.38064 9.92791 7.14018C9.74894 7.8255 9.96283 8.59813 10.4735 9.11758C10.766 9.41877 11.0454 9.58901 11.4295 9.69378C12.1759 9.89894 12.966 9.68941 13.5117 9.13504C14.6248 8.00447 14.1664 6.11437 12.6605 5.61675C12.416 5.53381 11.8835 5.48143 11.7176 5.52071Z" fill="#B3B4B6"/>
<path d="M15.3846 3.12829C14.9655 3.32909 14.7734 3.80052 14.948 4.21084C14.983 4.29815 15.1357 4.50767 15.2842 4.67791C15.9608 5.468 16.3231 6.29737 16.4016 7.24024C16.502 8.54105 16.1223 9.65852 15.2361 10.6625C14.8433 11.1077 14.7822 11.4788 15.0397 11.8673C15.2536 12.1947 15.7774 12.3213 16.1397 12.1336C16.4366 11.9808 17.1088 11.1339 17.4449 10.4879C18.4096 8.63708 18.3485 6.27118 17.2921 4.51204C16.9822 3.99259 16.4802 3.38583 16.1921 3.18067C16 3.04535 15.6159 3.01916 15.3846 3.12829Z" fill="#B3B4B6"/>
<path d="M17.6106 0.884837C17.3225 1.01579 17.1479 1.30389 17.1435 1.6531C17.1435 1.93683 17.2308 2.10707 17.5538 2.46065C18.4705 3.47336 19.0423 4.51662 19.361 5.76942C19.8019 7.5111 19.6142 9.37938 18.8372 10.9465C18.4792 11.6667 18.1606 12.1338 17.5407 12.8409C17.2788 13.1334 17.1915 13.2643 17.161 13.4171C17.0737 13.8318 17.2395 14.1941 17.5975 14.3731C18.1431 14.6437 18.5316 14.4211 19.3654 13.3516C20.2471 12.2167 20.8801 10.8199 21.1507 9.39684C21.3078 8.57183 21.3428 7.31031 21.2336 6.45474C21.0328 4.83964 20.4392 3.38169 19.457 2.05469C19.0773 1.53961 18.5229 0.959044 18.3439 0.884837C18.1649 0.806265 17.7808 0.81063 17.6106 0.884837Z" fill="#B3B4B6"/>
<path d="M7.91557 3.11072C7.84136 3.14564 7.65802 3.29842 7.51397 3.44683C6.33975 4.68216 5.74173 6.41948 5.89015 8.14371C6.01237 9.52309 6.52746 10.7322 7.4354 11.7493C7.74969 12.1072 7.94176 12.2164 8.24732 12.2164C8.53105 12.2164 8.71875 12.1378 8.88899 11.9414C9.06796 11.7406 9.14217 11.4961 9.10288 11.243C9.07233 11.0378 9.01121 10.9418 8.5747 10.4267C7.5358 9.18698 7.28699 7.41473 7.94176 5.87821C8.10763 5.49408 8.3739 5.07939 8.74058 4.65161C9.10288 4.22819 9.17272 4.00993 9.07669 3.65199C8.94574 3.18929 8.36081 2.91865 7.91557 3.11072Z" fill="#B3B4B6"/>
<path d="M5.65012 0.880356C5.58028 0.915277 5.37075 1.09861 5.19178 1.28631C3.05287 3.52999 2.21476 6.83876 2.98303 9.96856C3.3497 11.4702 4.20963 13.0067 5.30091 14.1198C5.66321 14.4865 5.98187 14.5738 6.34854 14.4035C6.68902 14.2464 6.85053 13.9888 6.85053 13.6091C6.85053 13.321 6.77632 13.19 6.34854 12.7099C4.42788 10.5535 3.88661 7.56773 4.92987 4.87445C5.25726 4.03198 5.77671 3.19824 6.42275 2.49109C6.77632 2.10259 6.85053 1.95854 6.85053 1.65298C6.85053 1.37798 6.73267 1.13353 6.51878 0.967658C6.38783 0.86726 6.30489 0.845435 6.06917 0.836705C5.8902 0.827974 5.72869 0.845435 5.65012 0.880356Z" fill="#B3B4B6"/>
</svg>
