<svg width="24" height="24" viewBox="0 0 24 24" fill="none" xmlns="http://www.w3.org/2000/svg">
<path fill-rule="evenodd" clip-rule="evenodd" d="M23 12C23 18.0751 18.0751 23 12 23C5.92487 23 1 18.0751 1 12C1 5.92487 5.92487 1 12 1C18.0751 1 23 5.92487 23 12ZM11.9995 2.99414C7.02598 2.99414 2.99414 7.02598 2.99414 11.9995C2.99414 14.2682 3.83304 16.3409 5.21756 17.9244L5.33201 17.7578C5.50429 17.5174 5.66408 17.3621 5.84835 17.1831C5.89985 17.1331 5.95327 17.0812 6.0094 17.025C6.86894 16.1655 8.03473 15.6826 9.25031 15.6826H14.7503C15.9659 15.6826 17.1317 16.1655 17.9912 17.025C18.0234 17.0572 18.0549 17.0885 18.0858 17.1192C18.3165 17.3483 18.5135 17.5439 18.7148 17.8359L18.7729 17.9341C20.1625 16.3494 21.0049 14.2728 21.0049 11.9995C21.0049 7.02598 16.973 2.99414 11.9995 2.99414ZM17.338 19.0814C17.2237 18.8772 17.0387 18.6652 16.6949 18.3214C16.1791 17.8057 15.4797 17.516 14.7503 17.516H9.25031C8.52096 17.516 7.82149 17.8057 7.30576 18.3214C6.96193 18.6652 6.77689 18.8772 6.66263 19.0814L6.60651 19.2121C8.10985 20.338 9.9768 21.0049 11.9995 21.0049C14.0301 21.0049 15.9037 20.3328 17.41 19.199L17.338 19.0814Z" fill="#B3B4B6"/>
<path fill-rule="evenodd" clip-rule="evenodd" d="M12.0003 4.68262C9.46902 4.68262 7.41699 6.73465 7.41699 9.26596C7.41699 11.7973 9.46902 13.8493 12.0003 13.8493C14.5316 13.8493 16.5837 11.7973 16.5837 9.26596C16.5837 6.73465 14.5316 4.68262 12.0003 4.68262ZM12.0003 6.51595C10.4815 6.51595 9.25033 7.74717 9.25033 9.26596C9.25033 10.7847 10.4815 12.016 12.0003 12.016C13.5191 12.016 14.7503 10.7847 14.7503 9.26596C14.7503 7.74717 13.5191 6.51595 12.0003 6.51595Z" fill="#B3B4B6"/>
</svg>
