<svg width="25" height="24" viewBox="0 0 25 24" fill="none" xmlns="http://www.w3.org/2000/svg">
<path fill-rule="evenodd" clip-rule="evenodd" d="M6.3369 15.5581C7.21215 14.6203 8.41366 14.0801 9.68138 14.0801H15.319C16.5867 14.0801 17.7882 14.6203 18.6634 15.5581C19.5366 16.4936 20.0169 17.7495 20.0169 19.0466V21.06C20.0169 21.5789 19.5963 21.9996 19.0773 21.9996C18.5584 21.9996 18.1377 21.5789 18.1377 21.06V19.0466C18.1377 18.2077 17.8261 17.415 17.2896 16.8403C16.7552 16.2677 16.0448 15.9593 15.319 15.9593H9.68138C8.95553 15.9593 8.24512 16.2677 7.7107 16.8403C7.17423 17.415 6.86259 18.2077 6.86259 19.0466V21.06C6.86259 21.5789 6.44192 21.9996 5.92299 21.9996C5.40407 21.9996 4.9834 21.5789 4.9834 21.06V19.0466C4.9834 17.7495 5.4637 16.4936 6.3369 15.5581Z" fill="#B3B4B6"/>
<path fill-rule="evenodd" clip-rule="evenodd" d="M12.4997 3.87919C11.003 3.87919 9.68095 5.19929 9.68095 6.96643C9.68095 8.73358 11.003 10.0537 12.4997 10.0537C13.9965 10.0537 15.3186 8.73358 15.3186 6.96643C15.3186 5.19929 13.9965 3.87919 12.4997 3.87919ZM7.80176 6.96643C7.80176 4.28566 9.84511 2 12.4997 2C15.1544 2 17.1977 4.28566 17.1977 6.96643C17.1977 9.64721 15.1544 11.9328 12.4997 11.9328C9.84511 11.9328 7.80176 9.64721 7.80176 6.96643Z" fill="#B3B4B6"/>
</svg>
