<svg width="25" height="24" viewBox="0 0 25 24" fill="none" xmlns="http://www.w3.org/2000/svg">
<path fill-rule="evenodd" clip-rule="evenodd" d="M15.5 14C15.5 13.4477 15.9477 13 16.5 13H21.5C22.0523 13 22.5 13.4477 22.5 14V21C22.5 21.5523 22.0523 22 21.5 22H16.5C15.9477 22 15.5 21.5523 15.5 21V14ZM17.5 15V20H20.5V15H17.5Z" fill="#B3B4B6"/>
<path fill-rule="evenodd" clip-rule="evenodd" d="M2.5 3C2.5 2.44771 2.94771 2 3.5 2H21.5C22.0523 2 22.5 2.44771 22.5 3V10C22.5 10.5523 22.0523 11 21.5 11H3.5C2.94771 11 2.5 10.5523 2.5 10V3ZM4.5 4V9H20.5V4H4.5Z" fill="#B3B4B6"/>
<path fill-rule="evenodd" clip-rule="evenodd" d="M2.5 14C2.5 13.4477 2.94771 13 3.5 13H12.5C13.0523 13 13.5 13.4477 13.5 14V21C13.5 21.5523 13.0523 22 12.5 22H3.5C2.94771 22 2.5 21.5523 2.5 21V14ZM4.5 15V20H11.5V15H4.5Z" fill="#B3B4B6"/>
</svg>
