<svg width="18" height="40" viewBox="0 0 18 40" fill="none" xmlns="http://www.w3.org/2000/svg">
<g opacity="0.15" filter="url(#filter0_f_144_8128)">
<path fill-rule="evenodd" clip-rule="evenodd" d="M3.64014 19.3467L15.1507 19.3161L12.5395 36.3231L6.34151 36.3396L3.64014 19.3467Z" fill="url(#paint0_linear_144_8128)"/>
</g>
<rect x="13.7612" y="15.9541" width="7.29361" height="8.52246" transform="rotate(88.9036 13.7612 15.9541)" fill="#6200DF"/>
<path d="M4.39487 2.45949C4.41761 2.22278 4.43733 2.03316 4.45243 1.8939C4.4865 1.87975 4.52392 1.86448 4.56458 1.84823C4.80531 1.752 5.1587 1.6218 5.6017 1.48953C6.48924 1.22453 7.72777 0.953843 9.13577 0.926897C10.5446 0.899936 11.8345 1.12249 12.7752 1.35367C13.2445 1.469 13.624 1.58579 13.8846 1.6731C13.9345 1.68979 13.9799 1.7054 14.0208 1.7197C14.0431 1.85728 14.0725 2.04417 14.1071 2.27729C14.1886 2.82686 14.2989 3.63324 14.4135 4.65613C14.6427 6.70219 14.8886 9.61305 14.9547 13.0667C15.0208 16.5206 14.8885 19.5455 14.7396 21.7064C14.6726 22.6788 14.6023 23.4758 14.5454 24.0576L11.1892 20.361L11.0365 20.1929L10.8095 20.1972L8.43632 20.2426L8.21194 20.2469L8.06601 20.4174L4.79164 24.2433C4.71942 23.6643 4.62766 22.8727 4.53254 21.9074C4.32029 19.7535 4.09151 16.7364 4.02547 13.2856C3.95943 9.83496 4.07455 6.91317 4.20605 4.85526C4.27179 3.82643 4.34161 3.01387 4.39487 2.45949Z" fill="url(#paint1_radial_144_8128)" stroke="white"/>
<mask id="mask0_144_8128" style="mask-type:luminance" maskUnits="userSpaceOnUse" x="3" y="0" width="13" height="26">
<path d="M4.39487 2.45949C4.41761 2.22278 4.43733 2.03316 4.45243 1.8939C4.4865 1.87975 4.52392 1.86448 4.56458 1.84823C4.80531 1.752 5.1587 1.6218 5.6017 1.48953C6.48924 1.22453 7.72777 0.953843 9.13577 0.926897C10.5446 0.899936 11.8345 1.12249 12.7752 1.35367C13.2445 1.469 13.624 1.58579 13.8846 1.6731C13.9345 1.68979 13.9799 1.7054 14.0208 1.7197C14.0431 1.85728 14.0725 2.04417 14.1071 2.27729C14.1886 2.82686 14.2989 3.63324 14.4135 4.65613C14.6427 6.70219 14.8886 9.61305 14.9547 13.0667C15.0208 16.5206 14.8885 19.5455 14.7396 21.7064C14.6726 22.6788 14.6023 23.4758 14.5454 24.0576L11.1892 20.361L11.0365 20.1929L10.8095 20.1972L8.43632 20.2426L8.21194 20.2469L8.06601 20.4174L4.79164 24.2433C4.71942 23.6643 4.62766 22.8727 4.53254 21.9074C4.32029 19.7535 4.09151 16.7364 4.02547 13.2856C3.95943 9.83496 4.07455 6.91317 4.20605 4.85526C4.27179 3.82643 4.34161 3.01387 4.39487 2.45949Z" fill="white" stroke="white"/>
</mask>
<g mask="url(#mask0_144_8128)">
<path fill-rule="evenodd" clip-rule="evenodd" d="M16.0434 8.15128L13.557 8.19887L11.8409 9.64873L11.9917 18.0535L16.294 21.763L17.5926 14.5909L16.0434 8.15128ZM2.71818 8.25868L5.20455 8.2111L6.97495 9.59424L7.02549 18.261L2.86836 22.1325L1.29623 15.0153L2.71818 8.25868ZM6.74984 3.8664L2.45526 0.554988C2.45526 0.554988 7.37406 -0.111654 9.19113 -0.146429C11.0082 -0.181203 16.0371 0.295065 16.0371 0.295065L11.7184 3.77132L6.74984 3.8664Z" fill="#6200DF"/>
</g>
<path d="M4.64372 2.4834C4.6591 2.32331 4.67309 2.18494 4.68517 2.06931C4.91904 1.97666 5.25517 1.8539 5.67322 1.72908C6.54536 1.46868 7.76089 1.20325 9.14055 1.17685C10.5214 1.15042 11.7889 1.36871 12.7155 1.59645C13.1727 1.70881 13.5428 1.82245 13.7977 1.90762C13.8156 2.0213 13.8365 2.15707 13.8598 2.31398C13.9409 2.86084 14.0508 3.66426 14.1651 4.68396C14.3936 6.72377 14.6388 9.62683 14.7048 13.0715C14.7707 16.5165 14.6387 19.5339 14.4902 21.6893C14.443 22.3751 14.3941 22.9733 14.3494 23.4699L11.3743 20.193L11.1453 19.9407L10.8047 19.9472L8.43153 19.9927L8.09497 19.9991L7.87608 20.2549L4.9715 23.6486C4.91358 23.1556 4.8483 22.5625 4.78133 21.8829C4.56958 19.734 4.34131 16.7236 4.27542 13.2808C4.20954 9.83827 4.3244 6.9235 4.45554 4.87121C4.5211 3.84525 4.5907 3.03535 4.64372 2.4834ZM14.1839 2.04631C14.1841 2.04638 14.1841 2.04639 14.184 2.04634L14.1839 2.04631Z" stroke="white" stroke-width="1.5"/>
<mask id="mask1_144_8128" style="mask-type:luminance" maskUnits="userSpaceOnUse" x="3" y="0" width="13" height="26">
<path d="M4.64372 2.4834C4.6591 2.32331 4.67309 2.18494 4.68517 2.06931C4.91904 1.97666 5.25517 1.8539 5.67322 1.72908C6.54536 1.46868 7.76089 1.20325 9.14055 1.17685C10.5214 1.15042 11.7889 1.36871 12.7155 1.59645C13.1727 1.70881 13.5428 1.82245 13.7977 1.90762C13.8156 2.0213 13.8365 2.15707 13.8598 2.31398C13.9409 2.86084 14.0508 3.66426 14.1651 4.68396C14.3936 6.72377 14.6388 9.62683 14.7048 13.0715C14.7707 16.5165 14.6387 19.5339 14.4902 21.6893C14.443 22.3751 14.3941 22.9733 14.3494 23.4699L11.3743 20.193L11.1453 19.9407L10.8047 19.9472L8.43153 19.9927L8.09497 19.9991L7.87608 20.2549L4.9715 23.6486C4.91358 23.1556 4.8483 22.5625 4.78133 21.8829C4.56958 19.734 4.34131 16.7236 4.27542 13.2808C4.20954 9.83827 4.3244 6.9235 4.45554 4.87121C4.5211 3.84525 4.5907 3.03535 4.64372 2.4834ZM14.1839 2.04631C14.1841 2.04638 14.1841 2.04639 14.184 2.04634L14.1839 2.04631Z" fill="white" stroke="white" stroke-width="1.5"/>
</mask>
<g mask="url(#mask1_144_8128)">
</g>
<defs>
<filter id="filter0_f_144_8128" x="0.921855" y="16.5981" width="16.9471" height="22.46" filterUnits="userSpaceOnUse" color-interpolation-filters="sRGB">
<feFlood flood-opacity="0" result="BackgroundImageFix"/>
<feBlend mode="normal" in="SourceGraphic" in2="BackgroundImageFix" result="shape"/>
<feGaussianBlur stdDeviation="1.35914" result="effect1_foregroundBlur_144_8128"/>
</filter>
<linearGradient id="paint0_linear_144_8128" x1="3.64014" y1="19.3467" x2="3.68524" y2="36.3466" gradientUnits="userSpaceOnUse">
<stop stop-color="#103B5F"/>
<stop offset="1" stop-color="#2841A1" stop-opacity="0.01"/>
</linearGradient>
<radialGradient id="paint1_radial_144_8128" cx="0" cy="0" r="1" gradientUnits="userSpaceOnUse" gradientTransform="translate(10.5769 12.8497) rotate(178.904) scale(11.9314 42.6039)">
<stop stop-color="#EBEBEB"/>
<stop offset="1" stop-color="#D2D2D2"/>
</radialGradient>
</defs>
</svg>
