<svg width="29" height="45" viewBox="0 0 47 72" fill="none" xmlns="http://www.w3.org/2000/svg">
  <rect x="0.338257" y="0.182251" width="45.7258" height="45.7258" rx="7.62097" fill="#2169CB"/>
  <path fill-rule="evenodd" clip-rule="evenodd" d="M38.4238 30.0109C37.9828 30.1472 37.5739 30.2434 37.1809 30.3316L36.4192 32.4645C37.0607 32.3683 37.7262 32.232 38.4238 32.0155C39.1776 31.783 39.2177 31.791 40.3483 31.39V29.3934C39.1936 29.7783 39.1776 29.7783 38.4238 30.0109Z" fill="white"/>
  <path fill-rule="evenodd" clip-rule="evenodd" d="M32.2834 22.3536L28.1939 13.3087C27.7529 12.3304 26.7746 11.697 25.7002 11.697H24.4653L22.4767 9.70837H17.6656L15.677 11.697H6.06274V15.2973H8.05134V22.3536H6.06274V31.1901C7.33769 30.725 8.50038 30.3 9.73524 29.8991C13.5761 28.6883 16.9118 28.8326 20.7848 29.7708C23.6955 30.4604 26.5421 31.6792 29.4929 32.2565L29.7736 32.3127C30.2547 32.4009 30.7358 32.473 31.2249 32.5131C31.3532 32.5211 31.4815 32.5372 31.6098 32.5452C32.4438 32.6013 33.2456 32.6414 34.0555 32.6254L37.8964 22.3616H32.2914L32.2834 22.3536ZM17.9542 22.3536H10.0399V15.2973H17.9623V22.3536H17.9542ZM19.9428 22.3536V15.2973H26.9831L30.1184 22.3536H19.9428Z" fill="white"/>
  <path fill-rule="evenodd" clip-rule="evenodd" d="M38.056 34.1586C38.8097 33.9341 38.8258 33.9341 39.9804 33.5412V35.5378C38.8578 35.9387 38.8097 35.9307 38.056 36.1632C36.8211 36.5401 35.7065 36.7005 34.616 36.7486C33.6137 36.7967 32.6274 36.7486 31.601 36.6764C31.4727 36.6684 31.3445 36.6604 31.2162 36.6443C30.727 36.5962 30.2459 36.5321 29.7648 36.4439L29.4841 36.3877C26.5333 35.8104 23.6787 34.5996 20.776 33.902C16.903 32.9638 13.5673 32.8195 9.72645 34.0303C8.49159 34.4312 7.3289 34.8562 6.05396 35.3213V33.3247C7.3289 32.8596 8.49159 32.4186 9.72645 32.0176C12.5329 31.1276 15.1149 30.9752 17.8011 31.328C18.7714 31.4563 19.7577 31.6408 20.776 31.8893C23.9273 32.6351 27.0144 34.0062 30.2459 34.5034L30.5266 34.5435C30.8794 34.5916 31.2402 34.6317 31.601 34.6557C31.7454 34.6638 31.8897 34.6718 32.026 34.6798C34.1028 34.8081 35.6825 34.8562 38.056 34.1345" fill="white"/>
  <path d="M41.1473 45.4164H5.7467C5.7467 45.4164 15.2865 47.3667 18.7833 50.9805C21.4354 53.7213 22.5231 57.023 22.8938 58.4583C23.0014 58.875 23.3722 59.1833 23.8026 59.1833C24.2485 59.1833 24.6296 58.852 24.7313 58.4179C25.0624 57.0042 26.0673 53.8641 28.8576 50.9805C32.6027 47.1101 41.1473 45.4164 41.1473 45.4164Z" fill="#2169CB"/>
  <circle cx="23.2012" cy="66.2448" r="3" fill="#2169CB"/>
  <circle cx="23.2012" cy="66.2448" r="4" stroke="#2169CB" stroke-opacity="0.3" stroke-width="2"/>
</svg>
