<svg id="transport" xmlns="http://www.w3.org/2000/svg"
     viewBox="0 0 25 25">
    <defs>
        <style>.cls-1{fill:#012a67;}.cls-2{fill:#163567;}</style>
    </defs>
    <path class="cls-1" d="M12.5,21.92a.14.14,0,0,1-.1-.05,16.1,16.1,0,0,0-1.29-1.18l-.17-.09c-2.25-1.08-3.71-2.09-4.33-3L6.2,18a.13.13,0,0,1-.12,0,.14.14,0,0,1-.1-.07,4.45,4.45,0,0,1,0-4.78.13.13,0,0,1,.14-.06.15.15,0,0,1,.12.1A6.79,6.79,0,0,0,8.4,16.46a.13.13,0,0,1,0,.13.16.16,0,0,1-.1.11l-.61.22a3.42,3.42,0,0,0,2.34,1.26c.79,0,1.3-.55,1.47-1.58a38.86,38.86,0,0,0,0-7.41L8.39,8.92a.85.85,0,1,1-.73-1.3A.83.83,0,0,1,8.39,8l3.12-.21V6.42a1.82,1.82,0,1,1,2,0v1.4L16.61,8a.83.83,0,0,1,.73-.41.85.85,0,0,1,.85.85.85.85,0,0,1-1.58.45l-3.17.27a38.86,38.86,0,0,0,0,7.41c.17,1,.68,1.58,1.47,1.58a3.42,3.42,0,0,0,2.34-1.26l-.61-.22a.16.16,0,0,1-.1-.11.13.13,0,0,1,.05-.13,6.79,6.79,0,0,0,2.15-3.29.15.15,0,0,1,.12-.1.13.13,0,0,1,.14.06,4.45,4.45,0,0,1,0,4.78.14.14,0,0,1-.1.07.13.13,0,0,1-.12,0l-.41-.34c-.62.9-2.08,1.91-4.33,3l-.17.09a16.1,16.1,0,0,0-1.29,1.18A.14.14,0,0,1,12.5,21.92ZM6.64,17.25h0a.14.14,0,0,1,.11.07c.36.61,1.41,1.63,4.3,3l.18.09a14.29,14.29,0,0,1,1.25,1.14,14.29,14.29,0,0,1,1.25-1.14l.18-.09c2.89-1.39,3.94-2.41,4.3-3a.14.14,0,0,1,.11-.07.11.11,0,0,1,.11,0l.4.33a4.16,4.16,0,0,0,.09-4,7.07,7.07,0,0,1-2,2.94l.57.2a.13.13,0,0,1,.09.1.11.11,0,0,1,0,.12,3.68,3.68,0,0,1-2.69,1.54c-.54,0-1.5-.24-1.76-1.83a40.59,40.59,0,0,1,0-7.59.15.15,0,0,1,.14-.13l3.38-.3a.16.16,0,0,1,.15.09.56.56,0,0,0,.51.33.57.57,0,0,0,.56-.57.56.56,0,0,0-1.07-.23.18.18,0,0,1-.15.08L13.34,8.1A.14.14,0,0,1,13.2,8V6.34a.14.14,0,0,1,.07-.12,1.53,1.53,0,1,0-1.54,0,.14.14,0,0,1,.07.12V8a.14.14,0,0,1-.14.14l-3.34.22a.18.18,0,0,1-.15-.08.56.56,0,0,0-1.07.23A.57.57,0,0,0,7.66,9a.56.56,0,0,0,.51-.33.16.16,0,0,1,.15-.09l3.38.3a.15.15,0,0,1,.14.13,40.59,40.59,0,0,1,0,7.59c-.26,1.59-1.22,1.83-1.76,1.83a3.68,3.68,0,0,1-2.69-1.54.11.11,0,0,1,0-.12.13.13,0,0,1,.09-.1l.57-.2a7.07,7.07,0,0,1-2-2.94,4.16,4.16,0,0,0,.09,4l.4-.33A.14.14,0,0,1,6.64,17.25Z"/>
    <path class="cls-2" d="M12.5,22a.27.27,0,0,1-.19-.08,17,17,0,0,0-1.26-1.16L11,20.75l-.07,0a12.25,12.25,0,0,1-4.3-2.93l-.31.26a.27.27,0,0,1-.23.05A.23.23,0,0,1,5.87,18a4.54,4.54,0,0,1,0-4.89.29.29,0,0,1,.27-.13.28.28,0,0,1,.22.2,6.6,6.6,0,0,0,2.11,3.22.26.26,0,0,1,.09.26.28.28,0,0,1-.18.2L8,17a3.15,3.15,0,0,0,2.12,1.08c.73,0,1.19-.5,1.35-1.47a37,37,0,0,0,0-7.27l-3-.26a1,1,0,0,1-.79.4A1,1,0,1,1,8.45,7.9l2.93-.2V6.49a1.95,1.95,0,1,1,2.23,0V7.7l2.94.2a1,1,0,1,1,0,1.15l-3,.26a37,37,0,0,0,0,7.27c.16,1,.62,1.47,1.35,1.47A3.15,3.15,0,0,0,17,17l-.43-.15a.28.28,0,0,1-.18-.2.25.25,0,0,1,.08-.25,6.62,6.62,0,0,0,2.12-3.23.28.28,0,0,1,.22-.2.28.28,0,0,1,.27.13,4.56,4.56,0,0,1,0,4.9.24.24,0,0,1-.18.13.26.26,0,0,1-.23-.05l-.31-.26a12.25,12.25,0,0,1-4.3,2.93l-.06,0-.1,0c-.11.07-.74.66-1.26,1.17A.27.27,0,0,1,12.5,22ZM6.63,17.42l.08.12c.61.88,2.06,1.88,4.29,2.95l.07,0,.1,0a16.67,16.67,0,0,1,1.32,1.21h0a17.27,17.27,0,0,1,1.32-1.21l.11-.06.06,0c2.23-1.07,3.68-2.07,4.29-2.95l.08-.12.51.44a4.29,4.29,0,0,0,0-4.66h0a6.83,6.83,0,0,1-2.19,3.34v0l.78.28-.11.14a3.54,3.54,0,0,1-2.44,1.3c-.85,0-1.42-.6-1.59-1.68a38.42,38.42,0,0,1,0-7.44v-.1l3.35-.29,0,.07a.72.72,0,0,0,.62.34.73.73,0,1,0-.62-1.11l0,.06H16.6l-3.24-.21V6.35l.06,0a1.69,1.69,0,1,0-1.84,0l.05,0V7.94l-3.31.21,0-.06a.73.73,0,1,0,0,.77l0-.07,3.35.29v.1a37.57,37.57,0,0,1,0,7.44c-.22,1.39-1,1.68-1.59,1.68A3.54,3.54,0,0,1,7.64,17l-.11-.14.78-.28v0a6.83,6.83,0,0,1-2.19-3.34h0a4.33,4.33,0,0,0,0,4.65Zm5.87,4.32-.09-.08a13.45,13.45,0,0,0-1.22-1.12L11,20.46C8.1,19.05,7,18,6.66,17.38l0-.13v.12h0l-.52.43L6,17.67A4.28,4.28,0,0,1,6,13.51l.14-.25.09.27a7.07,7.07,0,0,0,1.93,2.89l.15.14-.76.27-.11.1.1-.07a3.53,3.53,0,0,0,2.59,1.48c.5,0,1.39-.22,1.63-1.72a38.52,38.52,0,0,0,0-7.56l-3.4-.31a.74.74,0,0,1-.65.41.69.69,0,1,1,.63-1L11.66,8V6.34a1.7,1.7,0,0,1-.82-1.44,1.65,1.65,0,1,1,2.49,1.42V8l3.36.24a.73.73,0,0,1,.65-.42.69.69,0,1,1-.63,1L13.31,9a36.64,36.64,0,0,0,0,7.58c.24,1.5,1.13,1.72,1.63,1.72a3.53,3.53,0,0,0,2.59-1.48h0v0l-.76-.27.14-.14a7,7,0,0,0,1.94-2.89l.09-.27.14.25A4.28,4.28,0,0,1,19,17.67l-.07.14-.52-.43C18,18,16.9,19.05,14,20.46l-.18.08a13.25,13.25,0,0,0-1.22,1.12ZM6.64,17.12h0a.3.3,0,0,1,.2.13c.36.6,1.39,1.6,4.25,3l.19.09a12.28,12.28,0,0,1,1.19,1.07,11.2,11.2,0,0,1,1.19-1.07l.19-.09c2.86-1.38,3.89-2.38,4.25-3a.26.26,0,0,1,.4-.07l.27.23A4,4,0,0,0,19,13.89a7.3,7.3,0,0,1-1.76,2.57l.39.13a.29.29,0,0,1,.16.18.23.23,0,0,1,0,.23,3.84,3.84,0,0,1-2.8,1.59c-.58,0-1.61-.25-1.88-1.93A39.27,39.27,0,0,1,13,9a.26.26,0,0,1,.24-.24l3.39-.29a.27.27,0,0,1,.27.16.43.43,0,0,0,.4.25.44.44,0,1,0,0-.88.43.43,0,0,0-.4.26.26.26,0,0,1-.26.15l-3.35-.21A.27.27,0,0,1,13.08,8V6.34a.28.28,0,0,1,.13-.23,1.4,1.4,0,1,0-1.42,0,.28.28,0,0,1,.13.23V8a.27.27,0,0,1-.25.27l-3.35.21a.26.26,0,0,1-.26-.15A.44.44,0,0,0,7.66,8a.44.44,0,1,0,.4.63.29.29,0,0,1,.27-.16l3.39.29A.26.26,0,0,1,12,9a39.27,39.27,0,0,1,0,7.63c-.27,1.68-1.3,1.93-1.88,1.93A3.86,3.86,0,0,1,7.28,17a.26.26,0,0,1,0-.24.28.28,0,0,1,.17-.18l.38-.13A7.3,7.3,0,0,1,6,13.89a4,4,0,0,0,.16,3.52l.27-.23A.27.27,0,0,1,6.64,17.12Z"/>
</svg>