<svg width="22" height="17" viewBox="0 0 22 17" xmlns="http://www.w3.org/2000/svg">
<path fill-rule="evenodd" clip-rule="evenodd" d="M1.25979 7.89846L14.5694 0.469852C14.8071 0.337166 15.1073 0.418633 15.2454 0.653295L18.0705 5.45605C18.2155 5.70253 18.1251 6.02024 17.872 6.1534L5.94853 12.429C5.76588 12.5251 5.54305 12.4993 5.38705 12.3642L1.17582 8.71454C0.913318 8.487 0.9564 8.06779 1.25979 7.89846ZM6.46434 9.65264C7.20214 9.65264 7.80025 9.05453 7.80025 8.31673C7.80025 7.57893 7.20214 6.98082 6.46434 6.98082C5.72654 6.98082 5.12843 7.57893 5.12843 8.31673C5.12843 9.05453 5.72654 9.65264 6.46434 9.65264Z" />
<path stroke='black' fill='none' d="M1.04297 10.4277L2.81799 11.8477" stroke-width="1.2" stroke-linecap="round"/>
<path stroke='black' fill='none' d="M11.1562 11.252V11.5859C11.1562 13.7994 12.9506 15.5936 15.164 15.5936H16.8339" stroke-width="1.2" stroke-linecap="round"/>
<path d="M17.8359 8.24609V14.2577" stroke="black" stroke-width="1.33333"/>
<path d="M20.9971 8.4541L17.7909 11.7332" stroke="black" stroke-width="1.33333"/>
<path d="M20.9033 13.9521L17.6971 11.2196" stroke="black" stroke-width="1.33333"/>
</svg>
