<svg width="24" height="24" viewBox="0 0 24 24" xmlns="http://www.w3.org/2000/svg">
<path d="M22.3381 10.9899L4.41289 4.36094C4.18299 4.2861 3.93339 4.30016 3.71335 4.40034C3.49331 4.50052 3.31882 4.67954 3.22432 4.90208L1.51394 9.5404C1.43691 9.77274 1.45093 10.0257 1.55316 10.2481C1.6554 10.4705 1.83824 10.6458 2.06474 10.7386L2.35463 10.8449L2.03575 11.7146C1.9647 11.9043 1.93185 12.1061 1.93909 12.3085C1.94633 12.5109 1.99351 12.7099 2.07793 12.894C2.16235 13.0781 2.28233 13.2437 2.43098 13.3813C2.57963 13.5188 2.75401 13.6256 2.94408 13.6956L8.39411 15.7248L3.20499 19.6867H4.17131L9.00289 15.9374L10.3461 16.4399L6.20057 19.6867H7.16689L11.0322 16.6815L16.7721 18.817C17.1049 18.9368 17.4687 18.9388 17.8028 18.8227C18.1369 18.7067 18.4212 18.4795 18.6081 18.1793L18.927 18.2952C19.0429 18.3478 19.1686 18.3753 19.2959 18.3761C19.4232 18.377 19.5492 18.351 19.6659 18.3C19.7825 18.249 19.8871 18.174 19.9729 18.08C20.0587 17.9859 20.1237 17.8749 20.1638 17.7541L21.0239 15.4349C21.0981 15.2038 21.0827 14.9533 20.9806 14.7331C20.8786 14.5128 20.6974 14.3391 20.4731 14.2464L20.1832 14.1401L20.4634 13.396L21.9322 12.7099C21.9701 12.6955 22.0039 12.6722 22.0309 12.6419C22.0578 12.6116 22.077 12.5753 22.0868 12.536L22.5217 11.3764C22.5444 11.3007 22.5382 11.2192 22.5043 11.1478C22.4704 11.0763 22.4111 11.0201 22.3381 10.9899ZM18.2215 17.7541C18.1288 17.9784 17.9551 18.1596 17.7348 18.2616C17.5146 18.3637 17.2641 18.3791 17.033 18.3049L3.13735 13.1158C2.92303 13.02 2.7509 12.8495 2.6531 12.6361C2.55529 12.4227 2.53851 12.181 2.60587 11.9562L2.93442 11.0865L16.5112 16.121C16.7052 16.1908 16.9112 16.2212 17.117 16.2102C17.3229 16.1992 17.5245 16.1472 17.71 16.0572C17.8955 15.9671 18.0611 15.8409 18.1971 15.6859C18.333 15.5309 18.4366 15.3503 18.5018 15.1547L18.8786 14.1207L19.671 13.7535L18.2215 17.7541ZM20.2605 14.8551C20.2993 14.868 20.3351 14.8887 20.3656 14.916C20.3961 14.9432 20.4208 14.9764 20.438 15.0135C20.4552 15.0506 20.4646 15.0909 20.4656 15.1318C20.4667 15.1727 20.4594 15.2134 20.4441 15.2513L19.5647 17.5608C19.5364 17.6376 19.4788 17.7001 19.4046 17.7345C19.3303 17.7689 19.2454 17.7725 19.1685 17.7444L18.8786 17.6381L19.9416 14.7392L20.2605 14.8551ZM21.5553 12.2364L18.5018 13.6376C18.4296 13.6732 18.3741 13.7356 18.3472 13.8115L17.922 14.9614C17.8292 15.1879 17.6538 15.3708 17.4314 15.473C17.209 15.5752 16.9561 15.5893 16.7238 15.5122L2.27733 10.1588C2.20052 10.1305 2.13806 10.073 2.10364 9.99869C2.06923 9.92442 2.06566 9.83954 2.09373 9.76265L3.80411 5.12433C3.8324 5.04752 3.88999 4.98506 3.96425 4.95065C4.03852 4.91623 4.1234 4.91267 4.2003 4.94073L21.8356 11.473L21.5553 12.2364Z" stroke-width="0.8"/>
<path d="M4.65449 9.05676C4.69364 9.07373 4.73588 9.08241 4.77854 9.08225C4.82121 9.0821 4.86339 9.07312 4.90242 9.05587C4.94145 9.03863 4.97648 9.01349 5.00532 8.98205C5.03417 8.9506 5.05619 8.91353 5.07 8.87316L5.92036 6.554C5.93383 6.51469 5.93924 6.47308 5.93626 6.43164C5.93329 6.3902 5.922 6.34978 5.90306 6.3128C5.88412 6.27582 5.85792 6.24304 5.82602 6.21641C5.79413 6.18978 5.7572 6.16985 5.71743 6.15781C5.64043 6.13227 5.55659 6.13705 5.48298 6.17116C5.40938 6.20527 5.35154 6.26615 5.32125 6.34141L4.47089 8.66057C4.45561 8.69852 4.44827 8.73921 4.44932 8.78011C4.45037 8.82101 4.45978 8.86126 4.47698 8.89838C4.49419 8.9355 4.51881 8.96871 4.54934 8.99594C4.57987 9.02318 4.61565 9.04388 4.65449 9.05676Z"  stroke-width="0.8"/>
<path d="M7.00157 9.91769C7.03952 9.93297 7.0802 9.94031 7.1211 9.93926C7.162 9.93821 7.20226 9.92879 7.23938 9.91159C7.2765 9.89439 7.3097 9.86976 7.33694 9.83923C7.36418 9.80871 7.38488 9.77292 7.39776 9.73409L8.25778 7.41493C8.28331 7.33793 8.27854 7.25409 8.24443 7.18048C8.21032 7.10687 8.14944 7.04903 8.07418 7.01874C8.03622 7.00346 7.99554 6.99612 7.95464 6.99717C7.91374 6.99822 7.87349 7.00763 7.83637 7.02484C7.79925 7.04204 7.76604 7.06666 7.7388 7.09719C7.71156 7.12772 7.69087 7.1635 7.67799 7.20234L6.81797 9.5215C6.79243 9.5985 6.7972 9.68234 6.83132 9.75595C6.86543 9.82956 6.92631 9.88739 7.00157 9.91769Z"  stroke-width="0.8"/>
<path d="M9.27396 10.7766C9.35085 10.8047 9.43573 10.8011 9.51 10.7667C9.58427 10.7323 9.64186 10.6698 9.67015 10.593L10.5302 8.27383C10.5533 8.19818 10.5466 8.11653 10.5114 8.04568C10.4763 7.97483 10.4152 7.92016 10.341 7.89292C10.2667 7.86569 10.1848 7.86796 10.1121 7.89927C10.0395 7.93058 9.9816 7.98854 9.95038 8.06124L9.10002 10.3804C9.08453 10.4177 9.07675 10.4578 9.07716 10.4983C9.07758 10.5387 9.08617 10.5786 9.10242 10.6156C9.11867 10.6526 9.14225 10.686 9.17173 10.7136C9.20121 10.7413 9.23598 10.7627 9.27396 10.7766Z"  stroke-width="0.8"/>
</svg>
