<svg width="24" height="24" viewBox="0 0 24 24" stroke="#B3B4B6" fill="none" xmlns="http://www.w3.org/2000/svg">
<path d="M8.72039 16.215L8.74476 16.2394C9.38348 16.8781 10.129 17.4003 10.9475 17.7823L11.6899 16.1326C12.3433 16.4048 13.0442 16.545 13.752 16.545V18.2772H13.8154C14.6444 18.2772 15.4647 18.1088 16.2266 17.7823L15.8967 16.9574L15.5667 16.1326L15.6758 16.083C16.2051 15.8424 16.6964 15.5256 17.1339 15.1427L18.3712 16.38C18.9193 15.7223 19.3906 15.0011 19.7735 14.2354L18.2887 13.493C18.5077 12.8908 18.6456 12.2621 18.6989 11.6235L18.7012 11.5959H20.3509L20.1034 10.3586L19.856 9.12129L18.3712 9.69868C18.0988 9.09926 17.7363 8.5411 17.2989 8.04896L18.5362 6.97666C17.8821 6.32254 17.1114 5.79652 16.2639 5.42576L16.2266 5.40943L15.5667 6.81169C14.9631 6.64707 14.3457 6.53808 13.7221 6.48612L13.6695 6.48175V4.83203L13.5922 4.83633C12.6593 4.88816 11.7398 5.08139 10.865 5.40943L11.6074 6.97666C11.0632 7.19435 10.5688 7.52032 10.1544 7.9348L10.1227 7.96648L8.80288 6.7292C8.25557 7.33125 7.79352 8.00558 7.42965 8.73331L7.40064 8.79135L9.05035 9.53371C8.83122 10.1911 8.69354 10.8729 8.64038 11.5638L8.63791 11.5959H6.82324C6.878 12.4173 7.03749 13.2285 7.29785 14.0095L7.31815 14.0704L8.96787 13.4105"/>
<path d="M6.91626 15.0042L10.8632 12.1016C10.6739 10.181 12.7884 8.57851 14.2614 9.82528C14.4302 9.96814 14.4986 10.0797 14.4164 10.1401C13.9465 10.4857 12.7936 11.2611 12.6433 11.3717C12.4553 11.5099 13.1164 12.5032 13.322 12.393C13.6854 12.1981 15.2955 10.9417 15.2706 11.1048C15.8938 12.9878 14.008 14.7277 12.1811 13.9553L11.9317 13.8498L8.09114 16.6018C8.34794 18.4677 6.34391 19.7983 4.71096 18.8597L4.66378 18.8328C4.43314 18.7037 5.77685 17.9447 6.47419 17.3566C6.64174 17.2152 5.82036 16.1722 5.72639 16.2413C4.97459 16.7942 3.75503 17.8887 3.74047 17.7742C3.73726 17.7488 3.70756 17.49 3.66326 17.1022C3.46033 15.3257 5.38156 14.0867 6.91626 15.0042Z"/>
</svg>
