<svg width="24" height="24" viewBox="0 0 24 24" xmlns="http://www.w3.org/2000/svg">
<path d="M12.8975 15.7017L14.7833 14.6143V17.1517C14.7833 17.8336 15.3357 18.3903 16.0218 18.3903H20.1301V20.4574H16.1686C14.3604 20.4574 12.8975 18.9944 12.8975 17.1863V15.7017Z"/>
<path d="M2.35516 14.4843C2.30863 14.4448 3.19489 13.7402 3.19489 13.7402L6.03349 15.9413L4.35725 17.2042L2.35516 14.4843Z"/>
<path fill-rule="evenodd" clip-rule="evenodd" d="M8.53958 16.2553L21.7017 9.247L18.1544 3.54199L3.31869 11.391L3.20312 11.543L3.17578 11.6723V11.7852L3.20312 11.9062L3.23438 11.9883L3.31869 12.0958L8.53958 16.2553ZM7.46051 11.1513C7.19074 12.259 8.1665 13.2405 9.28001 12.9708C9.80233 12.8445 10.2328 12.414 10.3591 11.8917C10.6289 10.7839 9.6531 9.80243 8.53958 10.0722C8.01727 10.1985 7.58678 10.629 7.46051 11.1513Z"/>
</svg>
