<svg width="24" stroke='white' height="24" viewBox="0 0 24 24" xmlns="http://www.w3.org/2000/svg">
<path d="M11.957 11.0353H20.1195C20.7684 11.0353 21.2266 10.3996 21.0214 9.78398C18.213 1.35863 6.41198 1.04277 3.15687 9.30576L2.99593 9.7143C2.74609 10.3486 3.21364 11.0353 3.89536 11.0353H11.957Z" stroke-width="1.18519"/>
<path fill='none' d="M5.24023 12V15.5556C6.31152 23.1977 17.3173 23.1866 18.6664 15.5886C18.6703 15.5667 18.6723 15.5444 18.6723 15.5223V12" stroke-width="1.18519"/>
<path fill='none' d="M11.957 18.5185C13.1571 18.5185 14.1299 17.5457 14.1299 16.3457C14.1299 15.1457 13.1571 14.1729 11.957 14.1729C10.757 14.1729 9.78418 15.1457 9.78418 16.3457C9.78418 17.5457 10.757 18.5185 11.957 18.5185Z" stroke-width="1.18519"/>
</svg>
