<?xml version="1.0" standalone="no"?>
<!DOCTYPE svg PUBLIC "-//W3C//DTD SVG 1.1//EN" "http://www.w3.org/Graphics/SVG/1.1/DTD/svg11.dtd" >
<svg xmlns="http://www.w3.org/2000/svg">
<metadata>Generated by IcoMoon</metadata>
<defs>
<font id="kis-mrt-icon-font" horiz-adv-x="1024">
<font-face units-per-em="1024" ascent="960" descent="-64" />
<missing-glyph horiz-adv-x="1024" />
<glyph unicode="&#x20;" horiz-adv-x="512" d="" />
<glyph unicode="&#xe900;" glyph-name="windows" horiz-adv-x="1067" d="M661.333 362.667c0 23.565 19.102 42.667 42.667 42.667h213.333c23.565 0 42.667-19.102 42.667-42.667v-298.667c0-23.565-19.102-42.667-42.667-42.667h-213.333c-23.565 0-42.667 19.102-42.667 42.667v298.667zM746.667 320v-213.333h128v213.333h-128zM106.667 832c0 23.564 19.102 42.667 42.667 42.667h768c23.565 0 42.667-19.102 42.667-42.667v-298.667c0-23.565-19.102-42.667-42.667-42.667h-768c-23.564 0-42.667 19.102-42.667 42.667v298.667zM192 789.333v-213.333h682.667v213.333h-682.667zM106.667 362.667c0 23.565 19.102 42.667 42.667 42.667h384c23.565 0 42.667-19.102 42.667-42.667v-298.667c0-23.565-19.102-42.667-42.667-42.667h-384c-23.564 0-42.667 19.102-42.667 42.667v298.667zM192 320v-213.333h298.667v213.333h-298.667z" />
<glyph unicode="&#xe901;" glyph-name="user-circle" d="M981.333 448c0-259.204-210.129-469.333-469.333-469.333-259.206 0-469.333 210.129-469.333 469.333 0 259.206 210.128 469.333 469.333 469.333s469.333-210.128 469.333-469.333zM511.979 832.25c-212.204 0-384.229-172.025-384.229-384.229 0-96.798 35.793-185.233 94.866-252.796l4.883 7.108c7.351 10.257 14.168 16.883 22.031 24.521 2.197 2.133 4.477 4.348 6.871 6.746 36.674 36.672 86.414 57.276 138.279 57.276h234.666c51.866 0 101.606-20.604 138.278-57.276 1.374-1.374 2.718-2.709 4.036-4.019 9.843-9.775 18.249-18.121 26.837-30.579l2.479-4.19c59.29 67.614 95.232 156.215 95.232 253.21 0 212.204-172.028 384.229-384.23 384.229zM739.755 145.86c-4.877 8.713-12.77 17.758-27.439 32.427-22.007 22.003-51.849 34.364-82.97 34.364h-234.666c-31.119 0-60.963-12.361-82.967-34.364-14.67-14.669-22.565-23.714-27.44-32.427l-2.394-5.577c64.143-48.038 143.799-76.493 230.101-76.493 86.639 0 166.579 28.676 230.848 77.052l-3.072 5.018zM512.013 760.208c108.002 0 195.558-87.553 195.558-195.556 0-108.004-87.556-195.556-195.558-195.556s-195.555 87.552-195.555 195.556c0 108.003 87.553 195.556 195.555 195.556zM512.013 681.986c-64.802 0-117.332-52.532-117.332-117.334 0-64.8 52.53-117.335 117.332-117.335s117.333 52.535 117.333 117.335c0 64.802-52.531 117.334-117.333 117.334z" />
<glyph unicode="&#xe902;" glyph-name="user" horiz-adv-x="1067" d="M270.374 296.188c37.344 40.013 88.608 63.061 142.698 63.061h240.538c54.089 0 105.353-23.049 142.694-63.061 37.257-39.915 57.749-93.5 57.749-148.843v-85.905c0-22.14-17.946-40.090-40.090-40.090-22.14 0-40.090 17.95-40.090 40.090v85.905c0 35.793-13.295 69.615-36.186 94.135-22.801 24.431-53.111 37.589-84.079 37.589h-240.538c-30.97 0-61.28-13.158-84.082-37.589-22.889-24.521-36.186-58.342-36.186-94.135v-85.905c0-22.14-17.949-40.090-40.090-40.090s-40.089 17.95-40.089 40.090v85.905c0 55.343 20.493 108.928 57.749 148.843zM533.321 794.488c-63.859 0-120.267-56.324-120.267-131.722s56.407-131.724 120.267-131.724c63.863 0 120.273 56.325 120.273 131.724s-56.41 131.722-120.273 131.722zM332.875 662.766c0 114.38 87.183 211.901 200.445 211.901 113.267 0 200.448-97.521 200.448-211.901s-87.181-211.898-200.448-211.898c-113.263 0-200.445 97.519-200.445 211.898z" />
<glyph unicode="&#xe903;" glyph-name="tower-signal" d="M498.479 516.245c-8.939-3.354-13.781-7.637-18.065-16.017-1.865-3.725-38.182-114.167-80.831-245.658-58.854-181.402-77.478-241.374-77.478-248.265 0-20.86 14.713-35.017 36.318-35.017 21.977 0 29.054 8.196 42.65 49.728l10.057 31.292 201.145 0.93 9.685-29.239c11.733-35.388 14.899-41.348 24.768-47.68 6.148-3.913 9.873-5.030 18.441-5.030 21.978 0 36.877 14.157 36.877 34.645 0 6.332-20.672 72.448-77.478 248.265-42.65 131.674-79.155 242.675-81.203 246.4-7.078 14.345-28.497 21.794-44.885 15.646zM525.67 321.621c6.707-21.235 12.851-40.23 13.598-41.907 1.118-2.607-1.677-2.978-27.191-2.978-21.978 0-28.126 0.559-27.567 2.419 0.559 1.118 6.707 20.113 13.598 41.907 7.078 21.602 13.222 39.484 13.969 39.484 0.559 0 6.703-17.51 13.594-38.925zM575.957 166.289c6.891-20.86 12.48-38.549 12.48-39.108 0-0.747-34.27-1.306-76.361-1.306-41.907 0-76.361 0.559-76.361 1.118s5.585 18.253 12.292 39.113l12.105 37.995h103.364l12.48-37.811zM499.951 724.45c-2.048-0.372-7.45-1.862-12.105-2.98-30.545-7.636-55.876-33.71-64.256-66.117-7.636-29.24 1.49-62.206 23.279-84.369 12.48-12.851 24.401-20.114 40.789-24.585 31.846-8.753 65.557 0.186 88.841 23.84 47.492 48.238 27.934 128.882-36.318 150.114-10.432 3.539-33.152 5.774-40.23 4.098zM656.41 826.526c-17.882-8.567-26.078-28.682-18.628-46.189 1.493-3.725 8.009-12.665 14.345-19.928 28.868-33.711 44.326-69.097 47.676-109.326 4.284-55.501-11.917-103.18-49.728-146.016-16.759-18.995-19.366-34.829-8.38-51.405 9.126-13.969 31.475-19.371 46.933-11.362 12.668 6.519 41.348 42.654 55.689 70.217 41.161 78.968 38.554 179.913-6.519 254.97-13.222 22.163-34.641 48.052-46.933 56.805-8.196 5.774-24.585 6.891-34.453 2.235zM751.386 922.247c-12.292-5.587-19.742-17.88-19.93-32.779 0-12.106 3.725-19.369 17.506-34.455 39.113-43.209 63.509-87.721 77.107-141.174 18.812-74.312 10.803-154.025-22.349-220.889-15.275-30.729-28.868-50.658-55.317-80.828-11.174-12.48-14.899-18.065-16.201-24.585-3.725-17.694 3.349-33.152 18.624-40.789 23.279-11.546 39.855-2.048 75.43 43.584 37.619 48.422 64.627 108.019 76.173 168.736 6.703 35.2 8.196 89.025 3.537 125.53-8.567 68.911-33.894 131.117-75.802 187.735-16.201 21.977-39.855 46.748-47.492 49.914-7.637 3.352-24.026 3.166-31.287 0zM337.731 827.276c-3.166-1.49-10.989-8.009-17.135-14.341-50.1-52.707-75.616-126.833-69.283-200.4 5.215-58.854 27.192-110.442 65.931-153.839 13.41-15.27 21.605-19.93 34.642-19.93 12.106 0 20.114 3.354 27.378 11.733 7.636 8.567 10.802 18.999 9.126 29.798-1.303 8.755-3.911 12.851-22.536 34.829-44.326 52.895-54.942 128.511-27.005 194.069 7.077 16.39 18.438 34.083 34.083 52.335 15.458 18.066 18.438 27.378 14.341 42.65-5.587 19.742-30.544 31.289-49.541 23.094zM241.072 922.438c-2.98-1.49-11.92-9.312-19.556-17.321-91.26-95.73-127.020-236.905-94.24-370.443 15.645-64.070 52.335-129.627 98.896-177.12 15.458-15.646 29.054-19.371 44.699-12.105 14.527 6.703 21.418 17.694 21.418 33.894 0 12.292-3.166 17.882-21.418 38.366-81.948 92.006-105.042 219.399-60.53 334.313 13.969 35.945 36.132 71.518 63.696 101.69 15.086 16.576 18.252 22.722 18.252 35.759 0 11.733-5.029 22.163-14.155 29.24-5.587 4.284-9.126 5.215-19.183 5.587-7.636 0.373-14.527-0.372-17.879-1.862z" />
<glyph unicode="&#xe904;" glyph-name="tower" horiz-adv-x="1067" d="M794.56 86.643h-40.964c-41.126 138.001 98.547-330.684-179.162 601.176 33.536 15.569 56.862 49.548 56.862 88.888 0 54.015-43.947 97.959-97.958 97.959-54.016 0-97.963-43.945-97.963-97.959 0-39.34 23.326-73.319 56.862-88.888-159.443-534.215-37.111-124.526-179.161-601.176h-40.964c-18.033 0-32.653-14.622-32.653-32.657 0-18.031 14.62-32.653 32.653-32.653h130.612c18.033 0 32.652 14.622 32.652 32.653 0 18.035-14.618 32.657-32.652 32.657h-21.503l20.759 69.658h262.708l20.762-69.658h-21.5c-18.035 0-32.653-14.622-32.653-32.657 0-18.031 14.618-32.653 32.653-32.653h130.611c18.035 0 32.653 14.622 32.653 32.653 0 18.035-14.618 32.657-32.653 32.657zM606.306 352.218l28.361-95.155-111.019 95.155h82.658zM479.829 417.527l53.508 179.543 53.504-179.543h-107.012zM533.338 809.361c18.001 0 32.653-14.648 32.653-32.653s-14.652-32.653-32.653-32.653c-18.005 0-32.653 14.648-32.653 32.653s14.647 32.653 32.653 32.653zM452.826 326.912l122.854-105.306h-154.24l31.386 105.306z" />
<glyph unicode="&#xe905;" glyph-name="text-file" horiz-adv-x="1067" d="M218.332 840.585c21.822 21.822 51.42 34.082 82.281 34.082h329.697c10.291 0 20.156-4.087 27.43-11.361l213.333-213.333c7.275-7.274 11.358-17.14 11.358-27.427v-484.847c0-30.865-12.258-60.459-34.082-82.283-21.82-21.824-51.418-34.082-82.278-34.082h-465.458c-30.862 0-60.459 12.258-82.281 34.082s-34.082 51.418-34.082 82.283v620.605c0 30.862 12.26 60.459 34.082 82.281zM300.614 797.091c-10.287 0-20.153-4.087-27.427-11.361s-11.361-17.14-11.361-27.427v-620.605c0-10.287 4.087-20.156 11.361-27.43 7.274-7.27 17.14-11.358 27.427-11.358h465.458c10.287 0 20.151 4.087 27.426 11.358 7.275 7.275 11.362 17.143 11.362 27.43v426.666h-193.941c-21.423 0-38.788 17.366-38.788 38.788v193.939h-271.517zM649.707 641.94v119.691l119.693-119.691h-119.693zM339.417 409.212c0 21.423 17.366 38.788 38.788 38.788h310.303c21.423 0 38.788-17.365 38.788-38.788s-17.365-38.788-38.788-38.788h-310.303c-21.422 0-38.788 17.365-38.788 38.788zM339.417 254.089c0 21.423 17.366 38.788 38.788 38.788h310.303c21.423 0 38.788-17.365 38.788-38.788 0-21.419-17.365-38.788-38.788-38.788h-310.303c-21.422 0-38.788 17.37-38.788 38.788zM339.417 564.379c0 21.422 17.366 38.788 38.788 38.788h77.578c21.419 0 38.784-17.366 38.784-38.788s-17.365-38.79-38.784-38.79h-77.578c-21.422 0-38.788 17.367-38.788 38.79z" />
<glyph unicode="&#xe906;" glyph-name="stack-sheets" horiz-adv-x="1067" d="M515.977 870.572c10.923 5.46 23.774 5.46 34.697 0l387.87-193.936c13.141-6.57 21.44-20 21.44-34.692s-8.299-28.122-21.44-34.692l-387.87-193.935c-10.923-5.461-23.774-5.461-34.697 0l-387.869 193.935c-13.14 6.57-21.441 20.001-21.441 34.692s8.3 28.122 21.441 34.692l387.869 193.936zM232.184 641.944l301.14-150.569 301.141 150.569-301.141 150.57-301.14-150.57zM110.77 465.387c9.58 19.157 32.879 26.923 52.038 17.344l370.525-185.263 370.526 185.263c19.157 9.579 42.458 1.813 52.036-17.344 9.583-19.162 1.813-42.458-17.344-52.041l-387.874-193.933c-10.918-5.461-23.77-5.461-34.692 0l-387.869 193.933c-19.16 9.583-26.926 32.879-17.346 52.041zM110.77 271.424c9.58 19.162 32.879 26.927 52.038 17.348l370.525-185.263 370.526 185.263c19.157 9.579 42.458 1.813 52.036-17.348 9.583-19.157 1.813-42.458-17.344-52.036l-387.874-193.937c-10.918-5.461-23.77-5.461-34.692 0l-387.869 193.937c-19.16 9.579-26.926 32.879-17.346 52.036z" />
<glyph unicode="&#xe907;" glyph-name="send-arrow-up" horiz-adv-x="1067" d="M223.038 544.042c21.422 0 38.788-17.364 38.788-38.787v-310.302c0-10.287 4.087-20.156 11.361-27.43 7.274-7.27 17.14-11.358 27.427-11.358h465.458c10.287 0 20.151 4.087 27.426 11.358 7.275 7.275 11.362 17.143 11.362 27.43v310.302c0 21.423 17.365 38.787 38.784 38.787 21.423 0 38.788-17.364 38.788-38.787v-310.302c0-30.861-12.258-60.459-34.082-82.283-21.82-21.824-51.418-34.082-82.278-34.082h-465.458c-30.862 0-60.459 12.258-82.281 34.082s-34.082 51.422-34.082 82.283v310.302c0 21.423 17.366 38.787 38.788 38.787zM560.785 920.556c-15.151 15.148-39.71 15.148-54.857 0l-155.151-155.151c-15.148-15.148-15.148-39.707 0-54.854s39.707-15.148 54.854 0l88.935 88.937v-410.601c0-21.423 17.37-38.788 38.788-38.788 21.423 0 38.788 17.365 38.788 38.788v410.601l88.939-88.937c15.147-15.148 39.706-15.148 54.852 0s15.147 39.706 0 54.854l-155.149 155.151z" />
<glyph unicode="&#xe908;" glyph-name="route" horiz-adv-x="1067" d="M148.25 732.326c0 78.613 62.006 142.341 138.495 142.341s138.496-63.728 138.496-142.341c0-24.513-6.029-47.579-16.646-67.717l-121.849-180.943-121.849 180.943c-10.617 20.138-16.646 43.204-16.646 67.717zM286.748 802c-37.33 0-67.592-30.999-67.592-69.239 0-8.263 1.413-16.187 4.005-23.534 1.892-5.363 4.412-10.418 7.469-15.072l56.118-84.122 56.117 84.122c7.246 11.030 11.474 24.312 11.474 38.607 0 38.24-30.262 69.239-67.591 69.239zM578.359 633.706c0-20.219-16.388-36.61-36.608-36.61-10.94 0-20.757 4.797-27.465 12.403l-90.969 92.079 89.228 90.306c6.682 8.829 17.28 14.533 29.205 14.533 20.22 0 36.608-16.391 36.608-36.61 0-14.056-7.919-26.262-19.541-32.397h152.819c85.751 0 155.268-69.732 155.268-155.752 0-86.017-69.517-155.751-155.268-155.751l-339.2-0.307c-46.191 0-83.635-37.594-83.635-83.968s37.444-83.968 83.635-83.968l236.723 0.973c20.22 0 36.612-16.388 36.612-36.608s-16.393-36.612-36.612-36.612l-236.725 0.329c-85.753 0-155.269 69.79-155.269 155.883 0 86.097 69.516 155.887 155.269 155.887l339.202 0.252c46.191 0 83.635 37.56 83.635 83.895s-37.444 83.895-83.635 83.895l-151.181-0.372c10.722-6.385 17.903-18.092 17.903-31.477zM641.459 269.995c0 78.609 62.007 142.34 138.496 142.34s138.496-63.731 138.496-142.34c0-24.516-6.029-47.582-16.649-67.721l-121.847-180.941-121.847 180.941c-10.62 20.139-16.649 43.204-16.649 67.721zM779.955 339.665c-37.333 0-67.593-30.997-67.593-69.235 0-8.265 1.412-16.188 4.002-23.535 1.894-5.363 4.412-10.419 7.471-15.074l56.119-84.122 56.115 84.122c7.245 11.029 11.473 24.311 11.473 38.609 0 38.238-30.259 69.235-67.588 69.235z" />
<glyph unicode="&#xe909;" glyph-name="question" horiz-adv-x="1067" d="M133.334 461.333c0 228.278 185.056 413.333 413.332 413.333 228.279 0 413.333-185.056 413.333-413.333 0-228.275-185.054-413.329-413.333-413.329-66.923 0-130.221 15.932-186.219 44.233l-200.826-68.745c-14.356-4.915-30.257-1.284-41.056 9.378-10.799 10.658-14.636 26.513-9.906 40.93l67.171 204.796c-27.216 55.138-42.496 117.205-42.496 182.737zM546.667 794.667c-184.094 0-333.332-149.238-333.332-333.333 0-58.057 14.808-112.533 40.823-159.983 5.32-9.707 6.382-21.18 2.933-31.697l-47.381-144.461 141.264 48.358c10.783 3.691 22.628 2.607 32.562-2.978 48.187-27.102 103.79-42.573 163.131-42.573 184.094 0 333.333 149.239 333.333 333.333s-149.239 333.333-333.333 333.333zM483.332 395.516v6.182c0.124 21.214 2.001 38.123 5.636 50.726 3.759 12.608 9.212 22.788 16.367 30.545 7.151 7.757 15.757 14.788 25.818 21.090 7.514 4.851 14.242 9.882 20.181 15.091 5.939 5.214 10.667 10.97 14.182 17.273 3.511 6.424 5.269 13.576 5.269 21.455 0 8.364-1.997 15.697-5.999 22-3.998 6.303-9.395 11.151-16.179 14.545-6.669 3.394-14.063 5.091-22.182 5.091-7.881 0-15.334-1.758-22.366-5.273-7.027-3.394-12.787-8.485-17.271-15.273-4.484-6.667-6.908-14.97-7.275-24.909h-74.18c0.606 24.243 6.424 44.243 17.455 60 11.030 15.879 25.635 27.697 43.819 35.455 18.18 7.879 38.242 11.818 60.181 11.818 24.119 0 45.453-4 64-12 18.543-7.879 33.092-19.334 43.635-34.364 10.547-15.030 15.821-33.152 15.821-54.364 0-14.182-2.364-26.788-7.091-37.82-4.608-10.906-11.093-20.604-19.456-29.090-8.363-8.363-18.244-15.94-29.636-22.724-9.574-5.696-17.455-11.635-23.637-17.818-6.059-6.182-10.607-13.333-13.636-21.457-2.91-8.119-4.425-18.121-4.544-29.999v-6.182h-68.911zM519.334 279.151c-12.122 0-22.485 4.245-31.091 12.727-8.486 8.606-12.668 18.91-12.548 30.912-0.119 11.878 4.062 22.059 12.548 30.545 8.606 8.482 18.97 12.727 31.091 12.727 11.516 0 21.636-4.245 30.362-12.727 8.73-8.486 13.154-18.667 13.274-30.545-0.119-8-2.244-15.334-6.362-22.003-4.002-6.545-9.276-11.814-15.821-15.817-6.545-3.878-13.696-5.82-21.453-5.82z" />
<glyph unicode="&#xe90a;" glyph-name="paper-snake" horiz-adv-x="1067" d="M939.763 868.294c12.578-7.774 20.237-21.507 20.237-36.295v-640c0-16.162-9.131-30.933-23.586-38.161l-256-128c-12.011-6.007-26.15-6.007-38.161 0l-236.919 118.46-236.919-118.46c-13.226-6.613-28.934-5.909-41.512 1.869-12.579 7.774-20.236 21.504-20.236 36.292v640c0 16.161 9.131 30.935 23.586 38.162l256 128c12.012 6.006 26.15 6.006 38.162 0l236.919-118.46 236.919 118.46c13.227 6.613 28.932 5.906 41.51-1.868zM192 677.63v-544.596l170.667 85.333v544.596l-170.667-85.333zM448 218.368v544.596l170.667-85.333v-544.596l-170.667 85.333zM874.667 218.368v544.596l-170.667-85.333v-544.596l170.667 85.333z" />
<glyph unicode="&#xe90b;" glyph-name="open-in-new-tab" d="M643.61 819.183c0 21.208 17.19 38.4 38.4 38.4h201.19c10.185 0 19.951-4.046 27.153-11.247 7.198-7.202 11.247-16.969 11.247-27.153v-201.19c0-21.207-17.195-38.4-38.4-38.4-21.21 0-38.4 17.192-38.4 38.4v108.484l-318.447-318.448c-14.997-14.997-39.313-14.997-54.306 0-14.997 14.997-14.997 39.309 0 54.306l318.447 318.447h-108.484c-21.21 0-38.4 17.192-38.4 38.4zM243.175 627.183c-35.346 0-64-28.654-64-64v-384c0-35.345 28.654-64 64-64h384c35.345 0 64 28.655 64 64v192c0 21.21 17.195 38.4 38.4 38.4 21.21 0 38.4-17.19 38.4-38.4v-192c0-77.76-63.036-140.8-140.8-140.8h-384c-77.761 0-140.8 63.040-140.8 140.8v384c0 77.762 63.038 140.8 140.8 140.8h192c21.21 0 38.4-17.193 38.4-38.4s-17.19-38.4-38.4-38.4h-192z" />
<glyph unicode="&#xe90c;" glyph-name="mileage" d="M512 864.417c-123.389 0-223.417-100.027-223.417-223.417 0-116.699 89.472-212.499 203.56-222.547v-386.871h39.983v386.897c113.958 10.172 203.29 105.916 203.29 222.521 0 123.389-100.028 223.417-223.415 223.417zM368.425 784.533c38.103 38.103 89.781 59.508 143.665 59.508v-406.35c-53.884 0-105.562 21.406-143.665 59.507-38.103 38.105-59.508 89.783-59.508 143.668s21.406 105.564 59.508 143.666z" />
<glyph unicode="&#xe90d;" glyph-name="message" horiz-adv-x="1067" d="M106.667 697.344v-498.701c0-64.576 49.798-121.907 116.364-121.907h620.608c66.564 0 116.365 57.331 116.365 121.907v498.701c0 64.573-49.801 121.905-116.365 121.905h-620.608c-66.566 0-116.364-57.333-116.364-121.905zM843.639 741.673c14.391 0 29.525-10.277 35.793-27.183l-346.095-259.575-346.1 259.577c6.272 16.904 21.401 27.18 35.794 27.18h620.608zM223.031 154.313c-18.768 0-38.788 17.472-38.788 44.331v421.126l325.824-244.367c13.786-10.342 32.751-10.342 46.541 0l325.82 244.363v-421.122c0-26.859-20.019-44.331-38.788-44.331h-620.608z" />
<glyph unicode="&#xe90e;" glyph-name="loock" horiz-adv-x="1067" d="M259.584 525.577h39.108v116.362c0 61.723 24.724 120.919 68.732 164.564s103.697 68.165 165.935 68.165c62.238 0 121.929-24.52 165.935-68.165 44.011-43.645 68.732-102.84 68.732-164.564v-116.362h39.117c64.802 0 117.333-52.096 117.333-116.361v-271.518c0-64.265-52.531-116.365-117.333-116.365h-547.559c-64.802 0-117.334 52.1-117.334 116.365v271.518c0 64.265 52.532 116.361 117.334 116.361zM259.584 448.004c-21.6 0-39.111-17.365-39.111-38.788v-271.518c0-21.423 17.511-38.788 39.111-38.788h547.559c21.598 0 39.108 17.365 39.108 38.788v271.518c0 21.423-17.51 38.788-39.108 38.788h-547.559zM533.359 797.091c-41.493 0-81.284-16.347-110.624-45.443s-45.822-68.56-45.822-109.709v-116.362h312.891v116.362c0 41.149-16.482 80.613-45.824 109.709-29.338 29.097-69.129 45.443-110.622 45.443z" />
<glyph unicode="&#xe90f;" glyph-name="lattice" horiz-adv-x="1067" d="M106.667 746.667v-597.333c0-70.694 57.308-128 128-128h597.333c70.694 0 128 57.306 128 128v597.333c0 70.692-57.306 128-128 128h-597.333c-70.692 0-128-57.308-128-128zM874.667 149.333c0-22.336-17.165-40.661-39.019-42.513l-259.648-0.154v170.667h298.667v-128zM234.667 106.667c-23.564 0-42.667 19.102-42.667 42.667v128h298.667v-170.667h-256zM490.667 533.333v-170.667h-298.667v170.667h298.667zM576 533.333h298.667v-170.667h-298.667v170.667zM234.667 789.333h256v-170.667h-298.667v128c0 23.564 19.103 42.667 42.667 42.667zM832 789.333c23.565 0 42.667-19.103 42.667-42.667v-128h-298.667v170.667h256z" />
<glyph unicode="&#xe910;" glyph-name="headphones" d="M346.51 367.842c24.005-24.004 37.49-56.563 37.49-90.509v-128c0-33.95-13.486-66.505-37.49-90.509s-56.562-37.491-90.51-37.491h-42.667c-33.948 0-66.505 13.487-90.51 37.491s-37.49 56.559-37.49 90.509v298.667c0 113.159 44.952 221.683 124.968 301.699s188.54 124.968 301.699 124.968c113.161 0 221.683-44.952 301.7-124.968 80.013-80.016 124.966-188.54 124.966-301.699v-298.667c0-33.95-13.487-66.505-37.491-90.509s-56.559-37.491-90.509-37.491h-42.667c-33.95 0-66.505 13.487-90.509 37.491s-37.491 56.559-37.491 90.509v128c0 33.95 13.487 66.505 37.491 90.509s56.559 37.491 90.509 37.491h85.333v42.667c0 90.527-35.964 177.347-99.972 241.359-64.013 64.013-150.835 99.974-241.361 99.974-90.527 0-177.347-35.962-241.359-99.974s-99.974-150.832-99.974-241.359v-42.667h85.333c33.948 0 66.505-13.487 90.51-37.491zM170.667 320v-170.667c0-11.315 4.495-22.17 12.497-30.17s18.854-12.497 30.17-12.497h42.667c11.316 0 22.168 4.497 30.17 12.497s12.497 18.854 12.497 30.17v128c0 11.315-4.495 22.17-12.497 30.17s-18.854 12.497-30.17 12.497h-85.333zM768 320c-11.315 0-22.17-4.497-30.17-12.497s-12.497-18.854-12.497-30.17v-128c0-11.315 4.497-22.17 12.497-30.17s18.854-12.497 30.17-12.497h42.667c11.315 0 22.17 4.497 30.17 12.497s12.497 18.854 12.497 30.17v170.667h-85.333z" />
<glyph unicode="&#xe911;" glyph-name="geolocation" horiz-adv-x="1067" d="M839.684 565.424c-3.831 2.456-8.218 3.918-12.757 4.252s-9.092-0.468-13.239-2.336l-117.956-54.734c-7.535-17.122-16.128-33.758-25.728-49.813-6.293-10.398-12.86-20.254-19.703-30.106-10.948-15.872-22.716-30.925-34.756-45.431v-295.296l-127.535 57.472v116.041l-2.735-2.189c-7.091-5.367-15.744-8.252-24.631-8.213-8.879 0.038-17.51 2.918-24.631 8.213l-2.739 2.189v-116.041l-127.259-57.472v296.393c-20.211 23.791-38.513 49.139-54.735 75.81-0.147-1.271-0.147-2.556 0-3.831v-411.614c0.008-4.578 1.164-9.084 3.364-13.099s5.371-7.415 9.225-9.89c4.405-2.846 9.535-4.365 14.778-4.378 3.853-0.068 7.677 0.678 11.221 2.189l170.777 77.18 170.773-77.18c1.822-0.832 3.759-1.387 5.747-1.643h5.747c3.669 0.009 7.3 0.751 10.675 2.189l181.995 82.103c4.864 2.061 9.024 5.478 11.985 9.852 2.965 4.369 4.599 9.502 4.71 14.78v410.519c0.179 4.763-0.887 9.491-3.093 13.715-2.21 4.224-5.483 7.799-9.498 10.369zM797.538 149.431l-127.262-57.472v350.579l127.262 57.476v-350.583zM444.224 278.050c4.736-3.554 10.496-5.474 16.418-5.474s11.686 1.92 16.422 5.474c9.306 7.113 229.888 174.332 229.888 350.307 0 32.346-6.37 64.375-18.752 94.259-12.378 29.884-30.519 57.036-53.389 79.909-22.874 22.872-50.027 41.015-79.91 53.393s-61.914 18.749-94.259 18.749c-32.346 0-64.374-6.371-94.257-18.749s-57.037-30.522-79.909-53.393c-22.872-22.872-41.015-50.025-53.393-79.909s-18.749-61.913-18.749-94.259c0-175.975 220.312-343.194 229.891-350.307zM325.173 763.827c26.717 27.27 60.972 45.935 98.371 53.602 37.397 7.667 76.237 3.985 111.526-10.572 35.294-14.558 65.429-39.328 86.545-71.133s32.247-69.193 31.97-107.368c0-123.427-142.583-252.604-191.573-293.385-49.262 40.781-191.574 169.958-191.574 293.385-0.302 25.080 4.381 49.97 13.777 73.226s23.319 44.413 40.958 62.244zM460.638 513.975c9.242-0.081 18.453 1.114 27.366 3.558 19.827 5.12 37.824 15.697 51.938 30.534 14.118 14.836 23.791 33.333 27.917 53.391 4.13 20.058 2.551 40.872-4.561 60.076-7.108 19.205-19.46 36.030-35.657 48.564-16.192 12.535-35.58 20.275-55.953 22.342s-40.917-1.621-59.299-10.647c-18.382-9.026-33.864-23.026-44.686-40.411s-16.552-37.457-16.536-57.935c0.257-15.691 3.885-31.143 10.638-45.309s16.471-26.714 28.498-36.795c12.449-10.562 27.145-18.144 42.969-22.167 8.836-2.999 18.048-4.749 27.366-5.201zM460.638 678.183c10.825 0 21.41-3.21 30.409-9.225 9.003-6.014 16.017-14.563 20.16-24.564s5.227-21.007 3.115-31.625c-2.112-10.618-7.326-20.371-14.98-28.026s-17.408-12.868-28.023-14.98c-10.62-2.112-21.623-1.028-31.625 3.115s-18.551 11.159-24.566 20.16c-6.014 9.001-9.225 19.584-9.225 30.41 0 14.516 5.767 28.439 16.032 38.704 10.266 10.265 24.189 16.032 38.704 16.032z" />
<glyph unicode="&#xe912;" glyph-name="gear-outline" d="M344.647 739.767c0 0-7.931-5.306-12.574-7.383-3.957-1.769-6.285-2.615-10.518-3.55l-0.073-0.017c-2.943-0.65-4.65-1.027-7.684-1.086-3.469-0.067-5.428 0.332-8.823 1.052-3.011 0.638-4.715 1.060-7.556 2.246-3.424 1.428-5.015 2.895-8.227 4.75-3.72 2.148-5.701 3.545-9.526 5.5-5.255 2.685-8.342 3.949-13.907 5.912-4.481 1.581-7.065 2.269-11.665 3.463l-3.020 0.782c-5.906 1.518-10.062 2.466-16.829 3.172-9.459 0.988-14.889 0.767-24.353-0.181-13.424-1.344-21-3.166-33.629-7.913-10.291-3.868-15.981-6.572-25.173-12.602-9.932-6.515-14.956-11.132-23.138-19.743-4.556-4.794-7.080-7.558-10.932-12.934-4.724-6.593-11.092-17.578-11.092-17.578s-7.269-12.634-10.617-20.021c-2.729-6.024-3.861-9.592-5.735-15.934-3.366-11.391-4.852-18.051-5.529-29.909-0.625-10.976-0.122-17.256 1.673-28.102 2.203-13.31 4.414-20.782 9.962-33.079 3.911-8.669 6.435-13.483 12.020-21.181 4.567-6.293 7.701-9.476 13.082-14.941l0.267-0.273c3.334-3.383 5.222-5.278 8.831-8.367 4.483-3.84 7.121-5.879 12.074-9.088 3.605-2.338 5.806-3.354 9.526-5.5 3.213-1.856 5.278-2.5 8.227-4.753 2.447-1.865 3.664-3.132 5.723-5.419 2.32-2.581 3.646-4.079 5.322-7.117 1.466-2.654 1.993-4.322 2.901-7.194l0.023-0.073c1.307-4.134 1.738-6.575 2.184-10.884 0.524-5.060-0.11-13.022-0.11-13.022s0.625-9.566 0.101-14.626c-0.446-4.309-0.877-6.75-2.184-10.884l-0.023-0.073c-0.908-2.871-1.435-4.54-2.901-7.194-1.676-3.038-3.002-4.535-5.322-7.117-2.059-2.287-3.276-3.554-5.723-5.419-2.949-2.253-5.014-2.897-8.227-4.753-3.72-2.146-5.921-3.162-9.526-5.5-4.953-3.209-7.591-5.248-12.074-9.088-3.61-3.089-5.497-4.983-8.831-8.367l-0.267-0.273c-5.381-5.466-8.516-8.649-13.082-14.942-5.585-7.697-8.109-12.51-12.020-21.18-5.548-12.301-7.758-19.772-9.962-33.079-1.795-10.846-2.299-17.126-1.673-28.1 0.676-11.861 2.162-18.522 5.529-29.909 1.874-6.345 3.006-9.911 5.735-15.936 3.348-7.386 10.617-20.023 10.617-20.023s6.368-10.982 11.092-17.574c3.852-5.376 6.376-8.141 10.932-12.937 8.182-8.61 13.206-13.227 23.138-19.742 9.193-6.029 14.883-8.734 25.173-12.604 12.629-4.745 20.204-6.566 33.629-7.91 9.463-0.947 14.894-1.169 24.353-0.179 7.734 0.806 12.058 1.929 19.48 3.857l0.368 0.094c4.599 1.195 7.184 1.882 11.665 3.465 5.565 1.963 8.652 3.226 13.907 5.914 3.825 1.954 5.806 3.349 9.526 5.5 3.213 1.852 4.803 3.319 8.227 4.749 2.841 1.186 4.544 1.609 7.556 2.244 3.394 0.721 5.353 1.122 8.822 1.054 3.034-0.060 4.741-0.435 7.684-1.088l0.073-0.013c4.233-0.939 6.56-1.783 10.518-3.554 4.643-2.074 11.223-6.605 11.223-6.605s8.573-4.211 12.693-7.194c3.511-2.543 5.407-4.134 8.333-7.334l0.051-0.055c2.034-2.223 3.215-3.511 4.783-6.11 1.793-2.97 2.426-4.868 3.5-8.166 0.953-2.927 1.44-4.612 1.833-7.667 0.475-3.678 0-5.79 0-9.498 0-4.297-0.22-6.711 0-10.999 0.302-5.897 0.751-9.199 1.833-15.002 0.871-4.672 1.568-7.253 2.833-11.836l0.101-0.363c2.042-7.394 3.231-11.699 6.399-18.803 3.874-8.683 6.781-13.278 12.333-21.001 7.877-10.953 13.242-16.602 23.667-25.165 8.497-6.98 13.681-10.556 23.499-15.501 10.611-5.342 17.118-7.386 28.668-10.167 6.43-1.545 10.086-2.351 16.666-2.999 8.073-0.794 22.647-0.815 22.647-0.815s12.698 0.021 20.77 0.815c6.583 0.649 10.236 1.455 16.666 2.999 11.55 2.782 18.061 4.826 28.668 10.167 9.818 4.945 15.006 8.521 23.501 15.501 10.423 8.563 15.791 14.212 23.667 25.165 5.551 7.723 8.457 12.318 12.331 21.001 3.17 7.104 4.361 11.409 6.4 18.803l0.102 0.363c1.263 4.582 1.963 7.164 2.833 11.836 1.084 5.803 1.532 9.105 1.835 15.002 0.218 4.288 0 6.703 0 10.999 0 3.708-0.478 5.82 0 9.498 0.393 3.055 0.879 4.74 1.83 7.667 1.075 3.298 1.707 5.197 3.503 8.166 1.566 2.598 2.748 3.887 4.779 6.11l0.051 0.055c2.927 3.2 4.826 4.791 8.337 7.334 4.117 2.982 11.767 7.518 11.767 7.518s7.522 4.228 12.169 6.306c3.955 1.771 6.281 2.615 10.517 3.55l0.073 0.017c2.94 0.649 4.651 1.028 7.684 1.088 3.469 0.064 5.427-0.333 8.819-1.054 3.012-0.64 4.719-1.062 7.556-2.244 3.426-1.429 5.018-2.897 8.23-4.753 3.721-2.146 5.7-3.546 9.523-5.5 5.257-2.684 8.346-3.947 13.909-5.909 4.48-1.583 7.066-2.27 11.665-3.465l0.367-0.094c7.424-1.929 11.746-3.051 19.482-3.861 9.459-0.986 14.891-0.768 24.354 0.183 13.423 1.344 20.996 3.166 33.626 7.91 10.291 3.87 15.983 6.571 25.173 12.604 9.933 6.515 14.959 11.132 23.138 19.742 4.557 4.791 7.083 7.556 10.931 12.932 4.727 6.592 12.032 19.204 12.032 19.204s6.332 11.008 9.677 18.398c2.731 6.020 3.861 9.591 5.734 15.932 3.366 11.392 4.855 18.052 5.53 29.909 0.627 10.978 0.124 17.254-1.673 28.1-2.202 13.312-4.416 20.783-9.963 33.079-3.908 8.67-6.434 13.483-12.019 21.184-4.565 6.293-7.701 9.476-13.082 14.942l-0.269 0.269c-3.332 3.388-5.218 5.282-8.828 8.371-4.484 3.836-7.121 5.879-12.075 9.088-3.605 2.334-5.807 3.354-9.527 5.5-3.213 1.856-5.278 2.5-8.226 4.749-2.449 1.869-3.665 3.132-5.722 5.423-2.321 2.577-3.648 4.075-5.325 7.113-1.463 2.658-1.993 4.326-2.901 7.198l-0.021 0.073c-1.306 4.134-1.741 6.571-2.185 10.884-0.525 5.056-0.009 14.298-0.009 14.298s-0.525 8.243 0 13.299c0.444 4.314 0.879 6.75 2.185 10.884l0.021 0.073c0.909 2.871 1.438 4.54 2.901 7.198 1.677 3.038 3.004 4.535 5.325 7.113 2.057 2.291 3.273 3.554 5.722 5.423 2.948 2.249 5.013 2.893 8.226 4.749 3.721 2.146 5.922 3.166 9.527 5.5 4.954 3.209 7.59 5.252 12.075 9.088 3.61 3.089 5.495 4.983 8.828 8.371l0.269 0.269c5.38 5.466 8.516 8.649 13.082 14.943 5.585 7.698 8.111 12.512 12.019 21.181 5.547 12.298 7.761 19.769 9.963 33.079 1.796 10.846 2.3 17.126 1.673 28.102-0.674 11.859-2.163 18.518-5.53 29.91-1.873 6.342-3.004 9.91-5.734 15.933-3.345 7.388-9.677 18.395-9.677 18.395s-7.305 12.612-12.032 19.205c-3.849 5.376-6.374 8.14-10.931 12.934-8.179 8.611-13.205 13.228-23.138 19.743-9.19 6.030-14.882 8.733-25.173 12.602-12.629 4.747-20.203 6.568-33.626 7.913-9.463 0.948-14.895 1.169-24.354 0.181-7.735-0.808-12.058-1.931-19.482-3.859l-0.367-0.096c-4.599-1.194-7.185-1.882-11.665-3.463-5.564-1.964-8.653-3.227-13.909-5.912-3.823-1.955-5.803-3.352-9.523-5.5-3.213-1.855-4.804-3.322-8.23-4.75-2.837-1.185-4.544-1.607-7.556-2.246-3.392-0.72-5.35-1.12-8.819-1.053-3.034 0.059-4.74 0.436-7.684 1.086l-0.073 0.016c-4.233 0.935-6.562 1.78-10.517 3.55-4.646 2.077-12.595 7.407-12.595 7.407s-7.215 3.434-11.332 6.417c-3.511 2.542-5.41 4.135-8.337 7.333l-0.051 0.056c-2.031 2.223-3.213 3.513-4.779 6.111-1.796 2.971-2.428 4.867-3.503 8.167-0.951 2.927-1.438 4.614-1.83 7.667-0.478 3.679 0 5.79 0 9.5 0 4.296 0.218 6.71 0 11-0.303 5.894-0.751 9.199-1.835 15-0.87 4.671-1.57 7.253-2.833 11.833l-0.102 0.367c-2.039 7.392-3.23 11.698-6.4 18.8-3.874 8.686-6.78 13.278-12.331 21-7.876 10.953-13.244 16.603-23.667 25.167-8.495 6.978-13.683 10.554-23.501 15.5-10.607 5.344-17.118 7.387-28.668 10.167-6.43 1.548-10.082 2.352-16.666 3-8.073 0.794-20.77 0.816-20.77 0.816s-14.575-0.022-22.647-0.816c-6.579-0.648-10.236-1.452-16.666-3-11.55-2.78-18.057-4.823-28.668-10.167-9.818-4.946-15.002-8.522-23.499-15.5-10.425-8.563-15.79-14.213-23.667-25.167-5.553-7.722-8.459-12.314-12.333-21-3.168-7.102-4.357-11.408-6.399-18.8l-0.101-0.367c-1.265-4.58-1.962-7.162-2.833-11.833-1.082-5.801-1.531-9.106-1.833-15-0.22-4.29 0-6.704 0-11 0-3.71 0.475-5.821 0-9.5-0.394-3.053-0.88-4.739-1.833-7.667-1.074-3.299-1.707-5.196-3.5-8.167-1.568-2.598-2.748-3.888-4.783-6.111l-0.051-0.056c-2.927-3.198-4.822-4.791-8.333-7.333-4.12-2.983-11.334-6.417-11.334-6.417zM501.312 832.238c3.87 0.281 11.814 0 11.814 0s6.067 0.281 9.937 0l0.346-0.025c3.264-0.236 5.222-0.378 8.486-1.196 3.716-0.932 5.756-1.758 9.169-3.5 2.445-1.248 3.759-2.077 5.999-3.667l0.085-0.061c2.359-1.676 3.738-2.653 5.747-4.772 1.596-1.681 2.351-2.76 3.669-4.667 2.236-3.235 3.332-5.199 4.83-8.833 1.527-3.694 2.338-5.868 2.833-9.833 0.397-3.165 0-4.977 0-8.166 0-3.71-0.158-5.794 0-9.5 0.29-6.723 0.956-10.54 2.091-17.041l0.077-0.459c1.088-6.239 1.707-9.76 3.503-15.833 2.052-6.955 3.588-10.766 6.665-17.333 3.541-7.557 5.85-11.697 10.62-18.544 3.793-5.447 6.191-8.332 10.671-13.232 6.404-7.011 10.368-10.682 17.924-16.433 6.519-4.959 21.888-13.808 21.888-13.808s15.356-8.898 22.908-12.062c8.759-3.669 13.918-5.265 23.194-7.309 6.481-1.428 10.18-2.063 16.794-2.625 8.316-0.707 13.056-0.635 21.372 0.076 7.223 0.618 11.294 1.196 18.342 2.893 6.157 1.483 9.515 2.707 15.462 4.886l0.435 0.16c6.199 2.27 9.835 3.603 15.804 6.714 3.29 1.715 5.013 2.895 8.226 4.75 2.765 1.594 4.134 2.844 7.074 4.083 3.682 1.553 5.969 1.937 9.933 2.463 3.895 0.518 6.148 0.55 10.065 0.231 2.313-0.188 3.622-0.301 5.875-0.842 2.842-0.683 4.378-1.386 7.006-2.591l0.098-0.044c2.496-1.144 3.87-1.869 6.174-3.363 3.217-2.085 4.949-3.436 7.616-6.188 2.338-2.418 3.443-4.046 5.278-6.755l0.196-0.285c2.176-3.211 5.905-10.231 5.905-10.231s3.277-5.113 4.971-8.605l0.149-0.31c1.425-2.945 2.283-4.714 3.209-7.951 1.050-3.685 1.353-5.862 1.553-9.689 0.141-2.742 0.081-4.295-0.175-7.029l-0.013-0.105c-0.269-2.881-0.427-4.561-1.259-7.363-0.657-2.223-1.216-3.415-2.206-5.509-1.685-3.554-2.837-5.486-5.235-8.602-2.436-3.168-3.913-4.958-7.1-7.371-2.543-1.925-4.309-2.489-7.070-4.083-3.217-1.855-5.099-2.758-8.23-4.75-5.675-3.613-8.649-6.097-13.713-10.328l-0.358-0.298c-4.86-4.060-7.599-6.357-11.964-10.947-4.992-5.257-7.526-8.492-11.674-14.441-4.774-6.844-7.206-10.914-10.752-18.47-2.82-6.007-4.122-9.527-6.123-15.855-2.871-9.054-4.066-14.319-5.269-23.74-1.037-8.124-1.007-20.945-1.007-20.945s-0.021-22.626 1.015-30.75c1.203-9.421 2.398-14.686 5.269-23.74 2.001-6.327 3.302-9.847 6.123-15.855 3.546-7.556 5.978-11.627 10.748-18.47 4.151-5.948 6.686-9.182 11.678-14.438 4.365-4.591 7.104-6.891 11.964-10.948l0.358-0.299c5.065-4.233 8.038-6.716 13.713-10.33 3.132-1.993 5.013-2.893 8.226-4.749 2.765-1.596 4.531-2.159 7.074-4.083 3.187-2.415 4.663-4.203 7.1-7.373 2.398-3.115 3.55-5.047 5.235-8.602 0.99-2.095 1.549-3.285 2.206-5.508 0.828-2.803 0.99-4.484 1.259-7.364l0.013-0.102c0.256-2.735 0.316-4.288 0.175-7.031-0.201-3.827-0.503-6.003-1.553-9.69-0.926-3.234-1.783-5.005-3.209-7.949l-0.149-0.311c-1.694-3.49-4.971-8.602-4.971-8.602s-3.729-7.023-5.905-10.231l-0.196-0.286c-1.835-2.709-2.94-4.335-5.278-6.754-2.667-2.756-4.399-4.105-7.616-6.191-2.304-1.493-3.678-2.219-6.174-3.362l-0.098-0.043c-2.628-1.207-4.164-1.907-7.006-2.59-2.253-0.542-3.563-0.657-5.875-0.845-3.917-0.32-6.17-0.286-10.065 0.23-3.964 0.529-6.251 0.909-9.933 2.466-1.907 0.802-3.153 1.609-4.548 2.513-0.755 0.491-1.553 1.007-2.526 1.57-1.126 0.649-2.074 1.22-2.97 1.758-1.647 0.99-3.123 1.877-5.257 2.991-5.594 2.914-10.709 4.843-16.239 6.874-5.948 2.176-9.306 3.401-15.462 4.885-7.049 1.698-11.119 2.274-18.342 2.893-8.316 0.713-13.056 0.781-21.372 0.077-6.613-0.563-10.313-1.199-16.794-2.628-9.276-2.039-14.434-3.639-23.194-7.305-7.556-3.166-18.645-9.6-18.645-9.6s-19.639-11.311-26.159-16.273c-7.556-5.751-11.52-9.421-17.924-16.431-4.48-4.902-6.878-7.787-10.671-13.231-4.77-6.848-7.078-10.991-10.62-18.547-3.076-6.566-4.612-10.377-6.665-17.331-1.796-6.076-2.415-9.596-3.503-15.834l-0.077-0.461c-1.135-6.498-1.801-10.317-2.091-17.041-0.158-3.703 0-5.79 0-9.498 0-3.191 0.397-5.005 0-8.166-0.495-3.968-1.306-6.14-2.833-9.835-1.498-3.635-2.594-5.598-4.83-8.832-1.318-1.907-2.074-2.987-3.669-4.668-2.010-2.121-3.388-3.098-5.747-4.774l-0.085-0.060c-2.24-1.591-3.554-2.419-5.999-3.665-3.413-1.741-5.453-2.569-9.169-3.503-3.264-0.815-5.222-0.96-8.486-1.195l-0.346-0.026c-3.87-0.282-9.937 0-9.937 0s-7.945-0.282-11.814 0l-0.341 0.026c-3.264 0.235-5.227 0.38-8.491 1.195-3.716 0.934-5.751 1.762-9.165 3.503-2.449 1.246-3.763 2.074-6.003 3.665l-0.085 0.060c-2.359 1.677-3.733 2.654-5.747 4.774-1.596 1.681-2.347 2.761-3.665 4.668-2.236 3.234-3.332 5.197-4.834 8.832-1.523 3.695-2.338 5.867-2.833 9.835-0.397 3.162 0 4.975 0 8.166 0 3.708 0.158 5.794 0 9.498-0.29 6.724-0.956 10.543-2.086 17.041l-0.081 0.461c-1.084 6.238-1.707 9.758-3.499 15.834-2.057 6.955-3.588 10.765-6.669 17.331-3.541 7.556-5.85 11.699-10.62 18.547-3.793 5.444-6.191 8.329-10.669 13.231-6.406 7.010-10.369 10.679-17.927 16.431-6.516 4.962-17.634 11.345-17.634 11.345s-19.595 11.337-27.148 14.502c-8.759 3.669-13.92 5.265-23.194 7.309-6.483 1.429-10.18 2.061-16.794 2.624-8.315 0.708-13.055 0.636-21.37-0.077-7.226-0.619-11.293-1.195-18.344-2.893-6.157-1.481-9.516-2.705-15.462-4.885l-0.436-0.158c-6.197-2.27-9.834-3.605-15.802-6.716-3.29-1.715-5.015-2.893-8.227-4.749-2.762-1.596-4.134-2.846-7.072-4.083-3.682-1.553-5.971-1.937-9.933-2.462-3.898-0.521-6.147-0.55-10.066-0.23-2.31 0.188-3.621 0.299-5.875 0.841-2.842 0.683-4.376 1.387-7.007 2.59l-0.096 0.047c-2.496 1.143-3.871 1.865-6.175 3.362-3.215 2.082-4.949 3.435-7.614 6.187-2.342 2.419-3.444 4.045-5.281 6.754l-0.194 0.286c-2.178 3.213-4.968 8.606-4.968 8.606s-4.215 6.737-5.907 10.231l-0.15 0.307c-1.428 2.944-2.285 4.715-3.209 7.953-1.052 3.682-1.354 5.862-1.552 9.685-0.142 2.743-0.082 4.297 0.175 7.031l0.010 0.107c0.271 2.88 0.43 4.557 1.26 7.36 0.657 2.223 1.216 3.418 2.208 5.513 1.684 3.55 2.836 5.483 5.233 8.602 2.437 3.166 3.913 4.958 7.099 7.369 2.543 1.924 4.311 2.487 7.072 4.083 3.213 1.856 5.097 2.761 8.227 4.749 5.678 3.614 8.65 6.097 13.715 10.33l0.357 0.299c4.86 4.062 7.6 6.357 11.962 10.948 4.996 5.257 7.529 8.491 11.677 14.438 4.774 6.848 7.205 10.914 10.751 18.47 2.82 6.007 4.119 9.527 6.124 15.855 2.868 9.054 4.066 14.323 5.268 23.744 1.036 8.124 1.017 30.793 1.017 30.793s0.028 12.821-1.009 20.945c-1.202 9.421-2.4 14.69-5.268 23.744-2.004 6.327-3.303 9.847-6.124 15.855-3.546 7.556-5.977 11.622-10.751 18.47-4.148 5.947-6.682 9.181-11.677 14.439-4.362 4.591-7.102 6.888-11.962 10.948l-0.357 0.298c-5.065 4.232-8.038 6.715-13.715 10.328-3.13 1.992-5.014 2.895-8.227 4.75-2.762 1.595-4.529 2.159-7.072 4.083-3.186 2.412-4.663 4.203-7.099 7.371-2.397 3.117-3.549 5.049-5.233 8.602-0.992 2.095-1.551 3.286-2.208 5.509-0.83 2.803-0.988 4.483-1.26 7.363l-0.010 0.105c-0.258 2.734-0.317 4.287-0.175 7.030 0.198 3.826 0.5 6.004 1.552 9.688 0.924 3.237 1.781 5.006 3.209 7.951l0.15 0.31c1.692 3.492 5.907 10.231 5.907 10.231s2.79 5.393 4.968 8.605l0.193 0.285c1.836 2.708 2.94 4.336 5.281 6.754 2.665 2.753 4.4 4.104 7.615 6.188 2.304 1.494 3.679 2.219 6.175 3.363l0.096 0.044c2.63 1.205 4.164 1.908 7.007 2.591 2.253 0.541 3.565 0.655 5.875 0.842 3.919 0.319 6.168 0.287 10.066-0.231 3.962-0.527 6.251-0.91 9.933-2.463 2.938-1.239 4.311-2.489 7.072-4.083 3.213-1.855 4.937-3.035 8.227-4.75 5.967-3.11 9.605-4.443 15.802-6.714l0.437-0.16c5.946-2.179 9.306-3.403 15.462-4.885 7.051-1.698 11.119-2.275 18.345-2.893 8.315-0.712 13.054-0.783 21.37-0.076 6.614 0.562 10.311 1.197 16.794 2.625 9.274 2.043 14.435 3.639 23.194 7.308 7.553 3.164 25.176 13.705 25.176 13.705s13.081 7.182 19.597 12.141c7.558 5.751 11.52 9.423 17.927 16.433 4.478 4.9 6.876 7.785 10.669 13.232 4.77 6.848 7.078 10.988 10.62 18.544 3.081 6.567 4.612 10.378 6.669 17.333 1.792 6.073 2.415 9.594 3.499 15.833l0.081 0.458c1.131 6.502 1.796 10.319 2.086 17.042 0.158 3.706 0 5.79 0 9.5 0 3.189-0.397 5.002 0 8.166 0.495 3.965 1.31 6.139 2.833 9.833 1.502 3.635 2.598 5.598 4.834 8.833 1.318 1.907 2.069 2.986 3.665 4.667 2.014 2.12 3.388 3.097 5.747 4.772l0.085 0.061c2.24 1.59 3.554 2.418 6.003 3.667 3.413 1.742 5.449 2.568 9.165 3.5 3.264 0.818 5.227 0.96 8.491 1.196l0.341 0.025zM685.043 447.979c0-95.462-77.393-172.855-172.855-172.855-95.465 0-172.855 77.393-172.855 172.855 0 95.465 77.39 172.855 172.855 172.855 95.462 0 172.855-77.389 172.855-172.855zM512.209 361.583c47.727 0 86.417 38.69 86.417 86.417s-38.69 86.417-86.417 86.417c-47.727 0-86.417-38.69-86.417-86.417s38.691-86.417 86.417-86.417z" />
<glyph unicode="&#xe913;" glyph-name="format-list-text" horiz-adv-x="1067" d="M106.667 842c0 23.564 19.102 42.667 42.667 42.667h298.667c23.565 0 42.667-19.103 42.667-42.667v-298.667c0-23.564-19.102-42.666-42.667-42.666h-298.667c-23.564 0-42.667 19.102-42.667 42.666v298.667zM192 799.334v-213.333h213.333v213.333h-213.333zM576 586c0 23.564 19.102 42.667 42.667 42.667h298.667c23.565 0 42.667-19.103 42.667-42.667s-19.102-42.667-42.667-42.667h-298.667c-23.565 0-42.667 19.102-42.667 42.667zM576 309.999c0 23.565 19.102 42.667 42.667 42.667h298.667c23.565 0 42.667-19.102 42.667-42.667s-19.102-42.667-42.667-42.667h-298.667c-23.565 0-42.667 19.102-42.667 42.667zM576 96.666c0 23.565 19.102 42.667 42.667 42.667h298.667c23.565 0 42.667-19.102 42.667-42.667s-19.102-42.667-42.667-42.667h-298.667c-23.565 0-42.667 19.102-42.667 42.667zM106.667 352.666c0 23.565 19.102 42.667 42.667 42.667h298.667c23.565 0 42.667-19.102 42.667-42.667v-298.667c0-23.565-19.102-42.667-42.667-42.667h-298.667c-23.564 0-42.667 19.102-42.667 42.667v298.667zM192 309.999v-213.333h213.333v213.333h-213.333zM576 779.333c0 23.564 19.102 42.667 42.667 42.667h298.667c23.565 0 42.667-19.102 42.667-42.667s-19.102-42.667-42.667-42.667h-298.667c-23.565 0-42.667 19.102-42.667 42.667z" />
<glyph unicode="&#xe914;" glyph-name="format-list-bulleted" horiz-adv-x="1067" d="M320 704c0 23.564 19.103 42.667 42.667 42.667h554.666c23.565 0 42.667-19.103 42.667-42.667s-19.102-42.667-42.667-42.667h-554.666c-23.564 0-42.667 19.103-42.667 42.667zM106.667 704c0 23.564 19.103 42.667 42.667 42.667h0.427c23.564 0 42.667-19.103 42.667-42.667s-19.102-42.667-42.667-42.667h-0.427c-23.564 0-42.667 19.103-42.667 42.667zM106.667 447.957c0 23.565 19.103 42.667 42.667 42.667h0.427c23.564 0 42.667-19.102 42.667-42.667s-19.102-42.667-42.667-42.667h-0.427c-23.564 0-42.667 19.102-42.667 42.667zM320 447.957c0 23.565 19.103 42.667 42.667 42.667h554.666c23.565 0 42.667-19.102 42.667-42.667s-19.102-42.667-42.667-42.667h-554.666c-23.564 0-42.667 19.102-42.667 42.667zM320 192c0 23.561 19.103 42.667 42.667 42.667h554.666c23.565 0 42.667-19.106 42.667-42.667 0-23.565-19.102-42.667-42.667-42.667h-554.666c-23.564 0-42.667 19.102-42.667 42.667zM106.667 192c0 23.561 19.103 42.667 42.667 42.667h0.427c23.564 0 42.667-19.106 42.667-42.667 0-23.565-19.102-42.667-42.667-42.667h-0.427c-23.564 0-42.667 19.102-42.667 42.667z" />
<glyph unicode="&#xe915;" glyph-name="floppy" horiz-adv-x="1067" d="M144.157 837.176c24.005 24.005 56.562 37.49 90.51 37.49h469.333c11.315 0 22.17-4.495 30.17-12.497l213.333-213.333c8-8.002 12.497-18.854 12.497-30.17v-469.333c0-33.946-13.487-66.505-37.491-90.509s-56.559-37.491-90.509-37.491h-597.333c-33.948 0-66.505 13.487-90.51 37.491s-37.49 56.563-37.49 90.509v597.333c0 33.948 13.486 66.505 37.49 90.51zM362.667 362.667v-256h341.333v256h-341.333zM234.667 789.333c-11.316 0-22.168-4.495-30.17-12.497s-12.497-18.854-12.497-30.17v-597.333c0-11.315 4.495-22.17 12.497-30.17s18.854-12.497 30.17-12.497h42.667v298.667c0 23.565 19.103 42.667 42.667 42.667h426.667c23.565 0 42.667-19.102 42.667-42.667v-298.667h42.667c11.315 0 22.17 4.497 30.17 12.497s12.497 18.854 12.497 30.17v451.66l-188.339 188.34h-323.661v-128h298.667c23.565 0 42.667-19.102 42.667-42.667s-19.102-42.667-42.667-42.667h-341.333c-23.564 0-42.667 19.103-42.667 42.667v170.667h-42.667z" />
<glyph unicode="&#xe916;" glyph-name="flag" d="M810.667 64l-298.667 170.667-298.667-170.667v682.667c0 22.632 8.99 44.337 24.994 60.34s37.708 24.994 60.34 24.994h426.667c22.63 0 44.335-8.991 60.339-24.994s24.994-37.708 24.994-60.34v-682.667z" />
<glyph unicode="&#xe917;" glyph-name="file-ok" horiz-adv-x="1067" d="M300.614 874.667h329.696c10.287 0 20.151-4.087 27.426-11.361l213.333-213.333c7.275-7.274 11.362-17.14 11.362-27.427v-484.847c0-30.865-12.262-60.463-34.082-82.283-21.824-21.824-51.422-34.082-82.283-34.082h-465.453c-30.862 0-60.459 12.258-82.282 34.082-21.822 21.82-34.082 51.418-34.082 82.283v620.605c0 30.862 12.26 60.459 34.082 82.281s51.42 34.082 82.282 34.082zM649.276 642.016h119.966l-119.966 119.966v-119.966zM300.614 797.091c-10.287 0-20.153-4.087-27.427-11.36s-11.36-17.14-11.36-27.427v-620.605c0-10.287 4.086-20.156 11.36-27.43s17.14-11.358 27.427-11.358h465.453c10.287 0 20.151 4.083 27.426 11.358s11.362 17.143 11.362 27.43v426.666h-193.946c-21.419 0-38.784 17.366-38.784 38.788v193.939h-271.512zM650.526 438.793c16.102 0 29.154-13.052 29.154-29.15 0-6.797-2.33-13.052-6.229-18.010l-158.178-158.673c-5.218-4.919-12.25-7.932-19.985-7.932-6.967 0-13.363 2.445-18.381 6.519l-82.753 80.981c-3.781 4.915-6.028 11.072-6.028 17.754 0 16.098 13.052 29.15 29.151 29.15 7.726 0 14.749-3.004 19.963-7.91l58.048-55.445 136.572 135.957c5.060 4.22 11.567 6.758 18.667 6.758z" />
<glyph unicode="&#xe918;" glyph-name="file-alert" horiz-adv-x="1067" d="M218.332 840.585c21.822 21.822 51.42 34.082 82.281 34.082h329.697c10.291 0 20.156-4.087 27.43-11.361l213.333-213.333c7.275-7.274 11.358-17.14 11.358-27.427v-484.847c0-30.865-12.258-60.459-34.082-82.283-21.82-21.824-51.418-34.082-82.278-34.082h-465.458c-30.862 0-60.459 12.258-82.281 34.082s-34.082 51.418-34.082 82.283v620.605c0 30.862 12.26 60.459 34.082 82.281zM300.614 797.091c-10.287 0-20.153-4.087-27.427-11.36s-11.361-17.14-11.361-27.427v-620.605c0-10.287 4.087-20.156 11.361-27.43 7.274-7.27 17.14-11.358 27.427-11.358h465.458c10.287 0 20.151 4.087 27.426 11.358 7.275 7.275 11.362 17.143 11.362 27.43v468.781l-190.613 190.612h-313.633zM533.329 603.125c21.423 0 38.788-17.366 38.788-38.788v-155.151c0-21.423-17.365-38.788-38.788-38.788s-38.788 17.365-38.788 38.788v155.151c0 21.422 17.365 38.788 38.788 38.788zM494.541 254.046c0 21.423 17.365 38.788 38.788 38.788h0.388c21.423 0 38.788-17.365 38.788-38.788 0-21.419-17.365-38.788-38.788-38.788h-0.388c-21.423 0-38.788 17.37-38.788 38.788z" />
<glyph unicode="&#xe919;" glyph-name="drawing-pin" horiz-adv-x="1067" d="M418.913 780.315c-5.454 7.312-16.125 8.085-22.577 1.637l-196.95-196.859c-6.453-6.45-5.683-17.124 1.63-22.58l221.818-165.521c15.037-11.221 26.331-26.726 32.398-44.48l53.355-156.096c3.584-10.479 16.909-13.577 24.742-5.747l257.57 257.451c7.838 7.834 4.736 21.175-5.751 24.751l-156.305 53.308c-17.783 6.063-33.314 17.37-44.548 32.431l-165.381 221.706zM341.137 837.177c40.111 40.093 106.453 35.284 140.365-10.175l165.38-221.707c1.805-2.422 4.305-4.241 7.164-5.216l156.305-53.306c65.212-22.238 84.476-105.173 35.746-153.877l-101.299-101.257 193.532-193.442c15.249-15.241 15.253-39.962 0.013-55.211-15.245-15.249-39.962-15.258-55.215-0.013l-193.557 193.468-101.039-100.996c-48.7-48.674-131.558-29.436-153.826 35.716l-53.356 156.096c-0.976 2.859-2.793 5.35-5.211 7.155l-221.818 165.521c-45.463 33.923-50.253 100.283-10.133 140.384l196.95 196.859z" />
<glyph unicode="&#xe91a;" glyph-name="document-edit" horiz-adv-x="1067" d="M840.435 58.3c24.107 23.667 37.649 55.77 37.649 89.246v259.435c0 21.299-17.267 38.562-38.566 38.562-21.295 0-38.562-17.263-38.562-38.562v-266.445c0-11.157-4.514-21.858-12.553-29.747-8.034-7.893-18.935-12.322-30.298-12.322h-531.335c-11.364 0-22.263 4.429-30.299 12.322-8.036 7.889-12.55 18.59-12.55 29.747v532.892c0 11.158 4.515 21.859 12.55 29.748s18.935 12.322 30.299 12.322l265.667-0.004c21.299 0 38.566 17.266 38.566 38.565s-17.267 38.565-38.566 38.565l-257.097 0.001c-34.093 0-66.79-13.297-90.898-36.966s-37.651-55.772-37.651-89.245v-518.868c0-33.476 13.544-65.579 37.651-89.246 24.108-23.671 56.805-36.966 90.898-36.966h514.193c34.095 0 66.79 13.295 90.901 36.966zM959.893 753.836c0-33.519-13.649-63.851-35.691-85.74l-368.994-369.916-170.374-44.787c-3.040-0.789-6.228-1.207-9.514-1.207-20.864 0-37.778 16.913-37.778 37.777 0 2.82 0.309 5.572 0.896 8.218l45.125 170.752 362.344 361.865c22.165 26.796 55.667 43.869 93.154 43.869 66.735 0 120.832-54.097 120.832-120.83zM882.351 753.836c0 23.907-19.383 43.287-43.29 43.287-13.060 0-24.768-5.783-32.704-14.928l-78.114-76.593-278.733-280.006-18.935-79.787 78.438 18.257 281.263 279.194 79.535 80.108c7.748 7.822 12.54 18.586 12.54 30.468z" />
<glyph unicode="&#xe91b;" glyph-name="document-bookmark" horiz-adv-x="1067" d="M957.286 160.085c0-36.8-14.891-72.090-41.395-98.112s-62.451-40.64-99.934-40.64h-565.299c-37.482 0-73.428 14.618-99.932 40.64s-41.393 61.312-41.393 98.112v575.826c0 36.8 14.89 72.093 41.393 98.115s62.45 40.64 99.932 40.64h565.299c37.483 0 73.429-14.619 99.934-40.64s41.395-61.315 41.395-98.115v-575.826zM532.288 789.869v-194.521l53.227 53.047c7.761 8.653 19.029 14.097 31.569 14.097s23.808-5.444 31.573-14.097l52.433-53.047v194.521h-168.802zM194.129 152.38c0-12.267 4.963-24.030 13.798-32.704s20.817-13.547 33.311-13.547h584.145c12.493 0 24.474 4.873 33.31 13.547 8.252 8.102 13.129 18.901 13.734 30.289l0.064 593.652c0 12.267-4.966 24.031-13.798 32.705-8.836 8.674-20.817 13.547-33.31 13.547h-38.707v-296.966c0-23.415-18.982-42.398-42.398-42.398-13.090 0-24.794 5.931-32.572 15.253l-94.622 93.885-95.817-95.258c-7.753-8.529-18.94-13.879-31.377-13.879-23.415 0-42.394 18.982-42.394 42.398v296.966h-206.26c-12.494 0-24.476-4.873-33.311-13.547s-13.798-20.438-13.798-32.705v-591.237z" />
<glyph unicode="&#xe91c;" glyph-name="danger" d="M274.168 460.062c-83.124-189.141-151.793-349.367-151.793-355.388 0-7.232 139.746-12.049 392.736-12.049 368.64 0 392.734 1.203 385.506 21.683-4.821 10.846-74.692 171.068-155.409 354.185l-146.974 333.704-85.534 1.204h-85.534l-152.998-343.34zM459.691 646.79v-144.564h-143.358l21.684 51.802c56.621 128.903 108.425 237.327 114.446 237.327 3.614 0 7.228-65.054 7.228-144.565zM644.011 645.585c31.326-71.078 56.623-131.311 56.623-136.132 0-3.614-32.525-7.228-72.282-7.228h-72.282v136.132c0 128.903 6.020 165.044 24.094 144.564 4.817-6.023 33.732-67.463 63.846-137.336zM459.691 261.282v-144.563h-313.222l16.866 39.757c8.433 20.48 37.346 85.534 62.645 144.563l45.779 104.811h187.932v-144.567zM811.469 268.514c31.322-71.078 57.822-134.929 57.822-140.954s-69.871-10.842-156.608-10.842h-156.612v136.132c0 75.895 3.614 140.949 8.431 145.771 4.821 4.817 49.395 6.020 98.786 4.817l89.148-3.614 59.034-131.311z" />
<glyph unicode="&#xe91d;" glyph-name="close-circle-outline" horiz-adv-x="1067" d="M534.229 770.667c194.701 0 352.525-157.824 352.525-352.521 0-83.767-29.214-160.704-78.012-221.188l60.847-58.88c5.265-5.658 8.482-13.248 8.482-21.589 0-17.515-14.195-31.714-31.714-31.714-9.754 0-18.479 4.403-24.294 11.332l-57.293 55.386c-61.807-53.487-142.383-85.867-230.541-85.867-88.785 0-169.901 32.819-231.881 86.989l-58.216-56.282c-5.818-6.929-14.544-11.332-24.298-11.332-17.515 0-31.714 14.199-31.714 31.714 0 8.341 3.22 15.927 8.484 21.589l62.021 60.015c-48.138 60.275-76.916 136.687-76.916 219.827 0 194.696 157.824 352.521 352.521 352.521zM534.229 706.572c-159.298 0-288.426-129.129-288.426-288.426 0-159.3 129.128-288.427 288.426-288.427 159.3 0 288.427 129.126 288.427 288.427 0 159.297-129.126 288.426-288.427 288.426zM291.166 798.62c0 17.515-14.199 31.714-31.714 31.714-9.61 0-18.223-4.275-24.038-11.026l-116.596-112.825c-5.264-5.661-8.484-13.25-8.484-21.591 0-17.515 14.199-31.714 31.714-31.714 9.754 0 18.48 4.404 24.298 11.332l114.58 110.771c6.296 5.795 10.24 14.106 10.24 23.338zM775.543 798.62c0 17.515 14.199 31.714 31.714 31.714 9.609 0 18.223-4.275 24.038-11.026l116.595-112.825c5.265-5.661 8.486-13.25 8.486-21.591 0-17.515-14.199-31.714-31.714-31.714-9.754 0-18.483 4.404-24.299 11.332l-114.581 110.771c-6.293 5.795-10.24 14.106-10.24 23.338zM423.833 395.401c0 17.732 14.375 32.111 32.111 32.111 8.73 0 16.649-3.486 22.438-9.143l41.779-42.176 107.341 107.558c5.619 4.83 12.928 7.748 20.919 7.748 17.732 0 32.107-14.374 32.107-32.107 0-7.996-2.918-15.305-7.753-20.928l-130.573-130.628c-5.747-5.431-13.508-8.764-22.042-8.764-8.538 0-16.294 3.332-22.046 8.764l-66.825 66.987c-4.656 5.572-7.459 12.749-7.459 20.578z" />
<glyph unicode="&#xe91e;" glyph-name="circle-warning" horiz-adv-x="1067" d="M533.333 797.091c-192.797 0-349.091-156.294-349.091-349.091s156.294-349.090 349.091-349.090c192.798 0 349.090 156.292 349.090 349.090s-156.292 349.091-349.090 349.091zM106.667 448c0 235.642 191.025 426.667 426.667 426.667 235.639 0 426.667-191.025 426.667-426.667 0-235.644-191.027-426.667-426.667-426.667-235.642 0-426.667 191.023-426.667 426.667zM533.329 641.917c21.423 0 38.788-17.366 38.788-38.788v-155.15c0-21.423-17.365-38.788-38.788-38.788s-38.788 17.365-38.788 38.788v155.15c0 21.422 17.365 38.788 38.788 38.788zM494.541 292.838c0 21.423 17.365 38.788 38.788 38.788h0.388c21.423 0 38.788-17.365 38.788-38.788 0-21.419-17.365-38.788-38.788-38.788h-0.388c-21.423 0-38.788 17.37-38.788 38.788z" />
<glyph unicode="&#xe91f;" glyph-name="circle-time-arrow" horiz-adv-x="1067" d="M775.322 798.756c-78.703 54.285-173.372 80.544-268.791 74.558-95.424-5.985-186.067-43.866-257.373-107.56l-56.875-51.188v117.459c0 23.55-19.091 42.641-42.641 42.641s-42.641-19.091-42.641-42.641v-213.204c0-23.55 19.091-42.641 42.641-42.641h213.204c23.55 0 42.641 19.091 42.641 42.641s-19.091 42.641-42.641 42.641h-102.086l45.268 40.74c57.036 50.924 129.527 81.211 205.84 85.997 76.339 4.788 152.073-16.218 215.036-59.646s109.508-106.757 132.151-179.817c22.647-73.059 20.079-151.608-7.283-223.037-27.366-71.424-77.943-131.584-143.607-170.807-65.664-39.228-142.605-55.249-218.466-45.487-75.864 9.758-146.247 44.732-199.845 99.298-53.598 54.571-87.301 125.568-95.697 201.596-2.585 23.407-23.656 40.286-47.063 37.7-23.408-2.581-40.288-23.654-37.703-47.061 10.495-95.036 52.624-183.782 119.621-251.994s154.975-111.927 249.803-124.126c94.831-12.198 191.010 7.825 273.088 56.858 82.082 49.037 145.301 124.233 179.507 213.513 34.206 89.284 37.41 187.473 9.105 278.796-28.309 91.325-86.485 170.486-165.193 224.771zM576.030 661.443c0 23.55-19.089 42.641-42.641 42.641-23.548 0-42.637-19.091-42.637-42.641v-213.204c0-16.154 9.122-30.916 23.569-38.14l170.564-85.282c21.065-10.534 46.677-1.997 57.207 19.068 10.534 21.065 1.993 46.677-19.068 57.207l-146.995 73.498v186.853z" />
<glyph unicode="&#xe920;" glyph-name="circle-time" horiz-adv-x="1067" d="M106.667 448c0 235.647 191.019 426.667 426.667 426.667s426.667-191.020 426.667-426.667c0-235.648-191.019-426.667-426.667-426.667s-426.667 191.019-426.667 426.667zM533.333 797.091c-192.804 0-349.091-156.287-349.091-349.091 0-192.802 156.287-349.090 349.091-349.090 192.802 0 349.090 156.288 349.090 349.090 0 192.803-156.288 349.091-349.090 349.091zM494.835 680.699c0 21.406 17.353 38.759 38.758 38.759s38.758-17.353 38.758-38.759v-169.105l96.725 47.386c5.764 3.402 12.489 5.354 19.669 5.354 21.406 0 38.758-17.353 38.758-38.758 0-16.038-9.741-29.798-23.625-35.695l-151.987-76.087c-5.449-2.923-11.682-4.582-18.3-4.582-21.406 0-38.758 17.353-38.758 38.758v232.729z" />
<glyph unicode="&#xe921;" glyph-name="circle-stop" horiz-adv-x="1067" d="M106.667 448c0 235.648 191.019 426.667 426.667 426.667s426.667-191.019 426.667-426.667c0-235.648-191.019-426.667-426.667-426.667s-426.667 191.019-426.667 426.667zM533.333 797.091c-192.804 0-349.091-156.288-349.091-349.091s156.287-349.090 349.091-349.090c192.802 0 349.090 156.288 349.090 349.090 0 192.803-156.288 349.091-349.090 349.091zM612.164 601.708c21.423 0 38.788-13.82 38.788-30.867v-246.933c0-17.050-17.365-30.869-38.788-30.869s-38.788 13.82-38.788 30.869v246.933c0 17.047 17.365 30.867 38.788 30.867zM455.206 601.708c21.419 0 38.784-13.82 38.784-30.867v-246.933c0-17.050-17.365-30.869-38.784-30.869-21.423 0-38.79 13.82-38.79 30.869v246.933c0 17.047 17.367 30.867 38.79 30.867z" />
<glyph unicode="&#xe922;" glyph-name="circle-search" horiz-adv-x="1067" d="M490.667 874.667c212.075 0 384-171.922 384-384 0-90.667-31.424-173.99-83.972-239.684l156.809-156.809c16.661-16.661 16.661-43.674 0-60.339-16.661-16.661-43.678-16.661-60.339 0l-156.809 156.809c-65.69-52.553-149.022-83.977-239.689-83.977-212.078 0-384 171.925-384 384 0 212.078 171.922 384 384 384zM490.667 789.334c-164.949 0-298.667-133.718-298.667-298.667s133.717-298.667 298.667-298.667c164.949 0 298.667 133.717 298.667 298.667s-133.717 298.667-298.667 298.667z" />
<glyph unicode="&#xe923;" glyph-name="circle-plus" horiz-adv-x="1067" d="M533.333 797.091c-192.798 0-349.091-156.294-349.091-349.091s156.293-349.090 349.091-349.090c192.798 0 349.090 156.292 349.090 349.090s-156.292 349.091-349.090 349.091zM106.667 448c0 235.642 191.025 426.667 426.667 426.667 235.639 0 426.667-191.025 426.667-426.667 0-235.639-191.027-426.667-426.667-426.667-235.642 0-426.667 191.027-426.667 426.667zM572.105 603.171c0 21.422-17.365 38.788-38.788 38.788s-38.788-17.366-38.788-38.788v-116.365h-116.365c-21.422 0-38.788-17.365-38.788-38.788s17.366-38.788 38.788-38.788h116.365v-116.365c0-21.419 17.365-38.788 38.788-38.788s38.788 17.37 38.788 38.788v116.365h116.365c21.419 0 38.788 17.365 38.788 38.788s-17.37 38.788-38.788 38.788h-116.365v116.365z" />
<glyph unicode="&#xe924;" glyph-name="circle-ok" horiz-adv-x="1067" d="M106.667 448c0 235.648 191.019 426.667 426.667 426.667s426.667-191.019 426.667-426.667c0-235.648-191.019-426.667-426.667-426.667s-426.667 191.019-426.667 426.667zM533.333 797.091c-192.804 0-349.091-156.288-349.091-349.091s156.287-349.090 349.091-349.090c192.802 0 349.090 156.288 349.090 349.090 0 192.803-156.288 349.091-349.090 349.091zM677.107 553.014c15.147-15.148 15.147-39.709 0-54.855l-155.149-155.149c-15.147-15.147-39.71-15.147-54.857 0l-77.574 77.577c-15.148 15.147-15.148 39.706 0 54.852s39.708 15.147 54.854 0l50.146-50.146 127.723 127.721c15.151 15.148 39.71 15.148 54.857 0z" />
<glyph unicode="&#xe925;" glyph-name="circle-minus" horiz-adv-x="1067" d="M533.333 797.091c-192.798 0-349.091-156.294-349.091-349.091s156.293-349.090 349.091-349.090c192.798 0 349.090 156.292 349.090 349.090s-156.292 349.091-349.090 349.091zM106.667 448c0 235.642 191.025 426.667 426.667 426.667 235.639 0 426.667-191.025 426.667-426.667 0-235.639-191.027-426.667-426.667-426.667-235.642 0-426.667 191.027-426.667 426.667zM342.583 448.004c0 21.423 17.366 38.788 38.788 38.788h310.307c21.419 0 38.788-17.365 38.788-38.788s-17.37-38.788-38.788-38.788h-310.307c-21.422 0-38.788 17.365-38.788 38.788z" />
<glyph unicode="&#xe926;" glyph-name="circle-close" d="M512 797.091c-192.797 0-349.091-156.294-349.091-349.091s156.294-349.090 349.091-349.090c192.798 0 349.090 156.292 349.090 349.090s-156.292 349.091-349.090 349.091zM85.333 448c0 235.642 191.025 426.667 426.667 426.667 235.639 0 426.667-191.025 426.667-426.667 0-235.639-191.027-426.667-426.667-426.667-235.642 0-426.667 191.027-426.667 426.667zM423.049 591.806c-15.148 15.148-39.706 15.148-54.854 0s-15.148-39.707 0-54.854l88.937-88.939-88.937-88.934c-15.148-15.147-15.148-39.71 0-54.857s39.707-15.147 54.854 0l88.934 88.939 88.934-88.939c15.151-15.147 39.71-15.147 54.857 0s15.147 39.71 0 54.857l-88.939 88.934 88.939 88.939c15.147 15.148 15.147 39.707 0 54.854s-39.706 15.148-54.857 0l-88.934-88.937-88.934 88.937z" />
<glyph unicode="&#xe927;" glyph-name="camera-service" d="M234.318 340.48l46.327 33.498-14.436 69.265h91.785c0 0 1.136 18.752 2.373 30.72 1.575 15.241 2.551 23.804 5.316 38.874 2.448 13.346 4.128 20.785 7.642 33.89 4.846 18.072 14.952 45.519 14.952 45.519l-84.061 37.213c0 0 9.873 17.148 16.945 27.657 8.114 12.058 22.261 29.824 22.261 29.824l69.862-62.548c0 0 15.174 17.091 26.17 26.694 9.114 7.959 14.434 12.279 24.602 18.842 9.95 6.423 15.983 9.338 26.692 14.394 13.402 6.327 35.328 13.87 35.328 13.87l-39.253 82.697c0 0 26.039 6.61 42.918 9.944 16.708 3.301 43.038 7.066 43.038 7.066v-82.775c0 0 20.126-1.796 32.981-3.298 14.281-1.669 22.31-2.515 36.484-4.947 13.363-2.294 20.8-3.939 34.010-7.008 14.835-3.447 37.722-9.894 37.722-9.894l32.567 70.083 36.075-21.231 34.010-25.56-62.665-54.211c0 0 16.644-18.513 26.385-31.125 9.856-12.762 15.296-20.048 23.706-33.805 7.573-12.39 11.264-19.941 17.451-32.6l0.687-1.411c4.668-9.546 11.337-24.735 11.337-24.735l72.145 27.029c0 0 4.621-19.189 7.215-31.564 2.944-14.029 6.801-36.075 6.801-36.075h-79.565c0 0-0.93-23.578-2.884-38.545-1.801-13.794-3.324-21.474-6.391-35.042-3.349-14.818-5.692-23.036-10.304-37.513-3.524-11.063-9.894-28.036-9.894-28.036l74.62-37.717c0 0-10.965-19.268-18.761-31.125-8.047-12.25-21.85-30.507-21.85-30.507l-64.346 60.143c0 0-18.283-17.92-31.279-27.849-15.945-12.186-25.903-17.715-43.529-27.315-15.002-8.175-39.462-18.884-39.462-18.884l33.89-85.060c0 0-20.425-6.656-33.89-9.301-14.481-2.846-37.547-4.322-37.547-4.322v90.377c0 0-24.538-1.079-40.201 0-15.287 1.054-23.927 1.946-38.874 5.316-15.693 3.533-24.098 7.104-39.206 12.625-11.814 4.314-29.905 11.959-29.905 11.959l-37.875-84.723c0 0-18.214 9.634-29.24 16.858-9.809 6.426-24.255 17.698-24.255 17.698l-46.184-29.572c0 0 16.242-12.57 26.912-20.267 18.358-13.244 28.376-21.261 48.177-32.23 19.302-10.692 51.499-23.258 51.499-23.258l38.976 87.629 70.716-13.598v-93.154c0 0 43.319 0.243 70.716 4.079 22.020 3.081 34.385 5.41 55.753 11.558 24.858 7.151 61.794 23.838 61.794 23.838l-35.012 87.522 48.026 30.524 68.672-68.224c0 0 25.604 29.329 40.397 49.37 11.085 15.023 16.947 23.727 26.931 39.501 17.664 27.908 40.845 74.057 40.845 74.057l-83.038 40.845 13.914 61.043h94.259c0 0-5.41 35.618-9.429 58.347-4.19 23.731-6.647 37.024-11.669 60.594-6.003 28.193-17.054 71.814-17.054 71.814l-85.278-31.419-31.868 49.821 66.428 58.798c0 0-27.563 30.040-47.578 46.679-22.396 18.617-36.233 27.697-61.491 42.191-23.59 13.537-62.844 30.033-62.844 30.033l-36.766-78.129-59.477 10.252v90.676c0 0-44.834-1.071-73.233-4.967-22.272-3.055-34.735-5.357-56.525-10.88-32.115-8.139-80.15-27.796-80.15-27.796l38.887-84.139-42.422-28.989-71.058 65.729c0 0-31.54-32.347-48.786-55.475-13.781-18.48-20.699-29.498-32.171-49.494-11.312-19.717-26.161-51.996-26.161-51.996l89.442-41.356-13.742-68.581h-99.353c0 0 0.575-10.807 1.031-17.728 0.562-8.538 1.649-21.85 1.649-21.85s1.212-16.508 2.679-27.004c1.233-8.819 3.916-22.468 3.916-22.468l9.688-42.871 5.359-22.78zM239.13 319.565l185.555 132.207c0 0-1.251 15.228 0 24.849 1.056 8.119 2.723 13.099 5.023 19.951 0.452 1.348 0.926 2.769 1.429 4.301 2.807 8.593 4.523 13.393 8.316 21.598 4.557 9.86 7.433 15.322 13.611 24.256 6.912 9.99 11.422 15.27 20.271 23.59 6.997 6.58 11.43 9.733 19.268 15.284 0.947 0.669 1.847 1.31 2.714 1.927 7.241 5.155 12.1 8.615 20.877 12.692 12.028 5.585 19.499 7.354 32.563 9.635 10.385 1.814 16.367 2.455 26.906 2.205 8.171-0.195 12.834-0.422 20.813-2.205 8.026-1.794 12.403-3.514 19.887-6.924 5.828-2.654 8.981-4.433 14.396-7.851 6.118-3.863 9.485-6.21 14.916-10.991 5.568-4.903 8.678-7.802 13.086-13.772 0.431-0.587 0.841-1.135 1.233-1.656 2.214-2.947 3.806-5.069 5.308-8.91 1.882-4.814 2.615-7.862 2.355-13.024-0.201-4.049-0.508-6.5-2.355-10.109-0.896-1.757-1.724-2.761-2.803-4.077-0.277-0.333-0.567-0.687-0.879-1.075-2.274-2.846-6.391-6.801-6.391-6.801l-81.626-56.273 7.834-10.308 80.183 56.478c0 0 4.988 3.004 8.452 4.331 3.119 1.195 4.932 1.826 8.243 2.266 3.191 0.422 5.060 0.457 8.247 0 4.032-0.576 6.302-1.378 9.894-3.298 3.652-1.95 5.227-3.998 7.561-7.42 0.107-0.154 0.209-0.303 0.307-0.448 1.574-2.304 2.351-3.439 3.375-6.242 0.418-1.156 0.811-2.202 1.178-3.187 1.335-3.584 2.368-6.349 3.533-10.684 1.988-7.42 2.684-11.721 3.401-19.366 0.828-8.853 0.666-13.901 0-22.767s-1.455-13.837-3.401-22.507c-2.765-12.297-4.992-19.145-10.21-30.622-7.526-16.55-12.915-25.822-25.463-38.98-9.306-9.754-15.735-14.101-26.982-21.534-12.356-8.158-19.669-12.497-33.536-17.673-8.559-3.196-13.53-4.672-22.494-6.426-12.958-2.539-20.544-3.127-33.724-2.394-11.324 0.631-17.801 1.451-28.655 4.74-8.081 2.449-19.994 8.247-19.994 8.247l-180.241-126.703c0 0 0.616-12.305 0-20.151-0.831-10.573-4.972-26.692-4.972-26.692s-3.691-13.316-7.59-21.201c-3.12-6.306-5.66-9.865-9.364-15.057-0.524-0.734-1.071-1.502-1.646-2.313-7.032-9.924-11.203-15.458-19.936-23.923-6.752-6.545-10.864-9.946-18.607-15.283-7.752-5.342-12.419-7.94-20.932-11.964-10.353-4.89-16.476-7.155-27.577-9.967-10.816-2.739-17.097-3.797-28.242-4.318-11.812-0.55-18.564-0.055-30.216 1.963-11.718 2.027-18.199 4.049-29.277 8.371-1.692 0.661-3.255 1.242-4.731 1.788-5.885 2.176-10.397 3.849-16.212 8.158-0.603 0.448-1.187 0.875-1.751 1.289-4.931 3.61-8.449 6.182-11.355 12.058-3.031 6.127-3.725 10.492-2.845 17.271 0.792 6.101 2.469 9.527 6.009 14.558 2.167 3.076 4.217 4.749 6.622 6.711 1.029 0.836 2.124 1.728 3.32 2.807 7.779 7.014 20.943 16.751 20.943 16.751l56.784 40.303-11.253 14.916-79.581-61.239c0 0-5.911-4.139-10.182-5.756-3.832-1.455-6.146-1.975-10.227-2.355-0.256-0.026-0.503-0.047-0.741-0.073-2.405-0.23-4.005-0.384-6.558 0.073-2.686 0.474-6.108 1.289-8.618 2.355-0.586 0.247-1.093 0.461-1.54 0.644-2.839 1.186-3.294 1.378-6.499 3.836-2.693 2.065-4.83 4.454-6.686 7.296-1.868 2.859-2.051 3.55-2.737 6.118-0.112 0.422-0.237 0.892-0.384 1.429-1.278 4.638-2.125 8.405-2.639 13.188-0.331 3.085-0.226 5.794-0.116 8.631 0.057 1.463 0.115 2.961 0.115 4.561 0 1.86-0.022 3.405-0.044 4.86-0.038 2.628-0.072 4.966 0.038 8.316 0.344 10.47 0.952 16.358 2.647 26.697 1.921 11.716 3.165 18.355 7.069 29.572 3.969 11.396 6.508 17.877 13.085 27.998 4.862 7.484 8.604 11.482 14.218 17.481 0.643 0.687 1.311 1.399 2.008 2.15 0.71 0.759 1.389 1.493 2.043 2.197 5.975 6.443 9.94 10.718 17.584 16.384 10.075 7.462 11.761 8.346 23.018 13.867 6.272 3.076 14.829 6.733 21.471 8.9 7.905 2.577 12.724 2.97 20.939 3.644l0.259 0.017c1.829 0.154 3.513 0.303 5.122 0.452 5.11 0.465 9.461 0.858 15.29 0.858 0.847 0 1.651 0.004 2.42 0.004 7.027 0.013 11.156 0.021 18.777-1.314 4.241-0.742 6.857-1.634 10.427-2.85 0.749-0.256 1.54-0.525 2.396-0.811 7.391-2.466 18.473-7.535 18.473-7.535zM100.013 217.971l-4.156-26.697 60.323 47.902 6.38 4.122c0 0 3.937 3.14 6.813 4.535 2.749 1.331 5.341 1.882 8.911 2.266 0.365 0.038 0.688 0.077 0.984 0.111 1.888 0.222 2.642 0.307 5.966-0.111 3.844-0.482 10.73-4.326 10.73-4.326s7.451-5.581 11.749-9.69c4.524-4.326 7.040-7.518 10.388-11.767 0.805-1.024 1.658-2.108 2.598-3.281 1.159-1.446 2.237-2.765 3.255-4.011 4.396-5.385 7.682-9.412 11.586-16.393 3.43-6.135 5.198-9.728 7.421-16.397 1.691-5.073 3.298-13.286 3.298-13.286s1.14-6.814 0-10.927c-0.982-3.541-4.535-8.243-4.535-8.243l-4.947-6.596-66.167-48.439c0 0 4.647-1.075 7.674-1.442 5.655-0.691 8.913-0.499 14.588 0 5.867 0.516 9.124 1.263 14.841 2.679l0.643 0.158c6.949 1.719 11.134 2.756 17.702 6.025 5.959 2.965 9.311 5.662 13.871 9.327 0.947 0.764 1.946 1.566 3.031 2.423 0.886 0.695 1.723 1.353 2.523 1.975 5.103 3.989 8.675 6.775 13.349 12.245 4.134 4.838 6.177 7.842 9.276 13.397 3.407 6.114 4.876 9.826 7.008 16.491 2.184 6.831 3.066 10.816 3.916 17.933 1.050 8.794 0 22.677 0 22.677l-2.107 16.627 226.282 162.334c0 0 11.584-5.069 19.183-7.872 0.819-0.303 1.604-0.593 2.359-0.875 6.75-2.5 11.204-4.151 18.795-6.012 0.294-0.073 0.589-0.145 0.879-0.218 9.003-2.214 14.447-3.55 23.962-3.721 11.055-0.192 17.472 0.678 28.036 3.938 8.26 2.547 12.766 4.646 20.169 9.101 11.127 6.69 19.703 13.606 25.020 21.897 1.869 2.914 3.575 5.393 5.193 7.735 2.978 4.326 5.641 8.196 8.427 13.495 4.13 7.851 4.783 11.051 6.212 18.078 0.060 0.29 0.119 0.585 0.179 0.887 1.293 6.34 1.634 16.491 1.634 16.491l-62.046-44.732c0 0-7.334-4.595-12.574-6.182-4.369-1.327-6.98-2.039-11.541-1.856-5.171 0.209-8.081 1.335-12.779 3.503-4.169 1.929-6.417 3.767-9.634 6.404-0.478 0.388-0.973 0.798-1.498 1.225-5.308 4.301-7.991 7.125-12.369 12.365-4.834 5.794-7.057 9.574-10.79 15.915l-0.341 0.576c-4.070 6.921-6.379 10.859-9.276 18.347-0.363 0.947-0.713 1.801-1.041 2.607-1.207 2.957-2.146 5.252-2.667 8.934-0.555 3.908-0.427 6.182 0 10.103 0.021 0.201 0.043 0.401 0.064 0.593 0.422 3.921 0.691 6.409 2.406 10.125 2.581 5.589 10.513 11.75 10.513 11.75l71.117 48.85c0 0-6.468 3.61-10.927 5.153-7.313 2.534-11.844 2.829-19.58 3.092-7.919 0.269-12.518 0.071-20.203-1.855-10.219-2.562-15.501-6.028-24.226-11.758l-0.303-0.198c-8.265-5.424-12.621-9.068-19.375-16.285-6.251-6.673-9.323-10.91-14.016-18.756-5.478-9.152-8.265-14.669-11.132-24.943-2.244-8.038-2.611-13.359-3.115-20.745-0.094-1.374-0.196-2.82-0.311-4.369-0.934-12.378 0-31.782 0-31.782l-233.139-170.33-16.225 9.421c0 0-10.621 6.229-18.057 8.64-8.856 2.863-14.245 3.631-23.553 3.661-9.51 0.034-14.904-1.148-24.076-3.661-7.049-1.933-10.994-3.281-17.534-6.545-7.331-3.657-11.204-6.315-17.534-11.516-6.81-5.594-10.523-9.079-15.683-16.222-0.297-0.414-0.59-0.819-0.878-1.216-5.639-7.787-9.373-12.945-10.918-22.861z" />
<glyph unicode="&#xe928;" glyph-name="camera-overview" d="M510.067 528.981h373.111c29.658 0 50.603 29.059 41.225 57.198-128.371 385.127-667.803 399.565-816.596 21.86l-7.357-18.674c-11.42-28.995 9.952-60.384 41.114-60.384h368.503zM176.708 476.292v-177.51c53.484-381.538 602.948-380.983 670.302-1.651 0.196 1.092 0.294 2.206 0.294 3.311v175.851h-69.675v-149.658c0-0.943-0.081-1.886-0.235-2.82-53.431-322.829-489.31-323.302-531.738 1.404v151.074h-68.949zM517.811 169.698c67.243 0 121.749 54.507 121.749 121.741 0 67.238-54.507 121.745-121.749 121.745-67.238 0-121.745-54.507-121.745-121.745 0-67.234 54.507-121.741 121.745-121.741zM590.357 291.46c0-40.077-32.491-72.563-72.567-72.563s-72.563 32.486-72.563 72.563c0 40.077 32.486 72.563 72.563 72.563s72.567-32.486 72.567-72.563z" />
<glyph unicode="&#xe929;" glyph-name="camera-fill" d="M729.873 341.577l122.052-105.566c6.656-5.585 13.474-10.048 20.45-13.385 6.976-3.341 13.875-5.009 20.702-5.009 13.508 0 24.482 4.527 32.922 13.581 8.444 9.058 12.663 20.873 12.663 35.447v361.79c0 14.573-4.22 26.387-12.663 35.441-8.439 9.055-19.413 13.582-32.922 13.582-6.852 0-13.751-1.675-20.706-5.024-6.95-3.349-13.764-7.806-20.446-13.37l-122.052-105.234v-212.253zM199.622 165.282h367.444c35.814 0 63.761 9.796 83.836 29.389 20.079 19.593 30.118 47.241 30.118 82.94v341.057c0 35.479-9.481 63.016-28.45 82.609-18.965 19.593-46.464 29.39-82.496 29.39h-370.452c-34.714 0-62.441-9.797-83.18-29.39s-31.108-47.143-31.108-82.649v-342.071c0-35.703 10.039-63.177 30.118-82.415 20.079-19.243 48.135-28.86 84.17-28.86z" />
<glyph unicode="&#xe92a;" glyph-name="camera-black" d="M88.313 103.39l235.542 180.582-212.494 80.969c0 0-59.876 26.334-42.385 94.592l10.173 27.627c0 0-42.333 19.998-31.5 67.166l74.929 202.534c0 0 15.589 43.625 67.255 34.458l767.334-283.524c0 0 27.166-10.167 19.665-40.166l-17.997-48.337c0 0-2.837-9.498-15.501-16.998l-56.499-26.334-3.503-9.664c0 0 43.836-21.837 29.833-69.837l-36.719-99.302c0 0-16.388-44.058-64.474-36.804l-11.554 4.028c0 0-38.417-42.445-94.029-21.76l-232.111 86.507-162.153-125.517h-95.687l190.699 149.722-19.588 7.654-203.081-157.594h-96.154zM127.634 445.901l8.090 18.445 564.026-208.060c50.786-17.314 87.147 19.622 87.147 19.622l-24.815-66.948c-9.523-23.087-32.61-12.983-32.61-12.983l-588.246 219.827c-20.711 6.797-13.592 30.097-13.592 30.097zM177.553 732.516l-70.774-191.703 609.513-225.178c22.007-9.523 33.434 13.333 33.434 13.333l17.353 46.549c4.442 12.698 16.503 18.197 16.503 18.197l122.731 56.922 3.174 9.946-446.153 166.042c7.33-9.333 2.078-24.882 2.078-24.882l-33.579-91.786c-13-36.996-42.5-25.165-42.5-25.165-27 10.5-15.334 41.502-15.334 41.502l33.833 93.165c8.167 19.834 19.832 19.834 19.832 19.834l-60.332 22.667c6.333-8.833 1.333-23.667 1.333-23.667l-35.5-96.666c-14-29.335-40.166-20.832-40.166-20.832-27.667 11.499-17.833 38.331-17.833 38.331l36.167 97.5c7.333 18.726 17.333 19.833 17.333 19.833l-62.071 22.13c7.666-6.468 2.635-23.237 2.635-23.237l-35.694-96.302c-11.978-32.58-41.443-20.842-41.443-20.842-25.872 12.457-17.248 36.652-17.248 36.652l36.173 98.698c3.833 11.978 17.488 19.404 17.488 19.404l-50.953 19.555z" />
<glyph unicode="&#xe92b;" glyph-name="camera" d="M334.787 213.107l-295.492 234.982 763.529 404.119 181.888-292.831-649.925-346.27zM352.401 394.428c35.974 0 65.137 29.163 65.137 65.135 0 35.977-29.163 65.139-65.137 65.139s-65.136-29.163-65.136-65.139c0-35.972 29.162-65.135 65.136-65.135zM535.569 287.241v-95.305c0 0 4.254-24.452 9.766-39.258 3.247-8.708 5.001-13.722 9.766-21.705 4.117-6.891 7.275-10.206 12.245-16.512 8.418-10.684 12.992-16.922 22.886-26.253 6.933-6.537 11.063-9.997 18.85-15.488 9.438-6.647 14.933-10.359 25.583-14.81 8.367-3.494 13.367-5.769 22.050-8.375 9.719-2.918 25.075-5.76 25.075-5.76h223.509v119.902h-208.521l-8.422 0.849-8.644 2.27-7.228 3.115-6.519 4.535-7.228 6.946-4.535 6.093-3.541 6.519-2.692 8.785-0.853 6.66v144.269l-111.548-64.623v-1.856zM138.701 184.375l-101.818 139.921c0 0-0.737 1.045-1.122 1.766l-0.039 0.073c-0.471 0.883-0.756 1.417-0.992 2.411-0.243 1.024-0.264 1.638-0.194 2.688 0.077 1.152 0.243 1.801 0.644 2.884 0.373 1.011 0.791 1.621 1.296 2.364 0.187 0.273 0.386 0.563 0.6 0.9 1.2 1.89 3.943 4.42 3.943 4.42l44.914 37.188 152.589-120.819-99.82-73.796z" />
<glyph unicode="&#xe92c;" glyph-name="calendar" horiz-adv-x="1067" d="M883.345 58.513c-24.247-23.804-57.131-37.18-91.422-37.18h-517.172c-34.29 0-67.177 13.376-91.424 37.18-24.247 23.808-37.869 56.094-37.869 89.762v521.872c0 33.667 13.622 65.955 37.869 89.761s57.133 37.181 91.424 37.181h64.646v19.396c0 32.133 17.366 58.182 38.788 58.182s38.788-26.049 38.788-58.182v-19.394l232.725-0.002v19.393c0 32.133 17.37 58.182 38.788 58.182 21.423 0 38.788-26.048 38.788-58.182v-19.394h64.649c34.291 0 67.174-13.374 91.422-37.181s37.871-56.094 37.871-89.761v-521.872c0-33.668-13.623-65.954-37.871-89.762zM231.654 148.275c0-11.221 4.541-21.986 12.623-29.922 8.082-7.932 19.044-12.39 30.474-12.39h517.172c11.43 0 22.391 4.459 30.473 12.39 8.081 7.936 12.625 18.701 12.625 29.922v338.513h-603.367v-338.513zM231.654 670.147v-105.785h603.367v105.785c0 11.222-4.544 21.985-12.625 29.92s-19.042 12.393-30.473 12.393h-64.649v-12.341c0-32.133-17.365-58.182-38.788-58.182-21.419 0-38.788 26.048-38.788 58.182v12.341h-232.725v-12.339c0-32.133-17.366-58.182-38.788-58.182s-38.788 26.049-38.788 58.182v12.339h-64.646c-11.43 0-22.392-4.458-30.474-12.393s-12.623-18.698-12.623-29.92zM416.992 374.588c0-21.423-17.366-38.788-38.788-38.788s-38.788 17.365-38.788 38.788c0 21.419 17.366 38.788 38.788 38.788s38.788-17.37 38.788-38.788zM572.117 374.588c0-21.423-17.365-38.788-38.788-38.788s-38.788 17.365-38.788 38.788c0 21.419 17.365 38.788 38.788 38.788s38.788-17.37 38.788-38.788zM727.283 374.588c0-21.423-17.365-38.788-38.788-38.788-21.419 0-38.788 17.365-38.788 38.788 0 21.419 17.37 38.788 38.788 38.788 21.423 0 38.788-17.37 38.788-38.788zM416.992 219.422c0-21.423-17.366-38.788-38.788-38.788s-38.788 17.365-38.788 38.788c0 21.423 17.366 38.788 38.788 38.788s38.788-17.365 38.788-38.788zM572.117 219.422c0-21.423-17.365-38.788-38.788-38.788s-38.788 17.365-38.788 38.788c0 21.423 17.365 38.788 38.788 38.788s38.788-17.365 38.788-38.788zM727.283 219.422c0-21.423-17.365-38.788-38.788-38.788-21.419 0-38.788 17.365-38.788 38.788s17.37 38.788 38.788 38.788c21.423 0 38.788-17.365 38.788-38.788z" />
<glyph unicode="&#xe92d;" glyph-name="buy" d="M422.406 829.169c-4.267-22.755-31.289-193.422-58.311-381.157-28.444-187.733-54.044-358.4-58.311-381.154l-8.533-38.4h214.754c183.467 0 214.758 2.846 214.758 21.333 0 31.287-112.358 777.955-120.892 800.711-4.267 11.378-35.554 17.067-91.021 17.067-81.067 0-85.333-1.422-92.445-38.4z" />
<glyph unicode="&#xe92e;" glyph-name="bulhorn" horiz-adv-x="1067" d="M851.588 408.209v79.565h190.955v-79.565h-190.955zM915.238 23.65l-154.035 119.351 45.828 63.65 154.035-119.347-45.828-63.654zM810.85 690.663l-45.828 63.651 150.217 118.019 45.828-63.651-150.217-118.020zM189.617 76.698v212.169h-89.111c-21.217 0-39.252 7.735-54.103 23.206s-22.278 34.253-22.278 56.358v159.125c0 22.102 7.426 40.888 22.278 56.358s32.886 23.206 54.103 23.206h229.143l254.606 159.127v-636.507l-254.606 159.125h-63.651v-212.169h-76.381zM635.174 270.302v355.384c22.916-21.217 41.374-47.075 55.377-77.575s21.005-63.874 21.005-100.119c0-36.245-7.002-69.615-21.005-100.117s-32.461-56.358-55.377-77.572zM100.506 527.556v-159.125h249.512l157.856-98.129v355.384l-157.856-98.129h-249.512z" />
<glyph unicode="&#xe92f;" glyph-name="book-open" d="M85.333 149.376h297.521c48.497 0 86.565-36.86 86.565-85.355 0-23.599 19.127-42.731 42.726-42.731s42.731 19.132 42.731 42.731c0 48.495 38.063 85.355 86.562 85.355h297.519c23.543 0 42.628 19.085 42.628 42.624l-0.009 640.773c-0.414 23.185-19.337 41.852-42.62 41.852l-260.706-0.208c-68.369 0-128.905-33.53-166.067-85.041-37.158 51.512-97.774 85.041-166.142 85.041l-260.708 0.208c-23.283 0-42.206-18.668-42.618-41.852l-0.007-640.773c0-23.539 19.084-42.624 42.625-42.624zM469.521 212.484c-23.586 14.14-51.187 22.268-80.688 22.268h-262.303v554.623h216.97c69.427 0 125.71-56.282 125.71-125.708l0.311-451.183zM554.769 212.484l0.316 451.183c0 69.427 56.282 125.708 125.709 125.708h216.969v-554.623h-262.302c-29.504 0-57.105-8.128-80.691-22.268z" />
<glyph unicode="&#xe930;" glyph-name="arrow-up-right" d="M725.355 704.083c23.62 0 42.769-19.149 42.769-42.771v-426.667c0-23.62-19.149-42.769-42.769-42.769s-42.773 19.149-42.773 42.769l0.047 323.481-349.171-348.394c-7.762-10.812-20.443-17.856-34.77-17.856-23.622 0-42.771 19.149-42.771 42.769 0 12.369 5.249 23.509 13.641 31.317l352.25 352.579h-323.119c-23.622 0-42.771 19.149-42.771 42.771s19.149 42.771 42.771 42.771h426.667z" />
<glyph unicode="&#xe931;" glyph-name="arrow-up-left" d="M298.688 704.083c-23.622 0-42.771-19.149-42.771-42.771v-426.667c0-23.62 19.149-42.769 42.771-42.769s42.771 19.149 42.771 42.769l-0.046 323.481 349.173-348.394c7.761-10.812 20.442-17.856 34.769-17.856 23.62 0 42.769 19.149 42.769 42.769 0 12.369-5.248 23.509-13.641 31.317l-352.248 352.579h323.119c23.62 0 42.769 19.149 42.769 42.771s-19.149 42.771-42.769 42.771h-426.667z" />
<glyph unicode="&#xe932;" glyph-name="arrow-up" d="M481.766 779.931c16.704 16.703 43.785 16.703 60.489 0l301.7-301.697c16.7-16.704 16.7-43.785 0-60.489-16.704-16.704-43.785-16.704-60.489 0l-228.702 228.768-0.55-493.254c2.155-13.137-1.83-27.085-11.959-37.214-16.704-16.704-43.785-16.704-60.489 0-8.742 8.747-12.911 20.335-12.497 31.791l-0.235 498.389-228.479-228.48c-16.703-16.704-43.784-16.704-60.487 0s-16.703 43.785 0 60.489l301.698 301.697z" />
<glyph unicode="&#xe933;" glyph-name="arrow-right" d="M843.93 478.234c16.704-16.704 16.704-43.785 0-60.489l-301.696-301.7c-16.704-16.7-43.785-16.7-60.489 0-16.704 16.704-16.704 43.785 0 60.489l228.766 228.702-493.251 0.55c-13.137-2.155-27.085 1.83-37.214 11.959-16.704 16.704-16.704 43.785 0 60.489 8.747 8.742 20.335 12.911 31.791 12.497l498.388 0.235-228.48 228.479c-16.704 16.703-16.704 43.784 0 60.487s43.785 16.703 60.489 0l301.696-301.698z" />
<glyph unicode="&#xe934;" glyph-name="arrow-left" d="M180.069 417.766c-16.703 16.704-16.703 43.785 0 60.489l301.697 301.701c16.704 16.7 43.785 16.7 60.489 0 16.704-16.704 16.704-43.784 0-60.488l-228.768-228.703 493.254-0.55c13.137 2.155 27.085-1.83 37.214-11.959 16.704-16.704 16.704-43.785 0-60.489-8.747-8.742-20.335-12.911-31.791-12.497l-498.389-0.235 228.48-228.48c16.704-16.7 16.704-43.785 0-60.484-16.704-16.704-43.785-16.704-60.489 0l-301.697 301.696z" />
<glyph unicode="&#xe935;" glyph-name="arrow-down-right" d="M725.355 191.876c23.62 0 42.769 19.149 42.769 42.769v426.667c0 23.622-19.149 42.771-42.769 42.771s-42.773-19.149-42.773-42.771l0.047-323.482-349.171 348.396c-7.762 10.813-20.443 17.857-34.77 17.857-23.622 0-42.771-19.149-42.771-42.771 0-12.367 5.249-23.508 13.641-31.317l352.25-352.576h-323.119c-23.622 0-42.771-19.153-42.771-42.773s19.149-42.769 42.771-42.769h426.667z" />
<glyph unicode="&#xe936;" glyph-name="arrow-down-left" d="M298.688 191.876c-23.622 0-42.771 19.149-42.771 42.769v426.667c0 23.622 19.149 42.771 42.771 42.771s42.771-19.149 42.771-42.771l-0.046-323.482 349.173 348.396c7.761 10.813 20.442 17.857 34.769 17.857 23.62 0 42.769-19.149 42.769-42.771 0-12.367-5.248-23.508-13.641-31.317l-352.248-352.576h323.119c23.62 0 42.769-19.153 42.769-42.773s-19.149-42.769-42.769-42.769h-426.667z" />
<glyph unicode="&#xe937;" glyph-name="arrow-down" d="M481.766 116.070c16.704-16.704 43.785-16.704 60.489 0l301.7 301.696c16.7 16.704 16.7 43.785 0 60.489-16.704 16.704-43.785 16.704-60.489 0l-228.702-228.766-0.55 493.251c2.155 13.137-1.83 27.085-11.959 37.214-16.704 16.704-43.785 16.704-60.489 0-8.742-8.747-12.911-20.335-12.497-31.791l-0.235-498.388-228.479 228.48c-16.703 16.704-43.784 16.704-60.487 0s-16.703-43.785 0-60.489l301.698-301.696z" />
<glyph unicode="&#xe938;" glyph-name="anchor-closed" d="M488.73 914.087c-61.21-3.389-121.133-18.302-173.328-43.112-4.406-2.033-9.355-4.406-11.049-5.219-1.694-0.746-7.931-4.067-13.896-7.253-73.277-39.519-135.165-98.697-178.074-170.143-60.126-100.052-80.462-216.915-57.754-331.812 10.168-51.721 31.113-105.408 58.77-150.827 27.182-44.535 60.736-83.238 102.086-117.606 11.524-9.557 28.131-21.897 39.316-29.15 7.456-4.813 26.504-16.606 26.843-16.606 0.136 0 2.169-1.084 4.541-2.441 8.473-4.881 31.317-15.996 42.773-20.877 106.694-45.619 226.745-49.822 336.082-11.729 39.654 13.828 75.038 31.659 109.747 55.245 65.276 44.335 118.694 105.476 154.415 176.721 27.588 55.040 43.046 111.1 48.401 175.565 1.084 13.15 1.084 53.346 0 66.432-3.593 42.705-10.372 76.461-23.185 114.963-10.778 32.469-26.163 65.549-44.194 95.036-23.454 38.435-53.146 73.887-87.172 104.323-76.395 68.26-171.298 109-273.451 117.473-15.386 1.288-46.908 1.763-60.873 1.017zM533.47 834.1c54.566-3.389 103.373-16.337 151.164-40.061 47.923-23.793 90.018-57.076 124.591-98.493 67.038-80.394 98.761-185.802 87.241-289.853-5.154-45.756-17.421-87.509-37.961-129.131-14.306-28.877-29.965-53.077-48.469-74.906-2.031-2.441-4.403-5.286-5.218-6.302l-1.425-1.899-16.879 17.148c-9.216 9.425-24.132 24.606-33.148 33.758-8.947 9.152-46.025 46.976-82.291 84.058-36.267 37.077-72.87 74.496-81.276 83.038-8.474 8.606-22.37 22.775-30.908 31.518-8.542 8.747-23.049 23.59-32.201 32.879-9.152 9.353-30.844 31.45-48.128 49.143-17.353 17.692-46.025 46.975-63.718 65.074-17.76 18.099-53.619 54.703-79.648 81.343-26.097 26.64-52.873 54.026-59.516 60.736l-12.066 12.337 7.321 5.83c20.946 16.743 45.010 31.927 70.362 44.468 25.216 12.405 47.315 20.675 73.006 27.386 38.503 10.032 81.071 14.303 119.168 11.93zM222.806 701.036c1.085-1.423 135.639-138.961 178.752-182.819 9.015-9.152 29.96-30.502 46.502-47.45 16.606-16.947 37.35-38.165 46.093-47.113 24.201-24.674 31.249-31.859 153.131-156.245l113.203-115.575-2.509-2.236c-3.729-3.324-19.93-15.522-27.251-20.608-47.113-32.401-103.373-54.566-160.653-63.177-21.286-3.255-33.284-4.066-57.617-4.066-29.961-0.068-48.738 1.762-76.937 7.386-33.827 6.78-64.534 17.357-95.919 32.947-59.855 29.824-109.475 73.207-147.909 129.404-18.031 26.368-35.588 61.956-46.23 93.542-28.945 86.225-26.233 182.276 7.592 266.739 8.948 22.369 22.166 47.721 35.723 68.464 4.271 6.643 17.082 24.132 22.031 30.233 7.863 9.693 9.829 12.066 10.304 12.066 0.271 0.068 1.017-0.61 1.695-1.491zM508.732 751.622c-6.101-1.83-10.304-3.864-14.844-7.118-15.659-11.185-23.317-30.097-19.793-48.67 1.762-9.219 6.711-18.845 12.608-24.606l2.709-2.644v-12.608h-74.563v-31.859l70.834-0.339-0.201-5.084c-0.068-2.779-0.747-23.183-1.562-45.281l-1.353-40.198 26.3-26.773c14.438-14.78 30.502-31.113 35.588-36.403l9.284-9.626v5.154c0.068 5.286-4.271 133.537-5.013 149.603l-0.478 8.948h71.313v31.859h-74.564v12.201l4.134 4.881c4.676 5.559 8.879 13.693 10.509 20.201 2.505 9.829 0.879 23.928-3.729 32.944-9.626 18.98-30.912 30.436-47.181 25.42zM479.326 432.478c-0.068-6.711-5.628-164.382-5.901-167.565l-0.405-4.271h-88.799l-11.32 6.234c-6.169 3.392-20.675 11.456-32.266 17.83-11.523 6.37-27.521 15.249-35.452 19.588-7.863 4.407-14.506 8.201-14.709 8.474-0.136 0.273 1.356 2.778 3.321 5.559 1.966 2.778 7.253 10.304 11.795 16.742l8.202 11.661h-73.615c-58.771 0-73.412-0.205-72.87-0.815 0.339-0.474 15.048-26.505 32.673-57.822s32.469-57.617 33.012-58.5l0.949-1.557 2.508 3.593c1.424 1.967 6.779 9.83 11.93 17.489s9.626 14.097 9.829 14.438c0.271 0.269 17.082-8.678 37.418-19.93 20.268-11.183 45.552-25.216 56.195-31.044l19.319-10.645 145.671-44.535 4.070 1.152c2.304 0.61 35.247 10.645 73.276 22.302l69.141 21.15 14.033 7.727 13.961 7.795-21.082 21.559-21.146 21.555h-88.461v2.236c0 1.152-0.61 22.165-1.425 46.571l-1.562 44.399-25.826 26.436c-14.234 14.575-31.859 32.538-39.177 39.991-9.289 9.493-13.286 13.154-13.286 12.203zM721.796 348.749c0.747-1.084 6.101-8.678 11.861-16.947l10.577-15.049-2.172-1.289c-1.22-0.747-8.742-4.881-16.742-9.289-7.996-4.403-14.844-8.269-15.185-8.538-0.337-0.273 8.747-10.167 20.203-21.897l20.877-21.286 2.103 1.22c10.031 5.628 22.302 12.271 22.434 12.066 0.137-0.132 5.628-8.201 12.271-18.031 6.643-9.758 12.339-17.553 12.608-17.284 0.205 0.337 12.203 21.419 26.573 46.976s29.146 51.925 32.943 58.569c3.797 6.643 6.848 12.335 6.848 12.335 0 0.137-32.943 0.273-73.276 0.273h-73.212l1.289-1.83z" />
<glyph unicode="&#xe939;" glyph-name="anchor" d="M430.135 838.914c15.479 16.294 31.774 26.479 51.733 33.404 6.11 2.037 23.219 2.852 38.699 2.037 66.398-3.259 114.466-56.216 110.396-121.802-2.445-41.958-19.554-70.881-57.033-97.36l-12.629-8.962-1.63-261.527c-1.22-232.606-0.405-261.53 5.299-261.53 12.625 0 56.213 18.739 82.692 35.439 14.665 8.964 36.258 27.294 48.068 40.333 22.814 25.66 49.293 71.287 46.033 79.842-1.22 2.85-10.185 7.74-19.959 10.59-13.444 4.075-19.149 8.964-24.849 19.959-6.11 13.039-6.11 16.299-0.815 27.294 6.515 12.629 127.095 127.915 140.949 134.43 11.405 5.705 28.919 0 36.254-11.405 6.519-9.775 32.179-156.834 32.179-184.128 0-10.999-2.85-17.109-11.81-24.034-11.409-9.37-24.849-9.779-50.513-2.035-7.334 2.035-10.185-1.225-18.739-21.594-22.404-54.178-73.327-115.691-125.47-151.13-103.471-70.477-249.306-74.142-359.293-8.555-57.846 34.219-116.099 100.617-140.133 160.499-8.147 20.369-10.999 23.219-18.739 20.779-28.108-8.555-40.329-7.744-51.328 3.255-6.111 6.11-10.999 15.479-10.999 21.184 0 5.295 6.111 48.068 13.443 94.916 11.407 72.917 15.073 86.767 23.22 95.322 17.924 17.519 28.108 13.444 77.806-32.589 97.768-90.027 99.397-91.657 99.397-105.506 0-18.33-10.592-30.554-30.552-36.663-9.37-2.85-18.331-7.74-19.554-10.999-3.666-9.775 29.33-61.918 56.624-89.212 28.515-28.514 83.917-59.473 114.471-64.363l15.885-2.85v527.128l-11.814 6.111c-15.479 8.147-40.735 35.033-50.919 54.179-5.703 10.591-7.74 24.034-7.74 48.884 0 38.7 5.703 53.772 31.369 80.658zM534.831 715.487c29.734 14.257 36.254 53.364 12.22 75.77-6.11 6.11-17.109 12.221-24.439 13.85-30.554 6.11-63.548-29.738-53.773-58.253 10.999-31.367 38.293-44.403 65.993-31.367z" />
<glyph unicode="&#xe93a;" glyph-name="alarm-clock" d="M493.539 822.542c222.515 0 402.885-180.371 402.885-402.883 0-95.734-33.387-183.662-89.156-252.787l69.539-67.291c6.017-6.466 9.694-15.141 9.694-24.674 0-20.017-16.223-36.245-36.245-36.245-11.147 0-21.119 5.032-27.765 12.951l-65.477 63.298c-70.636-61.128-162.723-98.133-263.475-98.133-101.467 0-194.172 37.508-265.007 99.416l-66.533-64.322c-6.649-7.919-16.621-12.951-27.769-12.951-20.017 0-36.244 16.228-36.244 36.245 0 9.533 3.68 18.203 9.696 24.674l70.881 68.588c-55.015 68.886-87.904 156.214-87.904 251.231 0 222.512 180.371 402.883 402.881 402.883zM493.539 749.291c-182.055 0-329.63-147.575-329.63-329.631 0-182.057 147.575-329.63 329.63-329.63 182.057 0 329.63 147.573 329.63 329.63s-147.573 329.631-329.63 329.631zM215.761 854.464c0 20.017-16.227 36.244-36.244 36.244-10.983 0-20.826-4.885-27.472-12.601l-133.253-128.943c-6.016-6.47-9.696-15.143-9.696-24.675 0-20.017 16.227-36.244 36.244-36.244 11.148 0 21.12 5.033 27.769 12.951l130.949 126.596c7.195 6.623 11.703 16.121 11.703 26.672zM769.346 854.464c0 20.017 16.228 36.244 36.245 36.244 10.981 0 20.826-4.885 27.472-12.601l133.252-128.943c6.017-6.47 9.699-15.143 9.699-24.675 0-20.017-16.228-36.244-36.245-36.244-11.147 0-21.124 5.033-27.77 12.951l-130.95 126.596c-7.192 6.623-11.703 16.121-11.703 26.672zM367.376 393.635c0 20.265 16.429 36.696 36.696 36.696 9.98 0 19.030-3.984 25.645-10.447l47.748-48.201 122.677 122.923c6.422 5.52 14.775 8.856 23.908 8.856 20.265 0 36.693-16.429 36.693-36.696 0-9.136-3.335-17.491-8.86-23.914l-149.226-149.29c-6.568-6.207-15.437-10.016-25.192-10.016s-18.622 3.808-25.195 10.016l-76.37 76.556c-5.322 6.368-8.525 14.57-8.525 23.518z" />
</font>
</defs>
</svg>
