<svg width="88" height="255" viewBox="0 0 88 255" fill="none" xmlns="http://www.w3.org/2000/svg">
  <path class='st1' d="M43.65 0.5C29 0.5 0.5 60.27 0.5 98.76V175C0.5 211.45 11.77 246.36 15.09 248.82C18.41 251.28 22.81 253.64 43.65 253.64C64.49 253.64 68.87 251.29 72.2 248.82C75.53 246.35 86.79 211.43 86.79 175V98.76C86.79 60.27 58.26 0.5 43.65 0.5Z" stroke-miterlimit="10"/>
  <path class='st0' d="M78.4761 93.59C75.8061 82.84 62.8861 75 44.1861 75C25.4861 75 12.5361 82.84 9.88611 93.59C8.22611 100.31 7.99978 143 8.49986 165.09C10.4674 252 25 252 25 252C25 252 26.582 253 42 253.5C57.74 253.5 62.5 252 62.5 252C62.5 252 78.4761 252 79.4999 165.09C79.766 142.502 80.1461 100.33 78.4761 93.59Z" />
  <path class='st0' d="M64.366 119.369L64.3666 119.37C64.7309 119.972 65.0633 120.943 65.349 122.234C65.6324 123.513 65.8615 125.067 66.0385 126.806C66.3923 130.283 66.5341 134.468 66.4932 138.619C66.4522 142.769 66.2285 146.873 65.8542 150.186C65.6669 151.843 65.4428 153.294 65.1873 154.451C64.9277 155.626 64.6473 156.439 64.3738 156.865C63.7919 157.771 62.8118 158.53 61.4859 159.152C60.1623 159.774 58.5271 160.246 56.6816 160.596C52.9899 161.297 48.5305 161.5 44.2052 161.5C39.8802 161.5 35.4184 161.294 31.7242 160.592C29.8774 160.241 28.2408 159.77 26.9162 159.148C25.5892 158.526 24.6085 157.768 24.0267 156.865C23.7512 156.437 23.4607 155.621 23.1823 154.447C22.9081 153.29 22.6574 151.839 22.4381 150.182C21.9996 146.87 21.6904 142.766 21.5638 138.616C21.4371 134.465 21.4935 130.28 21.7832 126.802C21.9281 125.063 22.1307 123.51 22.3954 122.23C22.6624 120.939 22.9844 119.97 23.3471 119.37C24.8901 116.816 27.6101 115.094 31.1796 114.011C34.7486 112.927 39.1151 112.5 43.8664 112.5C48.6177 112.5 52.9818 112.927 56.547 114.011C60.1127 115.094 62.8278 116.816 64.366 119.369Z" stroke='#4D4B4B'/>
  <path class='st0' d="M78.9998 97.28C77.5468 80.7512 76.8893 86.7426 73.4998 70.5C65.4998 45 55.078 37.5 43.658 37.5C32.238 37.5 24.9356 47 16.4998 70.5C12.5512 81.5 12.9998 75.5 9.49993 97.28C8.32993 112.35 43.658 97.28 43.658 97.28C43.658 97.28 80.1698 112.35 78.9998 97.28Z" />
  <path class='st0' stroke='#828282' d="M43.65 0.5C32.49 0.5 13.21 35.35 4.71997 69C14.29 43.64 33.1 5.77 43.65 5.77C54.2 5.77 73 43.64 82.57 69C74.08 35.35 54.8 0.5 43.65 0.5Z"/>
  <path class='st2' d="M44.1039 79.5098C37.7539 79.5098 30.6339 81.3198 30.2539 82.1998C30.3339 84.4598 32.4739 102.11 32.8639 105.65C36.5859 105.081 40.34 104.747 44.1039 104.65C47.8645 104.747 51.6153 105.081 55.3339 105.65C55.7239 102.11 57.8639 84.4598 57.9439 82.1998C57.5639 81.3298 50.4539 79.5098 44.1039 79.5098Z" />
  <path class='st2' d="M14.004 95.3902C13.344 99.3902 19.624 108.86 21.124 111.26C22.794 109.76 26.604 107.26 29.124 106.63C28.434 102.23 25.744 83.4102 25.744 83.4102C19.144 84.9602 14.664 91.3302 14.004 95.3902Z"/>
  <path class='st2' d="M74.194 95.3901C73.534 91.3901 69.054 84.9601 62.444 83.3901C62.444 83.3901 59.754 102.21 59.064 106.61C61.594 107.22 65.404 109.74 67.064 111.24C68.574 108.86 74.864 99.4301 74.194 95.3901Z"/>
  <path class='st2' d="M69.4541 115.55C71.8053 112.139 73.9363 108.582 75.8341 104.9C76.9441 116.63 75.6141 148.81 74.3541 157.01C72.7958 156.791 71.3522 156.067 70.2441 154.95C70.3541 142.57 71.5241 129.44 69.4541 115.55Z"/>
  <path class='st2' d="M18.7942 115.55C16.4567 112.138 14.339 108.581 12.4542 104.9C11.3442 116.63 12.6742 148.81 13.9342 157.01C15.4954 156.791 16.9422 156.067 18.0542 154.95C17.8442 142.57 16.6742 129.44 18.7942 115.55Z"/>
  <line class='st3' x1="19.15" y1="167" x2="19.15" y2="245" stroke="#4D4B4B" stroke-width="0.5"/>
  <line class='st3' x1="24.1499" y1="167" x2="24.1499" y2="251" stroke="#4D4B4B" stroke-width="0.5"/>
  <line class='st3' x1="29.1498" y1="167" x2="29.1498" y2="253" stroke="#4D4B4B" stroke-width="0.5"/>
  <line class='st3' x1="34.1502" y1="167" x2="34.1502" y2="253" stroke="#4D4B4B" stroke-width="0.5"/>
  <line class='st3' x1="39.1501" y1="167" x2="39.1501" y2="253" stroke="#4D4B4B" stroke-width="0.5"/>
  <line class='st3' x1="44.15" y1="167" x2="44.15" y2="253" stroke="#4D4B4B" stroke-width="0.5"/>
  <line class='st3' x1="49.1499" y1="167" x2="49.1499" y2="253" stroke="#4D4B4B" stroke-width="0.5"/>
  <line class='st3' x1="54.1498" y1="167" x2="54.1498" y2="253" stroke="#4D4B4B" stroke-width="0.5"/>
  <line class='st3' x1="59.1502" y1="167" x2="59.1502" y2="252" stroke="#4D4B4B" stroke-width="0.5"/>
  <line class='st3' x1="64.1501" y1="167" x2="64.1501" y2="251" stroke="#4D4B4B" stroke-width="0.5"/>
  <line class='st3' x1="69.15" y1="167" x2="69.15" y2="244" stroke="#4D4B4B" stroke-width="0.5"/>
</svg>
