<svg width="18" height="41" viewBox="0 0 18 41" fill="none" xmlns="http://www.w3.org/2000/svg">
<path d="M3.125 40.8958C3.125 39.6625 4.25 36.5791 4.25 36.5791L13.25 36.5791C13.25 36.5791 14.375 39.6625 14.375 40.8958L3.125 40.8958Z" fill="url(#paint0_linear_3207_14838)"/>
<path d="M0.0297308 11.4288C-0.59221 2.80306 8.75 0.8125 8.75 0.8125L8.74999 4.80935C8.74999 4.80935 0.222619 14.104 0.0297308 11.4288Z" fill="url(#paint1_linear_3207_14838)"/>
<path d="M17.4703 11.4288C18.0922 2.80306 8.75 0.8125 8.75 0.8125L8.75001 4.80935C8.75001 4.80935 17.2774 14.104 17.4703 11.4288Z" fill="url(#paint2_linear_3207_14838)"/>
<path d="M0.0297308 27.4622C-0.59221 18.8364 8.75 16.8459 8.75 16.8459L8.74999 20.8427C8.74999 20.8427 0.222619 30.1374 0.0297308 27.4622Z" fill="url(#paint3_linear_3207_14838)"/>
<path d="M17.4703 27.4622C18.0922 18.8364 8.75 16.8459 8.75 16.8459L8.75001 20.8427C8.75001 20.8427 17.2774 30.1374 17.4703 27.4622Z" fill="url(#paint4_linear_3207_14838)"/>
<path d="M13.2623 39.0456C10.5817 39.457 6.91827 39.457 4.23769 39.0456C3.72482 38.9669 3.33707 38.5612 3.29696 38.0439C2.86179 32.4301 3.38983 10.6029 3.38966 7.66492C3.38948 4.5443 5.17644 3.17455 6.36762 2.70575C7.5588 2.23696 9.94116 2.23696 11.1323 2.70575C12.3235 3.17455 14.1103 4.5443 14.1103 7.66492C14.1103 10.6029 14.6382 32.4301 14.203 38.0439C14.1629 38.5612 13.7751 38.9669 13.2623 39.0456Z" fill="#FFEE57" stroke="#F4E347" stroke-width="0.5"/>
<g filter="url(#filter0_ii_3207_14838)">
<path d="M12.5007 33.4958L4.99931 33.4958C4.65414 33.4958 4.375 33.2195 4.375 32.8743L4.37502 29.7081C4.37505 23.9728 4.37511 14.1971 4.375 12.5292C4.37485 10.2713 5.62509 8.21249 8.75005 8.21249C11.875 8.21249 13.125 10.1804 13.125 12.5292L13.125 32.8743C13.125 33.2195 12.8459 33.4958 12.5007 33.4958Z" fill="#FFEE57"/>
</g>
<g filter="url(#filter1_ddi_3207_14838)">
<path d="M11.942 24.2017C10.0236 24.2605 7.47644 24.2605 5.55797 24.2017C4.89419 24.1814 4.37149 23.6339 4.38342 22.9699C4.41039 21.4695 4.52372 19.3839 4.99993 18.4156C5.62499 17.1448 11.875 17.1448 12.5 18.4157C12.9761 19.384 13.0895 21.4695 13.1166 22.9699C13.1285 23.6339 12.6058 24.1814 11.942 24.2017Z" fill="#FFEE57"/>
</g>
<defs>
<filter id="filter0_ii_3207_14838" x="2.875" y="6.71249" width="11.75" height="28.2833" filterUnits="userSpaceOnUse" color-interpolation-filters="sRGB">
<feFlood flood-opacity="0" result="BackgroundImageFix"/>
<feBlend mode="normal" in="SourceGraphic" in2="BackgroundImageFix" result="shape"/>
<feColorMatrix in="SourceAlpha" type="matrix" values="0 0 0 0 0 0 0 0 0 0 0 0 0 0 0 0 0 0 127 0" result="hardAlpha"/>
<feOffset dx="1.5" dy="1.5"/>
<feGaussianBlur stdDeviation="2"/>
<feComposite in2="hardAlpha" operator="arithmetic" k2="-1" k3="1"/>
<feColorMatrix type="matrix" values="0 0 0 0 0.800152 0 0 0 0 0.729305 0 0 0 0 0.100019 0 0 0 1 0"/>
<feBlend mode="normal" in2="shape" result="effect1_innerShadow_3207_14838"/>
<feColorMatrix in="SourceAlpha" type="matrix" values="0 0 0 0 0 0 0 0 0 0 0 0 0 0 0 0 0 0 127 0" result="hardAlpha"/>
<feOffset dx="-1.5" dy="-1.5"/>
<feGaussianBlur stdDeviation="1.5"/>
<feComposite in2="hardAlpha" operator="arithmetic" k2="-1" k3="1"/>
<feColorMatrix type="matrix" values="0 0 0 0 0.937652 0 0 0 0 0.868072 0 0 0 0 0.250041 0 0 0 1 0"/>
<feBlend mode="normal" in2="effect1_innerShadow_3207_14838" result="effect2_innerShadow_3207_14838"/>
</filter>
<filter id="filter1_ddi_3207_14838" x="2.5083" y="15.5875" width="12.4834" height="10.5333" filterUnits="userSpaceOnUse" color-interpolation-filters="sRGB">
<feFlood flood-opacity="0" result="BackgroundImageFix"/>
<feColorMatrix in="SourceAlpha" type="matrix" values="0 0 0 0 0 0 0 0 0 0 0 0 0 0 0 0 0 0 127 0" result="hardAlpha"/>
<feOffset dx="0.625" dy="0.625"/>
<feGaussianBlur stdDeviation="0.625"/>
<feComposite in2="hardAlpha" operator="out"/>
<feColorMatrix type="matrix" values="0 0 0 0 0.795985 0 0 0 0 0.722237 0 0 0 0 0.0895485 0 0 0 1 0"/>
<feBlend mode="normal" in2="BackgroundImageFix" result="effect1_dropShadow_3207_14838"/>
<feColorMatrix in="SourceAlpha" type="matrix" values="0 0 0 0 0 0 0 0 0 0 0 0 0 0 0 0 0 0 127 0" result="hardAlpha"/>
<feOffset dx="-0.625" dy="-0.625"/>
<feGaussianBlur stdDeviation="0.625"/>
<feComposite in2="hardAlpha" operator="out"/>
<feColorMatrix type="matrix" values="0 0 0 0 0.933485 0 0 0 0 0.857148 0 0 0 0 0.202255 0 0 0 1 0"/>
<feBlend mode="normal" in2="effect1_dropShadow_3207_14838" result="effect2_dropShadow_3207_14838"/>
<feBlend mode="normal" in="SourceGraphic" in2="effect2_dropShadow_3207_14838" result="shape"/>
<feColorMatrix in="SourceAlpha" type="matrix" values="0 0 0 0 0 0 0 0 0 0 0 0 0 0 0 0 0 0 127 0" result="hardAlpha"/>
<feOffset dx="-0.625" dy="-0.625"/>
<feGaussianBlur stdDeviation="0.625"/>
<feComposite in2="hardAlpha" operator="arithmetic" k2="-1" k3="1"/>
<feColorMatrix type="matrix" values="0 0 0 0 1 0 0 0 0 0.952418 0 0 0 0 0.533334 0 0 0 1 0"/>
<feBlend mode="normal" in2="shape" result="effect3_innerShadow_3207_14838"/>
</filter>
<linearGradient id="paint0_linear_3207_14838" x1="11.3875" y1="37.2732" x2="9.89044" y2="43.4856" gradientUnits="userSpaceOnUse">
<stop stop-color="#E0F6FF"/>
<stop offset="1" stop-color="#96DEFB" stop-opacity="0"/>
</linearGradient>
<linearGradient id="paint1_linear_3207_14838" x1="6.42641" y1="2.59714" x2="-1.81122" y2="12.9366" gradientUnits="userSpaceOnUse">
<stop stop-color="#E0F6FF"/>
<stop offset="1" stop-color="#96DEFB" stop-opacity="0"/>
</linearGradient>
<linearGradient id="paint2_linear_3207_14838" x1="11.0736" y1="2.59714" x2="19.3112" y2="12.9366" gradientUnits="userSpaceOnUse">
<stop stop-color="#E0F6FF"/>
<stop offset="1" stop-color="#96DEFB" stop-opacity="0"/>
</linearGradient>
<linearGradient id="paint3_linear_3207_14838" x1="6.42641" y1="18.6305" x2="-1.81122" y2="28.97" gradientUnits="userSpaceOnUse">
<stop stop-color="#E0F6FF"/>
<stop offset="1" stop-color="#96DEFB" stop-opacity="0"/>
</linearGradient>
<linearGradient id="paint4_linear_3207_14838" x1="11.0736" y1="18.6305" x2="19.3112" y2="28.97" gradientUnits="userSpaceOnUse">
<stop stop-color="#E0F6FF"/>
<stop offset="1" stop-color="#96DEFB" stop-opacity="0"/>
</linearGradient>
</defs>
</svg>
