<svg width="13" height="19" viewBox="0 0 13 19" fill="none" xmlns="http://www.w3.org/2000/svg">
<path d="M3.625 18.875C3.625 17.625 4.25 14.5 4.25 14.5L9.25 14.5C9.25 14.5 9.875 17.625 9.875 18.875L3.625 18.875Z" fill="url(#paint0_linear_3207_14840)"/>
<path d="M0.51019 8.46839C1.23017 3.41151 6.74999 0.75 6.74999 0.75L6.74999 3.69028C6.74999 3.69028 0.207478 10.5945 0.51019 8.46839Z" fill="url(#paint1_linear_3207_14840)"/>
<path d="M12.9898 8.46839C12.2698 3.41151 6.75001 0.75 6.75001 0.75L6.75001 3.69028C6.75001 3.69028 13.2925 10.5945 12.9898 8.46839Z" fill="url(#paint2_linear_3207_14840)"/>
<path d="M8.63855 17.2002C7.21587 17.3499 6.28414 17.3499 4.86146 17.2002C4.33239 17.1445 3.90294 16.7493 3.7936 16.2286C3.45381 14.6107 3 12.2622 3 10.4375C3 7.3125 5.78804 2.3125 6.75 2.3125C7.71196 2.3125 10.5 7.3125 10.5 10.4375C10.5 12.1576 10.0446 14.5834 9.70465 16.2282C9.59697 16.7492 9.16761 17.1445 8.63855 17.2002Z" fill="#59AFFF" stroke="#4FA8FA" stroke-width="0.5"/>
<g filter="url(#filter0_ii_3207_14840)">
<path d="M8.29864 13.4882C7.14904 13.5873 6.351 13.5873 5.20139 13.4882C4.6563 13.4413 4.21205 13.0317 4.11117 12.4939C3.37802 8.58573 3.26211 6.0625 6.75006 6.0625C10.238 6.0625 10.122 8.58573 9.38886 12.4939C9.28799 13.0317 8.84374 13.4413 8.29864 13.4882Z" fill="#59AFFF"/>
</g>
<path d="M8.29864 13.4882C7.14904 13.5873 6.351 13.5873 5.20139 13.4882C4.6563 13.4413 4.21205 13.0317 4.11117 12.4939C3.37802 8.58573 3.26211 6.0625 6.75006 6.0625C10.238 6.0625 10.122 8.58573 9.38886 12.4939C9.28799 13.0317 8.84374 13.4413 8.29864 13.4882Z" stroke="#4FA8FA" stroke-width="0.625"/>
<defs>
<filter id="filter0_ii_3207_14840" x="2.44434" y="4.8125" width="8.61133" height="10" filterUnits="userSpaceOnUse" color-interpolation-filters="sRGB">
<feFlood flood-opacity="0" result="BackgroundImageFix"/>
<feBlend mode="normal" in="SourceGraphic" in2="BackgroundImageFix" result="shape"/>
<feColorMatrix in="SourceAlpha" type="matrix" values="0 0 0 0 0 0 0 0 0 0 0 0 0 0 0 0 0 0 127 0" result="hardAlpha"/>
<feOffset dx="0.9375" dy="0.9375"/>
<feGaussianBlur stdDeviation="0.9375"/>
<feComposite in2="hardAlpha" operator="arithmetic" k2="-1" k3="1"/>
<feColorMatrix type="matrix" values="0 0 0 0 0.0901961 0 0 0 0 0.498039 0 0 0 0 0.87451 0 0 0 1 0"/>
<feBlend mode="normal" in2="shape" result="effect1_innerShadow_3207_14840"/>
<feColorMatrix in="SourceAlpha" type="matrix" values="0 0 0 0 0 0 0 0 0 0 0 0 0 0 0 0 0 0 127 0" result="hardAlpha"/>
<feOffset dx="-0.9375" dy="-0.9375"/>
<feGaussianBlur stdDeviation="0.9375"/>
<feComposite in2="hardAlpha" operator="arithmetic" k2="-1" k3="1"/>
<feColorMatrix type="matrix" values="0 0 0 0 0.494118 0 0 0 0 0.756863 0 0 0 0 1 0 0 0 1 0"/>
<feBlend mode="normal" in2="effect1_innerShadow_3207_14840" result="effect2_innerShadow_3207_14840"/>
</filter>
<linearGradient id="paint0_linear_3207_14840" x1="8.21529" y1="15.2034" x2="5.76085" y2="20.7864" gradientUnits="userSpaceOnUse">
<stop stop-color="#E0F6FF"/>
<stop offset="1" stop-color="#96DEFB" stop-opacity="0"/>
</linearGradient>
<linearGradient id="paint1_linear_3207_14840" x1="5.09029" y1="2.05633" x2="-0.970842" y2="9.48005" gradientUnits="userSpaceOnUse">
<stop stop-color="#E0F6FF"/>
<stop offset="1" stop-color="#96DEFB" stop-opacity="0"/>
</linearGradient>
<linearGradient id="paint2_linear_3207_14840" x1="8.40971" y1="2.05633" x2="14.4708" y2="9.48005" gradientUnits="userSpaceOnUse">
<stop stop-color="#E0F6FF"/>
<stop offset="1" stop-color="#96DEFB" stop-opacity="0"/>
</linearGradient>
</defs>
</svg>
